<?xml version="1.0"?>
<svg id="Capa_1" data-name="Capa 1" xmlns="http://www.w3.org/2000/svg" viewBox="0 0 504.62 91.64">
  <defs>
    
  </defs>
  <g>
    <path class="cls-1" d="M207.01,29.76c0-22.22,21.41-29.08,40.41-29.08s40.56,7.9,40.71,30.42c0,21.32-21.71,29.97-40.41,29.97-15.38.15-33.32,3.73-33.32,21.62v-2.27h72.67v7.75h-80.66v-5.33c0-23.11,21.56-29.08,41.01-29.08,13.72,0,33.17-5.07,33.17-22.66s-18.7-23.41-33.17-23.41-32.41,4.77-32.41,22.07h-7.99Z"></path>
    <path class="cls-1" d="M308.78,41.68c0-54.72,80.81-54.58,80.81,0v8.97c0,54.58-80.81,54.72-80.81,0v-8.97ZM316.77,50.65c0,44.73,64.83,44.58,64.83,0v-8.97c0-44.44-64.83-44.58-64.83,0v8.97Z"></path>
    <path class="cls-1" d="M161.32,32.35c12.36-3.77,22.92-11.46,22.92-24.73,0-.67-.03-1.32-.08-1.96h-8.02c.06.64.1,1.29.1,1.96,0,16.13-21.26,20.66-33.77,20.66s-33.77-4.52-33.77-20.66c0-.67.04-1.33.1-1.96h-8.02c-.04.64-.07,1.3-.07,1.96,0,13.27,9.8,20.66,22.01,24.42-12.36,2.56-23.82,12.21-23.82,26.69.15,22.77,24.12,30,43.57,30s43.42-7.24,43.42-30c0-14.02-12.21-23.82-24.58-26.38ZM142.48,81.04c-12.51,0-35.43-4.82-35.43-22.31s23.07-23.52,35.43-23.52,35.43,5.88,35.43,23.52c-.15,17.49-23.07,22.31-35.43,22.31Z"></path>
    <path class="cls-1" d="M39.5,6.78c20.96,0,31.51,10.1,31.36,21.11-.15,10.1-10.7,21.41-31.66,21.41h-17.04v6.78h17.49c21.71,0,32.87,11.61,32.87,22.62,0,3.22-.78,6.31-2.34,9.1h8.38c1.09-2.95,1.65-6.11,1.65-9.4,0-12.97-11.61-23.52-24.27-25.93,12.36-2.26,22.31-12.66,22.31-24.58-.15-15.68-13.87-27.89-38.9-27.89C21.71,0,.15,5.28,0,27.14h7.69C7.69,9.2,26.69,6.78,39.5,6.78Z"></path>
  </g>
  <g>
    <path class="cls-1" d="M418.44,25.2c-.32,1.77-1.49,2.8-2.95,2.8-1.81,0-2.73-1.1-2.73-3.48v-.71c-1.1,2.41-2.98,4.22-5.71,4.22-2.45,0-3.9-1.35-3.9-3.48,0-2.8,2.73-4.97,9.62-6.32v-2.7c0-3.3-1.49-5.11-3.9-5.11-2.13,0-3.66,1.35-3.66,3.19,0,.78.28,1.42.96,1.95-.18.43-.71.82-1.46.82-.85,0-1.53-.64-1.53-1.77,0-2.38,3.9-5.32,7.2-5.32s5.04,1.81,5.08,5.54v9.26c0,1.46.5,2.13,1.42,2.13.57,0,1.06-.32,1.35-1.06l.21.04ZM412.76,22.96v-4.22c-5.11.92-7.13,2.34-7.13,4.79,0,1.67,1.06,2.8,2.8,2.8,1.99,0,3.66-1.46,4.33-3.37Z"></path>
    <path class="cls-1" d="M434.37,20.3l-.89,7.45h-13.52l10.83-17.57h-3.83c-3.34,0-5.68,1.6-6.78,6.1h-.18l.82-6.64h12.88v.43l-10.51,17.14h4.08c3.69,0,5.89-1.42,6.92-6.92h.18Z"></path>
    <path class="cls-1" d="M437.14,18.95c0-5.61,4.26-9.65,8.8-9.65,5.22,0,8.87,4.01,8.87,9.09,0,5.75-4.26,9.65-8.87,9.65-5.22,0-8.8-3.9-8.8-9.09ZM451.8,19.41c0-4.33-2.27-9.55-6.14-9.55-3.16,0-5.5,2.87-5.5,7.99,0,4.47,2.2,9.62,6.28,9.62,2.98,0,5.36-2.77,5.36-8.06Z"></path>
    <path class="cls-1" d="M469.65,23.56c-.64,2.8-2.31,4.47-4.93,4.47-3.09,0-4.69-1.6-4.69-4.83v-12.88h-4.22v-.14l3.83-1.74,2.87-3.98h.11v5.18h6.64v.67h-6.64v12.49c0,2.48,1.06,3.87,3.12,3.87,2.2,0,3.19-1.49,3.76-3.16l.14.04Z"></path>
    <path class="cls-1" d="M486.3,21.58l.14.04c-.64,3.94-3.48,6.42-7.42,6.42-4.9,0-7.99-3.41-7.99-8.94s3.37-9.8,7.99-9.8,6.89,3.19,7.49,6.99h-13.7c-.04.32-.04.64-.04.96,0,5.15,2.8,8.45,7.17,8.45,2.8,0,5.32-1.38,6.35-4.12ZM472.89,15.72h10.68c-.39-3.37-2.09-5.82-5.15-5.82-2.77,0-5.04,2.2-5.54,5.82Z"></path>
    <path class="cls-1" d="M504.62,25.2c-.32,1.77-1.49,2.8-2.95,2.8-1.81,0-2.73-1.1-2.73-3.48v-.71c-1.1,2.41-2.98,4.22-5.71,4.22-2.45,0-3.9-1.35-3.9-3.48,0-2.8,2.73-4.97,9.62-6.32v-2.7c0-3.3-1.49-5.11-3.9-5.11-2.13,0-3.66,1.35-3.66,3.19,0,.78.28,1.42.96,1.95-.18.43-.71.82-1.46.82-.85,0-1.53-.64-1.53-1.77,0-2.38,3.9-5.32,7.2-5.32s5.04,1.81,5.08,5.54v9.26c0,1.46.5,2.13,1.42,2.13.57,0,1.06-.32,1.35-1.06l.21.04ZM498.94,22.96v-4.22c-5.11.92-7.13,2.34-7.13,4.79,0,1.67,1.06,2.8,2.8,2.8,1.99,0,3.66-1.46,4.33-3.37Z"></path>
  </g>
</svg>