<?xml version="1.0"?>
<svg id="Layer_2" xmlns="http://www.w3.org/2000/svg" version="1.1" viewBox="0 0 725.2 275.3">
  
  <g id="LOGO">
    <g>
      <g>
        <g>
          <path d="M96,39.4c0,.3,0,.6,0,.9,0,.3,0,.6,0,.9v-1.7h0Z"></path>
          <path d="M66.9,75.3v-2.5c19.2-2.3,28.8-13.7,29.1-32.6-.3-25.3-13.3-37-40.5-37H0v2.9c12.1,1.5,13.3,3.1,13.3,13.2v172.5c0,10.1-1.2,11.7-13.3,13.2v2.9h57c28.9,0,43.3-14.2,43.3-42.1v-51c0-25.1-10.7-37.1-33.3-39.5ZM33.6,62.6l-5.6-52.5,19.5-2.1c20.1-2.1,28.3,6.2,30.7,28.8l.2,2c2.3,21.8-4.4,31.5-24.4,33.6l-19.2,2-1.3-11.9h0ZM84.5,165.8c2.3,25.2-5.6,36.2-26.6,38.1l-20.7,1.9-6.9-74.6-4.9-52.4,20.4-1.9c21-1.9,31,6.8,33.5,33.3l5.2,55.6h0Z"></path>
          <path d="M218,191.8L182.2,3.3h-16.2l-32.4,174.4c-3.9,18.4-7.8,25.6-13.6,27.3v2.9h32.5v-2.9c-14.6-1.6-18-10.5-13.9-30.3l3.4-17.5h51.2l6.6,33.5c2.3,11.3.9,12.9-14,14.3v2.9h43.1v-2.9c-7-1.6-8.5-2.9-10.7-13.2h0ZM142.7,152.8l14.3-76.9c4.2-22.1,7-37.6,9.8-53.9h2.8c2.3,16.4,4.7,31.6,8.6,53.1l14,77.8h-49.6,0Z"></path>
          <path d="M336.9,134.9l-4.2-25.6c-2.4-14.5-5.7-22.4-11.1-27-4.1-3.5-9.4-5.1-16.3-6v-2.6c7-.8,13-2.6,18-5.2,9.1-4.8,14.7-12.6,17-22.7,1-4.3.9-8.8,0-13.2-4.1-18.9-19-29.2-44.3-29.2h-52.2v2.9c12.1,1.5,13.3,3.1,13.3,13.2v172.5c0,10.1-1.2,11.7-13.3,13.2v2.9h44.6v-2.9c-12-1.5-13.3-3.1-13.3-13.2v-115.7h14.8c12.7,0,18.9,4.7,22.8,20.2.8,3.4,1.6,7.3,2.2,11.8l3.6,25c3.6,25,6,65.7,10.1,74.8h22.2v-2.8c-6.1-3.2-9.6-44.8-13.9-70.3h0ZM293,72h-18V7.5h18c20.2,0,29.7,9.5,30.2,32.2-.6,22.8-10,32.2-30.2,32.2Z"></path>
          <path d="M416.8,3.3h-51.3v2.9c12.1,1.5,13.3,3.1,13.3,13.2v172.5c0,10.1-1.2,11.7-13.3,13.2v2.9h51.3c36.5,0,54.2-22.1,54.2-66.2v-71.9c0-44.3-17.7-66.5-54.2-66.5ZM446,150.1c-3.4,38.7-15.2,54.2-40.4,52l-19.2-1.7L403.1,7.9l19.2,1.7c25.2,2.2,34.2,19.7,30.8,58.8l-7.1,81.7h0Z"></path>
          <path d="M723.2,3.3h-97.2l-2.2,72.5h4.2c6-69.3,10.5-68.1,29.4-68.1h8.2v183.9c0,10.5-1.8,12-19.4,13.4v2.9h56.9v-2.9c-17.8-1.5-19.6-2.9-19.6-13.4V7.7h8.2c19,0,23.4-1.2,29.4,68.1h4.2l-2-72.5h0Z"></path>
        </g>
        <path d="M552.6,0c-33.2,0-50.7,23-50.7,66.2v76.9c0,43.3,17.5,66.2,50.7,66.2s50.7-22.9,50.7-66.2v-76.9c0-43.3-17.7-66.2-50.7-66.2ZM584.9,150.1c0,39.5-10.4,56.3-32.3,56.3s-32.5-16.8-32.5-56.3V59.3c0-39.6,10.5-56.4,32.5-56.4s32.3,16.8,32.3,56.4v90.8Z"></path>
      </g>
      <g>
        <path d="M11.2,257.9h7.1c5.5,0,9.2,3.1,9.2,8.5s-3.8,8.5-9.3,8.5h-7.1v-17h0ZM13.7,259.8v13.2h4.5c4.2,0,6.9-2.3,6.9-6.6s-2.7-6.6-6.9-6.6c0,0-4.6,0-4.5,0Z"></path>
        <path d="M33.8,257.9h2.4v17h-2.4v-17Z"></path>
        <path d="M42.8,257.9h2.9l5.2,7,5.2,7.1v-7.2s0-7,0-7h2.2v17h-2.9l-5.2-7-5.2-7.1v7.1s0,7,0,7h-2.2v-17h0Z"></path>
        <path d="M64.8,257.9h2.9l5.2,7,5.2,7.1v-7.2c0,0,0-7,0-7h2.2v17h-2.9l-5.2-7-5.2-7.1v7.1c0,0,0,7,0,7h-2.2v-17h0Z"></path>
        <path d="M86.8,257.9h13.9v1.9h-11.5v5.4h8.3v1.9h-8.3v5.9h11.5v1.9h-13.9v-17h0Z"></path>
        <path d="M107,257.9h10c3.4,0,5.6,1.7,5.6,4.6s-1.1,3.5-2.8,4.2c1.5.4,2.2,1.5,2.3,3.4,0,2.2.2,3.7.7,4.9h-2.5c-.4-1-.6-2.2-.6-4.8,0-1.9-.9-2.5-2.8-2.5h-7.3v7.3h-2.5v-17h0ZM109.5,259.8v6h7.3c2.1,0,3.3-1.1,3.3-3s-1.3-3-3.3-3h-7.3Z"></path>
        <path d="M154.1,264.9c-.5-3.4-3-5.4-6.3-5.4s-6.5,2.6-6.5,6.9,2.7,6.9,6.4,6.9,5.9-2,6.4-5.5h2.5c-.6,4.7-4.2,7.5-8.9,7.5s-8.9-3.3-8.9-8.9,3.8-8.9,8.9-8.9,8.3,2.7,8.8,7.3h-2.5,0Z"></path>
        <path d="M162.7,257.9h2.5v15.1h11.3v1.9h-13.7v-17h0Z"></path>
        <path d="M181.1,267.8v-10h2.4v10c0,3.5,2.4,5.4,5.6,5.4s5.7-1.9,5.7-5.4v-10h2.4v10c0,4.6-3.3,7.4-8.1,7.4s-8-2.8-8-7.4h0Z"></path>
        <path d="M203.7,257.9h9.9c3.4,0,5.5,1.6,5.5,4.4s-.9,3.1-2.6,3.8c1.9.7,3.1,2.1,3.1,4.2s-2.1,4.6-5.6,4.6h-10.2v-17h0ZM206.2,259.8v5.5h7.3c2,0,3.2-1,3.2-2.8s-1.2-2.7-3.2-2.7h-7.3ZM206.2,267.1v5.9h7.6c2.1,0,3.3-1.1,3.3-2.9s-1.2-3-3.3-3h-7.6Z"></path>
      </g>
      <g>
        <path d="M511.5,257.9h14v1.9h-11.5v5.4h8.3v1.9h-8.3v5.9h11.5v1.9h-14v-17h0Z"></path>
        <path d="M538.9,257.9h2.8l8,17h-2.7l-2-4.4h-9.5l-2,4.4h-2.6l7.9-17h0ZM536.4,268.7h7.8l-.6-1.3-3.3-7.5-3.4,7.5-.6,1.3Z"></path>
        <path d="M557.5,259.8h-7.3v-1.9h17v1.9h-7.3v15.1h-2.5v-15.1Z"></path>
        <path d="M582.9,270.9c0-2.1,1.3-3.5,4.4-5-1.7-1.5-2.3-2.8-2.3-4.1,0-2.3,1.9-4.2,5.2-4.2s5,1.5,5,3.7-1.3,3.3-4.5,4.8l4.5,4c1-1.4,1.9-3.2,2.7-5.4h2.4c-1.2,2.9-2.3,5.1-3.6,6.8l4.1,3.6h-3.4l-2.2-2c-1.8,1.6-3.8,2.3-6.3,2.3s-6.1-1.7-6.1-4.4h0ZM589.2,273.5c1.7,0,3.2-.6,4.6-1.9l-5.2-4.6c-2.5,1.2-3.4,2.2-3.4,3.6s1.6,2.8,4,2.8h0ZM589.3,264.8c2.8-1.3,3.7-2.2,3.7-3.5s-1.1-2.1-2.8-2.1-2.8,1-2.8,2.4.3,1.7,1.5,2.8l.5.4h0Z"></path>
        <path d="M617,257.9h7.1c5.5,0,9.2,3.1,9.2,8.5s-3.8,8.5-9.3,8.5h-7.1v-17h0ZM619.4,259.8v13.2h4.5c4.2,0,6.9-2.3,6.9-6.6s-2.7-6.6-6.9-6.6h-4.5Z"></path>
        <path d="M645,257.9h2.8l8,17h-2.7l-2-4.4h-9.5l-2,4.4h-2.6l7.9-17h0ZM642.5,268.7h7.8l-.6-1.3-3.3-7.5-3.4,7.5-.6,1.3Z"></path>
        <path d="M661.3,257.9h2.9l5.2,7,5.2,7.1v-7.2s0-7,0-7h2.2v17h-2.9l-5.2-7-5.2-7.1v7.1s0,7,0,7h-2.2v-17h0Z"></path>
        <path d="M698.3,264.9c-.5-3.4-3-5.4-6.3-5.4s-6.5,2.6-6.5,6.9,2.7,6.9,6.5,6.9,5.9-2,6.3-5.5h2.5c-.6,4.7-4.2,7.5-8.9,7.5s-8.9-3.3-8.9-8.9,3.8-8.9,8.9-8.9,8.3,2.7,8.8,7.3h-2.5,0Z"></path>
        <path d="M706.9,257.9h14v1.9h-11.5v5.4h8.3v1.9h-8.3v5.9h11.5v1.9h-14v-17h0Z"></path>
      </g>
    </g>
  </g>
</svg>