<?xml version="1.0"?><svg id="Capa_1" xmlns="http://www.w3.org/2000/svg" viewBox="0 0 1789.72 594.46"><defs></defs><path class="cls-1" d="m468.93,227.19c0-52.62-42.82-95.44-95.44-95.44-26.02,0-50.73,10.66-68.56,29.07l-14.3-10.03c-16.6-12.46-36.38-19.04-57.2-19.04-52.62,0-95.44,42.82-95.44,95.44,0,26,10.65,50.7,29.04,68.53l-11.3,16.11-1.43,2.04c-10.67,15.8-16.31,34.25-16.31,53.37,0,52.62,42.81,95.43,95.44,95.44,26,0,50.71-10.65,68.55-29.05l20.79,14.44.14.09c.21.14.42.28.64.42,14.97,9.22,32.24,14.1,49.95,14.11,52.62,0,95.43-42.81,95.44-95.44,0-26-10.65-50.7-29.04-68.54l10.85-15.47c11.9-16.37,18.19-35.75,18.19-56.05Zm-95.44-65.44c36.08,0,65.43,29.36,65.44,65.44,0,13.96-4.33,27.26-12.51,38.49l-54.95,78.34-46.77-46.77,72.02-72.02-66.78-46.86c11.87-10.58,27.34-16.62,43.55-16.62Zm-205.5,65.44c0-36.08,29.36-65.43,65.44-65.44,14.33,0,27.93,4.54,39.33,13.13l77.49,54.39-46.76,46.76-72.08-72.08-46.83,66.75c-10.56-11.87-16.59-27.33-16.59-43.52Zm0,140.06c0-13.07,3.84-25.68,11.1-36.48l56.37-80.35,46.82,46.82-72.09,72.09,66.72,46.8c-11.86,10.54-27.31,16.55-43.48,16.55-36.09,0-65.44-29.36-65.44-65.44Zm270.94,0c0,36.08-29.36,65.44-65.43,65.44-12.03,0-23.76-3.28-33.94-9.48l-31.7-22.01-51.21-35.92,46.83-46.83,72.03,72.03,46.82-66.76c10.56,11.87,16.59,27.33,16.59,43.52Z"></path><path class="cls-1" d="m677.5,295.29c11.45,6.09,24.98,9.13,40.59,9.13,14.6,0,27.34-2.33,38.22-6.98,10.88-4.65,19.29-11.38,25.23-20.19,5.94-8.8,8.91-19.15,8.91-31.03v-3.22h-33.72v3.22c0,9.74-3.04,17-9.13,21.8-6.09,4.8-15.78,7.19-29.1,7.19-10.6,0-19.19-1.47-25.77-4.4-6.59-2.93-11.38-7.69-14.39-14.28-3.01-6.58-4.51-15.32-4.51-26.2s1.5-19.79,4.51-26.31c3.01-6.51,7.8-11.24,14.39-14.17,6.58-2.93,15.17-4.4,25.77-4.4,13.31,0,23.01,2.4,29.1,7.19,6.08,4.8,9.13,12.06,9.13,21.8v3.22h33.72v-3.22c0-12.03-2.97-22.4-8.91-31.14-5.94-8.73-14.35-15.42-25.23-20.08-10.88-4.65-23.62-6.98-38.22-6.98-15.61,0-29.14,3.04-40.59,9.13-11.46,6.09-20.29,14.68-26.52,25.77-6.23,11.1-9.34,24.16-9.34,39.19s3.11,28.1,9.34,39.19c6.23,11.1,15.07,19.69,26.52,25.77Z"></path><path class="cls-1" d="m839.74,295.29c11.6,6.09,25.2,9.13,40.8,9.13s29.81-3.04,41.34-9.13c11.52-6.08,20.43-14.67,26.74-25.77,6.3-11.09,9.45-24.16,9.45-39.19s-3.15-28.1-9.45-39.19c-6.3-11.09-15.21-19.68-26.74-25.77-11.53-6.08-25.31-9.13-41.34-9.13s-29.21,3.04-40.8,9.13c-11.6,6.09-20.51,14.68-26.74,25.77-6.23,11.1-9.34,24.16-9.34,39.19s3.11,28.1,9.34,39.19c6.23,11.1,15.14,19.69,26.74,25.77Zm.64-91.27c3.01-6.51,7.76-11.24,14.28-14.17,6.51-2.93,15.14-4.4,25.88-4.4s19.4,1.47,25.98,4.4c6.58,2.94,11.45,7.66,14.6,14.17,3.15,6.52,4.72,15.28,4.72,26.31s-1.58,19.62-4.72,26.2c-3.15,6.59-8.02,11.35-14.6,14.28-6.59,2.94-15.25,4.4-25.98,4.4s-19.36-1.47-25.88-4.4c-6.52-2.93-11.27-7.69-14.28-14.28-3.01-6.58-4.51-15.32-4.51-26.2s1.5-19.79,4.51-26.31Z"></path><polygon class="cls-1" points="1007.52 229.9 1006.45 203.7 1008.59 203.7 1026.63 230.54 1082.04 302.27 1114.68 302.27 1114.68 158.39 1084.18 158.39 1084.18 230.97 1085.47 259.1 1083.33 259.1 1063.78 229.68 1009.67 158.39 977.24 158.39 977.24 302.27 1007.52 302.27 1007.52 229.9"></polygon><polygon class="cls-1" points="1228.94 302.27 1288.86 158.39 1252.57 158.39 1208.76 271.56 1206.61 271.56 1162.16 158.39 1125.65 158.39 1185.56 302.27 1228.94 302.27"></polygon><rect class="cls-1" x="1300.13" y="158.39" width="30.28" height="143.88"></rect><polygon class="cls-1" points="1445 302.27 1504.91 158.39 1468.62 158.39 1424.81 271.56 1422.67 271.56 1378.21 158.39 1341.71 158.39 1401.62 302.27 1445 302.27"></polygon><polygon class="cls-1" points="1636.68 185.87 1636.68 158.39 1546.49 158.39 1524.8 158.39 1516.21 158.39 1516.21 302.27 1524.8 302.27 1546.49 302.27 1636.68 302.27 1636.68 274.78 1546.49 274.78 1546.49 243.43 1633.46 243.43 1633.46 216.37 1546.49 216.37 1546.49 185.87 1636.68 185.87"></polygon><path class="cls-1" d="m732.89,391.28c-3.98-2.41-9.31-4.15-16.01-5.23l-25.19-4.02c-2.5-.45-4.51-.98-6.03-1.61-1.52-.62-2.64-1.5-3.35-2.61-.72-1.12-1.07-2.52-1.07-4.22,0-1.96.58-3.57,1.74-4.82,1.16-1.25,3.1-2.19,5.83-2.81,2.72-.62,6.5-.94,11.32-.94,5.98,0,10.59.42,13.8,1.27,3.22.85,5.43,2.17,6.63,3.95,1.21,1.79,1.81,4.11,1.81,6.97v1.88h20.23v-.8c0-6.25-1.47-11.77-4.42-16.55-2.95-4.78-7.39-8.49-13.33-11.12-5.94-2.63-13.51-3.95-22.71-3.95-7.59,0-14,.8-19.23,2.41-5.23,1.61-9.45,3.73-12.66,6.37-3.22,2.64-5.56,5.61-7.03,8.91-1.47,3.31-2.21,6.66-2.21,10.05,0,4.91,1.03,9.09,3.08,12.53,2.05,3.44,4.98,6.19,8.78,8.24,3.8,2.06,8.38,3.53,13.74,4.42l25.19,3.62c4.56.8,7.75,1.83,9.58,3.08,1.83,1.25,2.75,3.26,2.75,6.03,0,1.97-.54,3.57-1.61,4.82-1.07,1.25-3.04,2.17-5.9,2.75-2.86.58-6.97.87-12.33.87-6.08,0-10.72-.4-13.94-1.21-3.22-.8-5.43-2.05-6.63-3.75-1.21-1.7-1.81-3.93-1.81-6.7v-2.41h-20.1v.8c0,6.97,1.65,12.8,4.96,17.49,3.3,4.69,8.13,8.22,14.47,10.59,6.34,2.37,14.02,3.55,23.05,3.55,9.47,0,17.15-1.3,23.05-3.89,5.9-2.59,10.18-6.01,12.86-10.25,2.68-4.24,4.02-8.78,4.02-13.6,0-4.11-.89-7.88-2.68-11.32-1.79-3.44-4.67-6.37-8.64-8.78Z"></path><path class="cls-1" d="m810.4,373.6c-5.72-2.86-12.42-4.29-20.1-4.29s-14.27,1.43-20.03,4.29c-5.76,2.86-10.25,6.9-13.47,12.13-3.22,5.23-4.82,11.41-4.82,18.56s1.61,13.2,4.82,18.42c3.22,5.23,7.71,9.27,13.47,12.13,5.76,2.86,12.44,4.29,20.03,4.29s14.38-1.43,20.1-4.29c5.72-2.86,10.18-6.9,13.4-12.13,3.22-5.23,4.82-11.37,4.82-18.42s-1.61-13.33-4.82-18.56c-3.22-5.23-7.68-9.27-13.4-12.13Zm-5.83,43.62c-2.73,2.73-7.48,4.09-14.27,4.09s-11.55-1.36-14.27-4.09c-2.73-2.72-4.09-7.03-4.09-12.93s1.36-10.36,4.09-13.13c2.72-2.77,7.48-4.15,14.27-4.15s11.54,1.39,14.27,4.15c2.72,2.77,4.09,7.15,4.09,13.13s-1.36,10.21-4.09,12.93Z"></path><path class="cls-1" d="m949.96,372.79c-3.8-2.32-8.6-3.48-14.4-3.48s-10.39,1.05-14,3.15c-3.62,2.1-6.34,4.8-8.17,8.11-1.83,3.31-3.01,6.88-3.55,10.72h-1.24c-.39-3.1-1.18-6.01-2.38-8.71-1.79-4.02-4.54-7.24-8.24-9.65-3.71-2.41-8.47-3.62-14.27-3.62s-10.18,1.05-13.67,3.15c-3.48,2.1-6.12,4.78-7.91,8.04-1.79,3.26-2.99,6.77-3.62,10.52h-1.07v-20.37h-18.63v67.13h20.1v-33.9c0-5.81,1.07-10,3.22-12.6,2.14-2.59,6.3-3.89,12.46-3.89,5.81,0,9.83,1.16,12.06,3.48,2.23,2.32,3.35,6.25,3.35,11.79v35.11h20.1v-33.9c0-5.81,1.09-10,3.28-12.6,2.19-2.59,6.32-3.89,12.4-3.89s9.83,1.16,12.06,3.48c2.23,2.32,3.35,6.25,3.35,11.79v35.11h20.1v-41.81c0-5.09-.94-9.65-2.81-13.67-1.88-4.02-4.71-7.19-8.51-9.51Z"></path><path class="cls-1" d="m1029.4,373.6c-5.72-2.86-12.42-4.29-20.1-4.29s-14.27,1.43-20.03,4.29c-5.76,2.86-10.25,6.9-13.47,12.13-3.22,5.23-4.82,11.41-4.82,18.56s1.61,13.2,4.82,18.42c3.22,5.23,7.71,9.27,13.47,12.13,5.76,2.86,12.44,4.29,20.03,4.29s14.38-1.43,20.1-4.29c5.72-2.86,10.18-6.9,13.4-12.13,3.22-5.23,4.82-11.37,4.82-18.42s-1.61-13.33-4.82-18.56c-3.22-5.23-7.68-9.27-13.4-12.13Zm-5.83,43.62c-2.73,2.73-7.48,4.09-14.27,4.09s-11.55-1.36-14.27-4.09c-2.73-2.72-4.09-7.03-4.09-12.93s1.36-10.36,4.09-13.13c2.72-2.77,7.48-4.15,14.27-4.15s11.54,1.39,14.27,4.15c2.72,2.77,4.09,7.15,4.09,13.13s-1.36,10.21-4.09,12.93Z"></path><path class="cls-1" d="m1118.23,405.22c-3.75-3.13-10.1-5.18-19.03-6.16l-14.34-1.74c-4.38-.62-7.26-1.36-8.64-2.21-1.39-.85-2.08-2.12-2.08-3.82,0-2.14.85-3.68,2.55-4.62,1.7-.94,5.05-1.41,10.05-1.41,4.11,0,7.26.31,9.45.94,2.19.63,3.66,1.54,4.42,2.75.76,1.21,1.14,2.75,1.14,4.62v.8h20.1v-.4c0-5.45-1.34-10-4.02-13.67-2.68-3.66-6.59-6.41-11.72-8.24-5.14-1.83-11.37-2.75-18.69-2.75-7.68,0-13.96.96-18.83,2.88-4.87,1.92-8.46,4.47-10.79,7.64-2.32,3.17-3.48,6.72-3.48,10.65,0,5.72,1.81,10.1,5.43,13.13,3.62,3.04,8.78,4.91,15.48,5.63l18.89,2.28c3.93.54,6.57,1.18,7.91,1.94,1.34.76,2.01,2.08,2.01,3.95s-.87,3.42-2.61,4.36c-1.74.94-5.29,1.41-10.65,1.41-5.72,0-9.67-.51-11.86-1.54-2.19-1.03-3.28-3.06-3.28-6.1v-1.21h-20.1v.4c0,7.77,3.04,13.78,9.11,18.02,6.07,4.24,14.74,6.37,26,6.37,6.97,0,12.91-.87,17.82-2.61,4.91-1.74,8.71-4.17,11.39-7.3,2.68-3.13,4.02-6.79,4.02-10.99,0-5.54-1.88-9.87-5.63-13Z"></path><polygon class="cls-1" points="1166.67 348 1161.04 348 1161.04 437.78 1166.67 437.78 1181.14 437.78 1237.02 437.78 1237.02 419.69 1181.14 419.69 1181.14 401.6 1235.01 401.6 1235.01 383.65 1181.14 383.65 1181.14 366.09 1237.02 366.09 1237.02 348 1181.14 348 1166.67 348"></polygon><path class="cls-1" d="m1306.16,389.01h-1.34c-1.16-6.43-3.93-11.32-8.31-14.67-4.38-3.35-10.54-5.02-18.49-5.02-6.88,0-12.71,1.43-17.49,4.29-4.78,2.86-8.42,6.9-10.92,12.13-2.5,5.23-3.75,11.41-3.75,18.56s1.23,13.2,3.68,18.42c2.46,5.23,6.03,9.27,10.72,12.13,4.69,2.86,10.39,4.29,17.09,4.29,7.77,0,13.85-1.76,18.22-5.29,4.38-3.53,7.1-8.24,8.17-14.14h1.07v40.87h20.1v-89.91h-18.76v18.36Zm-3.62,25.33c-1.52,2.32-3.73,3.98-6.63,4.96-2.9.98-6.5,1.47-10.79,1.47s-7.84-.54-10.65-1.61c-2.81-1.07-4.89-2.81-6.23-5.23-1.34-2.41-2.01-5.63-2.01-9.65s.67-7.48,2.01-9.85c1.34-2.37,3.42-4.06,6.23-5.09,2.81-1.03,6.37-1.54,10.65-1.54,6.43,0,11.32,1.23,14.67,3.69,3.35,2.46,5.03,6.68,5.03,12.66v1.07c0,3.75-.76,6.79-2.28,9.11Z"></path><path class="cls-1" d="m1393.43,404.69c0,5.72-1.32,9.89-3.95,12.53s-7.26,3.95-13.87,3.95-10.81-1.23-13.4-3.68c-2.59-2.46-3.89-6.37-3.89-11.73v-35.11h-20.1v41.81c0,5,1.01,9.51,3.02,13.53s5.09,7.21,9.25,9.58c4.15,2.37,9.36,3.55,15.61,3.55,5.9,0,10.79-1.05,14.67-3.15,3.89-2.1,6.88-4.8,8.98-8.11,2.1-3.3,3.42-6.83,3.95-10.59h1.07v20.5h18.76v-67.13h-20.1v34.04Z"></path><rect class="cls-1" x="1427.13" y="348" width="20.1" height="15.81"></rect><rect class="cls-1" x="1427.13" y="370.65" width="20.1" height="67.13"></rect><path class="cls-1" d="m1525.06,373.6c-4.78-2.86-10.61-4.29-17.49-4.29-7.86,0-14,1.67-18.42,5.02-4.42,3.35-7.21,8.24-8.38,14.67h-1.34v-18.36h-18.63v89.91h20.1v-40.87h.94c1.16,5.9,3.91,10.61,8.24,14.14,4.33,3.53,10.39,5.29,18.16,5.29,6.7,0,12.4-1.43,17.08-4.29,4.69-2.86,8.26-6.9,10.72-12.13,2.46-5.23,3.69-11.37,3.69-18.42s-1.25-13.33-3.75-18.56c-2.5-5.23-6.14-9.27-10.92-12.13Zm-7.71,40.33c-1.34,2.41-3.4,4.15-6.16,5.23-2.77,1.07-6.34,1.61-10.72,1.61s-7.75-.49-10.65-1.47c-2.9-.98-5.12-2.63-6.63-4.96-1.52-2.32-2.28-5.36-2.28-9.11v-1.07c0-5.98,1.65-10.21,4.96-12.66,3.3-2.46,8.22-3.69,14.74-3.69,4.29,0,7.82.52,10.59,1.54,2.77,1.03,4.82,2.73,6.16,5.09,1.34,2.37,2.01,5.65,2.01,9.85s-.67,7.24-2.01,9.65Z"></path><path class="cls-1" d="m1605.23,373.6c-5.72-2.86-12.42-4.29-20.1-4.29s-14.27,1.43-20.03,4.29c-5.76,2.86-10.25,6.9-13.47,12.13-3.22,5.23-4.82,11.41-4.82,18.56s1.61,13.2,4.82,18.42c3.22,5.23,7.71,9.27,13.47,12.13,5.76,2.86,12.44,4.29,20.03,4.29s14.38-1.43,20.1-4.29c5.72-2.86,10.18-6.9,13.4-12.13,3.22-5.23,4.82-11.37,4.82-18.42s-1.61-13.33-4.82-18.56c-3.22-5.23-7.68-9.27-13.4-12.13Zm-5.83,43.62c-2.73,2.73-7.48,4.09-14.27,4.09s-11.55-1.36-14.27-4.09c-2.73-2.72-4.09-7.03-4.09-12.93s1.36-10.36,4.09-13.13c2.72-2.77,7.48-4.15,14.27-4.15s11.54,1.39,14.27,4.15c2.72,2.77,4.09,7.15,4.09,13.13s-1.36,10.21-4.09,12.93Z"></path><rect class="cls-1" x="532.49" y="161.69" width="25" height="271.08"></rect></svg>