<?xml version="1.0"?>
<svg id="Capa_2" data-name="Capa 2" xmlns="http://www.w3.org/2000/svg" viewBox="0 0 177.05 198">
  <defs>
    
  </defs>
  <g id="Capa_1-2" data-name="Capa 1">
    <path class="cls-1" d="M140.83,190.55c-.86.15-2.35-.08-2.76-.56-.41-.49-.72-2.14-.63-2.77l2.39-17.4c-6.56,7.35-27.37,28.69-33.06,25.5-2.39-1.34-1.39-7-5.04-14.76-2.13-4.53,2.51-8.09,7.71-10.62,9.27-4.52,17.76-10.29,24.62-17.99-10.9-9.97-22.23-20.1-28.63-32.94-.85-2.94-2.12-6.22-1.32-9.25,1.34-5.02,5.25-9.16,9.5-11.61,2.48-1.43,5.17-.38,6.04,2.07,1.29,3.63,2.96,7.07,5.27,10.11,4.08,5.38,8.2,10.21,14.22,14.16.36-2.32.23-4.41-.26-6.56l-4.01-17.64c1.68-1.73,4.63-2.47,6.87-1.83l12.91,3.69c1.63.47,4.26,1.6,4.48,3.73,2.71,26.02,3.51,50.44.7,76.3-.43,3.94-3.43,5.58-6.61,6.15l-12.4,2.23Z"></path>
    <path class="cls-1" d="M49.55,54.18c-3.43,7.03-24.22,8.59-24.18,17.35.03,6.9.82,13.19,1.92,20.07.17,1.05-.14,3.74-1.02,4.32-8.7,5.68-18.44,4.9-19.98-1.12-1.95-7.63-2.78-15.32-2.84-23.27-.12-15.15-1.26-29.58-3.36-44.64-.72-5.13,3.02-10.25,7.85-11.86L48.6,1.51c1.65-.55,2.96.99,3.12,2.39.99,8.57,7.6,13.65.29,19.07-7.13,5.27-15.26,8.62-23.7,11.52-2.24.77-3.54,1.98-3.27,4.08.24,1.85,2.57,4.05,4.97,3.31l14.04-4.36c2.59-.8,5.02.62,5.86,3.1,1.45,4.29,1.74,9.3-.35,13.57Z"></path>
    <path class="cls-1" d="M149.61,66.11l.6,20.36c.05,1.86-1.3,4.35-2.41,5.33-3,2.66-12.63.08-17.9-2.46-7.43-3.58-3.63-13.53-2.08-22.09,2.33-12.83,2.88-25.34,2.65-38.57l-15.04-5.06c-3.08-1.03-7.36-2.63-9.44-5.14-3.28-3.95-3.73-15.4-.97-17.56.84-.66,2.98-1.1,4.21-.84l25.89,5.3,30.62,5.36c4.84.85,11.76,3.06,11.29,6.22l-2.09,13.99c-.55,3.67-3.25,7.45-7.66,6.44l-16.37-3.77c.21,11.14-1.63,21.18-1.3,32.51Z"></path>
    <path class="cls-1" d="M94.25,192.59c.24,1.17-.1,3.28-.64,3.92s-2.09,1.44-3.04,1.47c-8.88.27-21.85-.83-23.31-9.06l-2.34-13.18c-1.97-11.07-.91-21.53.74-32.54,2.02-13.43,2.72-26.55,4.02-40.08.34-3.55,5.52-3.22,10.28-1.33l11.53,4.59c2.18.87,2.94,4.55,2.7,7-1.22,12.48-3.48,24.3-5.51,36.68-1.18,7.2-.19,14.34,1.25,21.38l4.33,21.16Z"></path>
    <path class="cls-1" d="M54.77,105.51c-1.14-6.49-7.14-8.18-13.59-6.67C20.38,103.69-.1,120.78,1.23,143.1c1.27,21.18,12.35,44.24,34.33,48.71l7.37,1.5c8.43,1.71,10.29-10.73,10.83-19.33l2.02-32.44c.76-12.22,1.11-23.99-1.01-36.03ZM37.3,167.85l-1.64,1.87c-1.95,2.23-14.52-15.68-6.63-23.71,1.62-1.65,5.23-3.15,7.73-2.52.65.45,1.39,2.24,1.59,3.03.16,7.3-.2,13.89-1.05,21.34Z"></path>
    <path class="cls-1" d="M113.76,82.57c-4.91-16.93-10.04-33.52-13.36-50.86-1.61-8.38-2.78-16.17-5.76-24.11-1.21-3.22-3.07-5.93-6.96-6.42-9.89-1.23-17.46-2.02-20.06,6.69-4.9,16.4-7.23,33.31-12.01,49.64-2.13,7.27-4.38,14.12-5.86,21.54-.68,3.42-.14,7.67,2.74,9.79,3.97,2.92,8.88,5.04,13.85,5.4,4.55.32,8.11-4.49,7.92-8.93l-.86-20.08c-.18-4.13.22-8.39,1.81-12.18,2.58-1.52,6.01-2.03,9.4-1.82,1.67.1,2.94,2.35,3,3.68l.47,10.35c.39,8.67.89,16.99,2.16,25.55.27,1.8,1.74,4.24,3.41,4.6,6.3,1.35,12.8-.25,17.47-4.32,2.58-2.25,3.58-5.24,2.63-8.51ZM83.66,33.95c-.98,1.72-4.79,1.82-5.99.17-.77-2.95.56-7.47,2.03-10.14,1.07-1.93,4.33,4.2,3.97,9.97Z"></path>
  </g>
</svg>