<?xml version="1.0"?>
<svg id="Capa_2" data-name="Capa 2" xmlns="http://www.w3.org/2000/svg" viewBox="0 0 436.07 252.52">
  <defs>
    
  </defs>
  <g id="Layer_1" data-name="Layer 1">
    <g>
      <g>
        <path class="cls-1" d="M322.94,219.07c6.87-.87,12.73-1.58,18.58-2.37,3.49-.47,9.47,3.17,10.37,6.4.78,2.8-5.06,10.52-7.93,11-6.68,1.11-13.3,2.59-19.98,3.73-3.94.68-8,1.63-11.92,1.35-8.21-.59-11.04-4.75-9.5-12.75.29-1.5.69-2.97,1-4.47,1.32-6.46,2.55-12.93,3.97-19.37.94-4.26,2.49-8.41,3.1-12.7.36-2.57-.58-5.33-.9-8-.43-3.65-1.7-7.45-1.08-10.92,1.62-8.93,4-17.74,6.24-26.55,1.43-5.63,10.75-10.42,16.42-9.62,5.25.74,10.85,1.02,15.99,0,5.71-1.14,10.58-1.45,15.31,2.48,2.64,2.19,3.56,5.78,1.43,8.33-5.44,6.53-19.59,9.44-28.19,5.38-1.89,8.44-3.74,16.72-5.7,25.49,7.27-.96,13.23-2.18,19.21-2.39,4.93-.17,10.13.13,14.78,1.59,4.69,1.48,5.04,6.76,5.2,10.83.12,3.03-2.21,5.45-5.91,6.03-4.87.76-9.25,2.78-14.68,2.46-2.93-.17-7.26,2.94-11.54,2.55-2.38-.22-4.8-.56-7.16-.35-1.49.14-4.01.98-4.18,1.87-1.2,6.3-1.92,12.69-2.92,20.01Z"></path>
        <path class="cls-1" d="M189.36,200.61c1.11-3.72.05-5.11-3.49-3.28-1.48.77-3.1,1.49-4.73,1.73-8.2,1.19-12.35,6.15-14.27,13.87-.88,3.53-2.82,6.82-4.39,10.17-3.44,7.35-6.97,14.65-10.42,21.99-2.16,4.61-5.09,7.76-10.84,7.39-3.93-.25-6.87-4.38-7.06-8.34-.48-9.97,4.9-17.53,9.38-25.52,3.26-5.81,7.49-11.2,9.91-17.32,2.22-5.61,3-11.73,7.66-16.21.62-.59.68-1.94.69-2.95.15-11.84,7.44-20.46,14.34-28.7,3.5-4.18,7.79-10.34,15.19-8.43,3.33.86,7.7.74,8.92,5.42,1.61,6.16,4.5,12.26,4.7,18.45.42,12.83,1.52,25.46,4.79,37.88.35,1.32.64,2.68,1.18,3.93,2.62,6.13.97,11.19-3.76,15.54-1.76,1.61-8.23,1.62-8.97-.34-3.14-8.36-5.92-16.85-8.84-25.29ZM178.34,180.27c9.65-.84,11.93-4.41,7.78-12.7-2.67,4.36-5.04,8.22-7.78,12.7Z"></path>
        <path class="cls-1" d="M269.2,151.03c6.85-.68,14.02-1.61,21.21-1.93,1.65-.07,4.49,1.67,4.86,3.08.76,2.89,3.1,5.78-.25,9.31-4.45,4.7-10.4,3.18-15.47,5.07-3.91,1.45-8.45,1.49-12.73,1.63-3.61.12-4.05,2.19-4.45,4.96-.59,4.09-1.5,8.13-2.48,13.24,7.52-1.03,14.14-1.55,20.57-2.96,5.08-1.11,7.93-.09,9.55,5.11.82,2.62,2.74,7.03,1.92,7.65-2.68,2-6.32,3.07-9.74,3.7-6.47,1.19-13.03,1.88-19.57,2.67-1.78.21-3.61.03-5.55.03-4.72,11.28-3.82,25.02-13.37,35.21.1.01-.42,0-.89-.13-2.63-.76-6.51,3.07-7.9-1.34-1.19-3.76-1.96-8.15-1.22-11.93,2.46-12.64,5.72-25.13,8.57-37.7.99-4.39,1.77-8.83,2.45-13.28.19-1.24-.07-2.72-.61-3.86-2.74-5.85-1.48-8.85,3.14-13.28,2.13-2.04,3.12-6.31,2.93-9.46-.3-5.02,2.44-6.96,6.2-8.1,4.26-1.29,7.24,1.36,9.42,4.52,1.4,2.02,2.04,4.56,3.42,7.79Z"></path>
        <path class="cls-1" d="M103.79,233.49c-7.84-1-15.81-1.44-23.47-3.22-3.82-.89-7.59-3.72-10.46-6.58-4.34-4.32-3.43-10.36-1.69-15.27,2.25-6.36,5.8-12.14,7.12-19.02,2.34-12.14,8.96-21.81,19.81-28.18,8.99-5.28,17.93-10.73,27.33-15.2,7.59-3.61,16.13,1.95,15.72,9.35-.47,8.47-6.75,12.2-14.84,8.92-.98-.4-2.51-.5-3.36-.01-7.31,4.17-14.25,8.93-20.37,14.7-2.99,2.82-6.66,5.82-7.83,9.43-1.44,4.44-1.02,9.66-.59,14.47.29,3.26,1.18,7.19,3.31,9.35,1.8,1.83,5.82,2.24,8.77,2.02,3.8-.28,7.46-2.12,11.27-2.73,5.86-.94,8.6,1.47,9.15,7.78.37,4.27-.69,9.64-4.68,10.74-3.71,1.02-7.58,1.52-11.39,2.14-1.18.19-2.43.03-3.64.03-.05.43-.1.85-.15,1.28Z"></path>
      </g>
      <g>
        <path class="cls-1" d="M0,93.98c.68-.97,1.83-1.88,1.95-2.92.56-4.75.68-9.54,1.26-14.29.68-5.52,1.8-10.99,2.52-16.51,1.32-10.09,2.45-20.2,3.79-30.28.17-1.28,1.01-2.62,1.87-3.65,2.74-3.27,7.64-4.59,12.12-4.42,2.73.11,5.49-1.26,8.28-1.52,9.79-.92,19.17-3.29,28.41-6.63,2.47-.89,6.48-.39,8.48,1.15,1.77,1.37,3.17,5.89,2.2,7.55-1.93,3.3-5.18,6.93-8.65,8.02-6.84,2.16-13.71,4.73-21.27,4.53-4.77-.12-9.59,1.48-14.77,2.37-.62,1.42-1.43,3.28-2.98,6.85,4.89-.73,8.63-1.46,12.41-1.8,4.96-.44,9.96-.81,14.93-.76,3.03.03,6.21,6.04,5.1,9.34-1.78,5.33-3.59,10.57-10.87,10.73-1.67.04-3.17,2.41-4.97,3.18-4.48,1.9-9.02,3.71-13.67,5.14-3.22.99-4.13,3.04-4.51,6.02-1.44,11.38-2.79,22.78-4.71,34.08-.53,3.13-.91,7.27-5.88,7.89-4.65.58-8.66.38-11.05-4.34v-19.74Z"></path>
        <path class="cls-1" d="M390.07,5.61c2.91-1.69,5.82-3.38,9.66-5.61,4.69,1.44,10.51,2.98,16.16,5.01,6.24,2.24,10.11,6.32,11.12,13.43.49,3.44,3.99,6.34,5.32,9.79,4.12,10.63,4.79,21.95,2.27,32.74-1.14,4.86-2.96,10.26-7.63,14.95-4.96,4.97-10.36,7.83-16.09,10.89-.45.24-1.22.3-1.35.63-2.54,6.31-9,7.7-13.78,11.24-4.6,3.4-8.13,8.21-12.62,11.8-1.96,1.57-5.78,2.97-7.63,2.09-3.64-1.73-7.26-4.31-6.08-9.93,1.24-5.95,1.26-12.15,2.17-18.18,1.54-10.19,3.16-20.37,5.15-30.48,1.03-5.25,3.1-10.28,4.38-15.49,1.29-5.24,2.01-10.62,3.31-15.85.98-3.93,2.4-7.75,3.78-11.56.59-1.64,1.58-3.14,2.39-4.7-.17-.26-.34-.51-.51-.77ZM389.29,82.94c7.91-5.21,14.89-9.48,21.47-14.29,3.46-2.52,6.43-5.66,6.7-10.65.37-7.12,2.13-14.21-.85-21.22-2.08-4.91-3.6-10.09-6.07-14.78-.92-1.74-3.98-3.46-5.84-3.25-1.4.16-3.22,3.29-3.53,5.31-1.34,8.67-2.11,17.42-3.24,26.13-1.21,9.31-2.63,18.56-7.55,26.88-.78,1.32-.63,3.19-1.09,5.88Z"></path>
        <path class="cls-1" d="M115.82,108.42c-8.72-7.16-4.62-16.6-4.37-25.41.08-2.79.24-5.67-4.47-4.72-5.82,1.18-11.8,1.57-17.7,2.35-3.01.4-9.58,10.3-9.16,13.68.11.91.59,2.17.17,2.69-3.63,4.44-7.16,9.01-11.26,13.01-3.29,3.21-6.94,1.62-9.76-1.19-2.56-2.55-4.46-5.76-2.51-9.4,4.47-8.39,9.53-16.47,13.74-24.98,2.63-5.31,5.36-10.19,9.19-14.9,4.4-5.41,6.37-12.73,9.77-19.02,1.84-3.4,4.38-6.44,6.75-9.53,2.22-2.9,4.45-5.82,7.01-8.42,3.89-3.96,7.67-8.21,12.21-11.28,4.17-2.82,11.98,2.52,12.17,8.24.3,8.81-.1,17.64-.07,26.47.02,7.33.41,14.66.33,21.98-.08,7.31-.68,14.61-.8,21.92-.06,3.69.37,7.39.7,11.08.28,3.11-.75,4.78-4.12,5.21-2.63.34-5.16,1.44-7.8,2.23ZM110.48,40.12c-4.85,7.48-9.34,14.39-14.29,22.03,4.66-1.03,8.54-1.7,12.28-2.81,1.28-.38,3.21-1.85,3.2-2.8-.09-5.19-.69-10.38-1.19-16.42Z"></path>
        <path class="cls-1" d="M290.08,57.44c6.48,8.48,12.65,16.75,19.04,24.85,2.56,3.25,2.97,9.59-.03,12.86-3.4,3.71-7.42,2.51-10.67,0-7.68-5.91-15.05-12.23-22.56-18.36-1.28-1.05-2.63-2.02-3.96-3.03-.69,4.12-1.27,7.82-1.95,11.5-.76,4.11-1.65,8.2-2.39,12.32-.53,2.95-5.8,7.22-8.94,7.13-4.38-.13-7.89-3.18-7.35-7.59.95-7.78,2.81-15.44,4.01-23.19.34-2.18-.27-4.51-.46-6.77-.11-1.3-.76-2.82-.29-3.85,3.61-7.87,4.3-16.11,4.65-24.66.37-9.03,2.08-18.02,3.54-26.97.2-1.2,2.31-2.84,3.65-2.95,4.17-.37,9.02-1.4,12.43.25,4.22,2.04,3.15,6.99.51,12.28-2.07,4.13-2.59,9.09-3.38,13.76-.4,2.38.14,4.91.26,7.46,10.08-6.19,20.2-12.4,27.5-22.35,2.17-2.97,5.3-6.29,10.04-5.27,5.92,1.27,9.39,8.63,5.74,13.52-3.92,5.26-8.77,9.89-13.48,14.51-4.97,4.87-10.27,9.42-15.91,14.55Z"></path>
        <path class="cls-1" d="M192.51,31.22c4.11-1.02,8.19-2.18,12.33-3.01,3.23-.64,9.24,4.38,9.89,7.97.66,3.67-2.08,7.22-6.48,8.15-4.73,1.01-8.2,3.72-12.2,6.38-10.21,6.76-6.54,16.74-8.59,25.25-2.9,12.09-4.78,24.42-7.44,36.57-.31,1.44-2.79,3.46-4.19,3.41-3.35-.14-6.07,5-10.6-.53-3.43-4.18-2.57-7.26-1.95-10.75,2.72-15.47,5.81-30.87,8.88-46.27.58-2.9-.7-3.41-3.2-3.91-5.61-1.11-11.12-2.67-16.67-4.06-.15-.04-.27-.21-.41-.31-2.72-1.9-4.11-9.01-1.6-13.08,1.58-2.56,3.92-4.59,8.42-3.91,6.53.98,13.38.15,20.05-.41,1.44-.12,2.62-3.39,4.04-3.5,3.26-.25,6.59.57,9.9.96-.06.35-.12.7-.19,1.06Z"></path>
        <path class="cls-1" d="M325.52,99.43c3.99-15.66,8.03-30.11,11.27-44.74,1.97-8.9,2.51-18.1,4.04-27.1.89-5.22,1.83-10.62,4.03-15.35.99-2.13,5.19-3.98,7.77-3.79,2.18.16,4.49,3.2,6.08,5.43,1.76,2.46.83,5.24.22,8.21-.91,4.43.22,9.25-.41,13.78-1.03,7.29-2.88,14.45-4.22,21.7-1.03,5.54-1.49,11.2-2.75,16.69-2.34,10.16-2.14,21.26-9.22,29.77-1.92,2.31-6.74,4.63-8.93,3.75-3.25-1.31-5.35-5.47-7.86-8.34Z"></path>
      </g>
    </g>
  </g>
</svg>