<?xml version="1.0"?>
<svg id="Layer_1" data-name="Layer 1" xmlns="http://www.w3.org/2000/svg" viewBox="0 0 415.71 109.64">
  <defs>
    
  </defs>
  <g>
    <g>
      <path class="cls-1" d="M40.13,88.28l.16-19.26c3.18.34,5.57-.27,9.26-2.02,5.09-2.4,11.89-8.22,17.53-16.02l2-2.73c-1.34,8.44-9.13,18.37-12.78,23.82-.26.39-.49.83-.57,1.29-.04.23-.07.62.2.72.18.07.41-.01.56-.11.24-.16.44-.38.63-.59.24-.27.48-.54.71-.82.76-.92,1.5-1.77,2.2-2.73,5.22-7.53,8.84-13.04,10.33-19.71.05.23.09.46.13.68,1.37,7.48-.62,10.52-2.93,14.92-.29.56-.59,1.21-.45,1.82.19.82.64.68,1.37-.07,1.79-2.31,3.1-4.97,3.81-7.81l4.57,26.21-36.73,2.41ZM65.54,82.01l-.09-1.35-2.48.16-.1-1.57,2.48-.16-.09-1.35-3.82.25.28,4.26,3.82-.25ZM60.43,83.59l-.36-5.51-1.35.09.45,6.85,6.54-.43-.09-1.35-5.19.34ZM68.51,77.53l-1.35.09.45,6.85,6.54-.43-.09-1.35-5.19.34-.36-5.51ZM70.16,81.71l3.82-.25-.09-1.35-2.48.16-.1-1.57,2.48-.16-.09-1.35-3.82.25.28,4.26ZM57.1,82.56l-.09-1.35-2.48.16-.1-1.57,2.48-.16-.09-1.35-3.82.25.28,4.26,3.82-.25ZM43.55,84.69l-.36-5.51-1.35.09.45,6.85,6.54-.43-.09-1.35-5.19.34ZM48.66,83.11l-.09-1.35-2.48.16-.1-1.57,2.48-.16-.09-1.35-3.82.25.28,4.26,3.82-.25ZM51.99,84.14l-.36-5.51-1.35.09.45,6.85,6.54-.43-.09-1.35-5.19.34ZM80.23,37.76c.01-.31-.13-.61-.35-.84-.36-.37-.92-.61-1.37-.65-.73-.08-1.88.27-1.97,1.12-.02.16,0,.33.02.49-3.78-.01-8.08-.47-10.32-2.12,1.64-.26,3.4-.75,5.14-1.36-.02.3.04.61.21.87.46.71,1.44.95,2.22.81.62-.11,1.33-.53,1.49-1.18.09-.37,0-.74-.24-1.04-.19-.24-.46-.43-.74-.57,3.38-1.37,6.29-2.85,7.43-3.29.58,1.51,1.56,5.99,1.79,7.12.04.22-.12.3-.21.31-.59.1-1.71.23-3.11.33ZM80.74,32.36c-.32-.19-.73-.28-1.08-.26-.53.03-1.05.26-1.44.62-.61.57-.39,1.4.25,1.85.54.39,1.27.28,1.82,0,.54-.29,1.2-.92.97-1.59-.09-.27-.28-.47-.52-.61ZM31.98,13.66c-1.06-.47-3.25.52-2.51,1.88.2.36.58.55.97.62.7.12,1.63-.14,2.04-.76.29-.44.24-1.01-.07-1.4-.11-.14-.26-.26-.43-.34ZM23.75,15.75c-.52.32-1.41.98-.86,1.65.53.65,1.86.23,2.46-.09.53-.23,1.39-.92,1.12-1.59-.07-.16-.17-.28-.31-.36-.64-.38-1.91.08-2.41.39ZM27.03,7.4c-.65,0-1.41.34-1.91.96-.25.33-.33.79-.16,1.01.31.28.64.5,1.16.4.68-.11,1.44-.54,1.86-1.23.55-.84-.38-1.17-.96-1.14ZM16.55,19.82c-.25.65-.32,1.5.55,1.65,1.2.21,2.6-1.15,2.88-2.23.14-.52-.08-1.06-.64-1.25-1.11-.36-2.42.9-2.79,1.83ZM13.33,21.71c-.57-.23-1.46.44-1.83.8-.54.53-1,1.27-.97,2.06.02.55.32,1.1.9,1.18,1.35.19,2.81-1.98,2.67-3.15-.04-.36-.26-.67-.77-.89ZM10.58,17.55c-.12-.05-.26-.05-.39-.03-1.12.16-2.58,1.95-1.95,3.08.12.21.33.38.57.4.16.01.33-.04.48-.1.65-.29,1.18-.88,1.49-1.51.13-.28.28-.74.26-1.14-.02-.31-.14-.58-.46-.69ZM7.21,23.92c-.34-.12-.73-.02-1.03.18-.9.58-2.06,3.03-.45,3.5.44.13.92-.03,1.27-.32.7-.59,1.22-1.88.83-2.77,0-.02-.02-.04-.03-.07-.12-.24-.33-.44-.58-.52ZM16.19,14.72c-.17-.22-.48-.31-.77-.28-1.05.11-2.55,1.34-2.34,2.51.04.22.15.44.35.55.21.12.48.1.72.04.71-.18,2.18-1.24,2.23-2.21.01-.21-.05-.42-.2-.61ZM8.71,28.96c-1.69-.09-3.77,3.83-1.51,4.35.26.06.54.02.8-.07,1.06-.34,2.29-2.36,1.93-3.5-.14-.44-.51-.75-1.21-.79ZM39.57,11.04c-2.82,5.47-9.01,6.73-13.81,8.73-3.94,1.65-7.56,4.19-10.4,7.42-2.64,3.01-4.43,8.01-8.87,8.71-3.64.58-4.55-3.19-4.18-6.29.47-3.84,3.15-9.93,8.35-14.47,3.15-2.76,6.35-4.83,9.28-6.39-.31,1.89-.58,3.57-.69,4.24-.51.44-.89.92-1.07,1.32-.1.22-.09.51.12.72.25.25.62.27.82.13.74-.54,1.72-1.18,2.94-1.49.94-.24,1.93-.27,2.28-.36.35-.08.62-.32.65-.68.04-.34-.13-.7-.52-.84-.15-.05-.34-.1-.55-.14l-.61-4.53c5.32-2.32,9.14-2.84,9.14-2.84,0,0-2.97,2.68-4.3,7,3.89,1.53,8.43.43,11.41-.24Z"></path>
      <path class="cls-2" d="M30.44,16.15c.7.12,1.63-.14,2.04-.76.29-.44.24-1.01-.07-1.4-.11-.14-.26-.26-.43-.34-1.06-.47-3.25.52-2.51,1.88.2.36.58.55.97.62ZM65.54,82.01l-.09-1.35-2.48.16-.1-1.57,2.48-.16-.09-1.35-3.82.25.28,4.26,3.82-.25ZM7.83,24.51s-.02-.04-.03-.07c-.12-.24-.33-.44-.58-.52-.34-.12-.73-.02-1.03.18-.9.58-2.06,3.03-.45,3.5.44.13.92-.03,1.27-.32.7-.59,1.22-1.88.83-2.77ZM60.43,83.59l-.36-5.51-1.35.09.45,6.85,6.54-.43-.09-1.35-5.19.34ZM68.51,77.53l-1.35.09.45,6.85,6.54-.43-.09-1.35-5.19.34-.36-5.51ZM97.58,20.06c-1.11-.67-2.68.65-3.4,2.01.38-2.45.61-5.85-1.05-6.16-1.77-.33-3.08,3.79-3.19,5.28,0,0-1.78-5.18-3.67-4.57-1.87.6-1.4,3.46-.14,7.13-4.47-2.33-7.76,3.1-7.41,5.7-1.6.97-5.79,3.07-15.25,5.71-.07.02-.22.05-.22.05,0,0,.05.14.1.23.25.45,1.29,3.15,11.83,4.08,2.21.18,4.43.16,6.59-.02-.1.31-.14.64-.1.96.08.69.39,1.28.91,1.69.43.34,1.14.53,1.71.47.16-.02.31-.06.45-.12.02-.01.15-.06.16-.09,0,0-.73,3.78-1.58,6.12-.49.12-.84.37-11.04,1.58l-.53-2.04c-.66-2.08-1.9-7.24-1.9-7.24-12.21.5-17.11-9.44-17.15-9.47.13.02,2.37.6,6.89,1.07,1.81.19,3.67.37,5.49.26.74-.04,1.82-.28,1.7-1.25-.08-.61-1.26-3.24-1.6-3.92,1.87-.66,3.79-1.22,5.55-2.08,3.13-1.54,12.17-6.84,12.16-11.5,0-2.1-1.94-2.91-3.47-3.35-5.26-1.5-17.7-1.64-27.29,1.69-.19.07-.38.13-.57.2.04-.22.06-.45.05-.69-.03-.48-.2-.76-.49-.82-.21-.04-.8-.17-2.44,2.67-.22.1-.43.19-.64.29.31-.94.22-1.37.04-1.55-.22-.22-.55-.22-.99,0-1.13.59-1.38,1.69-1.29,2.69-.2.11-.39.22-.58.33-.08-.42-.23-.62-.39-.7-.28-.14-.59-.03-.93.32-.48.5-.66,1.07-.66,1.63-8.04,5.5-10.52,12.9-10.51,18.8,0,.58.02,1.14.04,1.69-.21-.17-.35-.16-.43-.16-.3.02-.51.26-.61.73-.23,1.04.16,2.05,1.13,2.94-.07.02-.1.02-.1.02-.44-.01-.83.33-.86.8-.03.47.33.87.79.9.02,0,.04,0,.07,0,.13,0,.35-.02.65-.11,1.16,5.69,3.54,9.37,4.84,11.14-.11.12-3.22,3.49-5.42,5.18-.84-1.12-1.48-2.01-2.03-2.84-1-1.62-1.76-3.2-2.4-4.71.02-.12.16-1.22.27-2.06.18-1.24.39-2.89.38-4.18,0-.31.18-5.11-3.32-5.1-.74,0-1.5.26-2.21.69,0-.24,0-.48,0-.72.05-3.06,0-9.52,0-9.52.95-.58,1.58-1.62,1.58-2.82,0-.52-.12-1-.33-1.44.29-.02.78-.09,1.15-.15.31-.05.57-.28.64-.59l.27-1.15c.07-.29-.07-.58-.33-.72l-1.33-.72v-.07c.34-.12.73-.19,1.06-.3,1.14-.37,2.26-.78,3.37-1.23,1.48-.6,2.93-1.28,4.33-2.06,1.5-.83,2.94-1.77,4.24-2.89,1.23-1.06,2.34-2.29,3.1-3.73.22-.41.4-.84.55-1.28.17-.5.53-2.19.39-2.32-.14-.12-5.18,1.64-8.48,1.64-1.65,0-2.87-.25-2.87-.25,1.3-3.4,6.16-7.94,6.06-8.19-.11-.29-5.98-.08-13.88,3.05l-.48-3.6c-.33-1.76-.97-1.72-1.33,0-.13.61-.46,2.57-.82,4.73-.08.04-.16.07-.25.11-.54.3-7.19,4.18-10.38,7-3.29,2.91-4.63,4.55-6.87,8.35-1.9,3.21-3.61,8.33-2.56,12.09,1.36,4.85,4.65,6.17,8.55,3.98,1.58-.89,3.04-2.07,4.2-3.47,1.9-2.3,3.52-4.61,5.4-6.66.04,1.08.59,2.03,1.42,2.6.04.08.07.17.06.27l.07,10.32v.38c-.06,0-.13.02-.2.03-.46.07-.94.18-1.43.45-.24.14-.49.32-.7.58-.21.26-.36.6-.4.95-.02.17-.02.34,0,.5.02.17.06.35.14.53.07.18.18.34.3.47-.13.07-.25.16-.37.27-.24.21-.43.51-.53.81-.1.31-.13.61-.12.89.01.28.07.58.2.88.12.27.31.52.54.71-.02.02-.04.04-.06.06-.35.36-.44.87-.45,1.36,0,.72.17,1.21.75,1.65.05.04.1.08.15.12-.07.08-.12.17-.16.26-.14.33-.17.64-.18.92,0,.28.02.6.16.95.13.35.59.69.94.82.35.14.66.16.94.16.16,0,.32-.02.47-.03v.3s-.03,54.99-.03,54.99h3.51v-51.98c2.18,3.71,5.67,9.62,6.83,11.29.29.42.69,1,1.24,1.1.55.1,1.13-.27,1.58-.53.38-.23.75-.48,1.11-.75.8-.59,1.57-1.24,2.34-1.88.26-.22.51-.43.77-.65.05-.04.47-.41.47-.41l-.23,24.89,8.73-.49,1.59,9.7-1.31.42s-.82-.75-1.43-.6c-.01,0-.03,0-.04,0-.62.19-.81,1.34-.81,1.34l-2.16.81s-.93-.63-1.6-.35c-.67.28-.72,1.36-.72,1.36l-1.9.94s-.94-.64-1.47-.38c-.53.26-.61,1.53-.61,1.53-5.41,2.28-8,4.64-4.9,4.64,1.94,0,42.31,0,44.25,0,3.1,0,.51-2.36-4.9-4.64,0,0-.08-1.26-.61-1.53-.53-.26-1.47.38-1.47.38l-1.9-.94s-.05-1.08-.72-1.36c-.67-.28-1.6.35-1.6.35l-2.16-.81s-.19-1.14-.81-1.34c-.62-.19-1.47.6-1.47.6l-1.31-.42,1.74-10.59,19.68-1.25-5.35-29.34,14.84-4.15c.4-.11.7-.44.77-.85.66-3.5,3.01-18.92,3.01-18.92,5.79-10.28,6.17-13.82,4.6-14.77ZM32.98,108.26c-.23,0-.38-.18-.2-.31.33-.24,3.61-1.79,3.65-1.75.75.84.97,1.92.97,1.92,0,0-4.39.14-4.42.15ZM69.79,106.2s3.31,1.51,3.65,1.75c.18.13.03.32-.2.31-.04,0-4.42-.15-4.42-.15,0,0,.23-1.07.97-1.92ZM80.23,37.76c.01-.31-.13-.61-.35-.84-.36-.37-.92-.61-1.37-.65-.73-.08-1.88.27-1.97,1.12-.02.16,0,.33.02.49-3.78-.01-8.08-.47-10.32-2.12,1.64-.26,3.4-.75,5.14-1.36-.02.3.04.61.21.87.46.71,1.44.95,2.22.81.62-.11,1.33-.53,1.49-1.18.09-.37,0-.74-.24-1.04-.19-.24-.46-.43-.74-.57,3.38-1.37,6.29-2.85,7.43-3.29.58,1.51,1.56,5.99,1.79,7.12.04.22-.12.3-.21.31-.59.1-1.71.23-3.11.33ZM83.39,28.68c1.49-.43,3.14-.53,3.82,1.1.97,2.33-1.01,4.68-1.96,5.8-.62-2.49-1.45-5.57-1.86-6.9ZM42.9,19.6c-.54.84-1.07,1.79-1.58,2.87-.04-.53-.1-.94-.18-1.26.54-.55,1.13-1.09,1.76-1.61ZM39.47,23.1c.24.56.63,1.05.99,1.41-.27.71-.53,1.47-.76,2.28-.54-1.59-1.01-2.08-1.35-2.15.34-.52.71-1.03,1.12-1.53ZM37.42,26.19c.04,1.14.96,2.01,1.78,2.51-.23.94-.47,1.81-.71,2.61-.36-1.79-.79-2.29-1.13-2.35-.31-.06-.58.14-.8.58-.8,1.57.34,2.97,1.31,3.69-.32.92-.65,1.73-.97,2.44-.28-1.99-.71-2.55-1.06-2.63-.28-.06-.53.08-.76.43.26-2.3.99-4.8,2.33-7.26ZM35.1,38.38c-.08-.84-.12-1.68-.13-2.52.27.56.71,1.04,1.12,1.39-.33.59-.65,1.08-.95,1.49-.01-.12-.03-.24-.04-.36ZM15.36,27.2c-2.64,3.01-4.43,8.01-8.87,8.71-3.64.58-4.55-3.19-4.18-6.29.47-3.84,3.15-9.93,8.35-14.47,3.15-2.76,6.35-4.83,9.28-6.39-.31,1.89-.58,3.57-.69,4.24-.51.44-.89.92-1.07,1.32-.1.22-.09.51.12.72.25.25.62.27.82.13.74-.54,1.72-1.18,2.94-1.49.94-.24,1.93-.27,2.28-.36.35-.08.62-.32.65-.68.04-.34-.13-.7-.52-.84-.15-.05-.34-.1-.55-.14l-.61-4.53c5.32-2.32,9.14-2.84,9.14-2.84,0,0-2.97,2.68-4.3,7,3.89,1.53,8.43.43,11.41-.24-2.82,5.47-9.01,6.73-13.81,8.73-3.94,1.65-7.56,4.19-10.4,7.42ZM18.92,42.92c.45-.62,1.96-.99,2.78-1.06-.39.38-1.2,1.51-1.43,2.05-.21-.03-.98-.12-1.33-.4-.16-.12-.12-.44-.01-.59ZM18.17,46.03c.03-.1.06-.18.13-.26.14-.17.46-.33.81-.44.19-.06.39-.11.6-.15-.24.68-.4,1.53.07,2.06-.18,0-.35-.01-.52-.03-.36-.04-.68-.13-.84-.25-.08-.06-.13-.12-.18-.2-.04-.09-.08-.21-.09-.36-.02-.15,0-.28.02-.37ZM20.13,53.06s-.85.08-1.03,0c-.09-.04-.44-.08-.44-.58s.39-.58.48-.62c.17-.09,1.04-.04,1.04-.04,0,0,1.69-.07,1.69.56s-1.73.7-1.73.7ZM22.22,49.99c-.1.09-.28.19-.5.25-.22.06-.47.1-.74.11-.13,0-.26.01-.42.02l-.45.03c-.28.02-.56.03-.82.02-.25,0-.49-.04-.66-.1-.52-.2-.54-.87-.31-1.29.2-.38.56-.4.95-.38.25,0,.52.04.8.08l.43.06c.14.02.27.04.4.06.26.05.51.11.74.2.23.08.43.19.55.3.12.12.15.19.16.31,0,.16-.04.24-.13.33ZM31.99,67.71c-2.6-3.93-6.37-9.67-8.5-13.96v-.18s.01-1.52.01-1.52c.03.02.06.03.09.04.34.17.76.05.95-.29.3-.53-.71-1.27-.32-4.11.19-1.39,1.08-2.9,1.11-2.97.03-.08.01-.18-.02-.26-.04-.13-.1-.25-.18-.36-.05-.07-.13-.13-.2-.19-.27-.2-.66-.28-1.48,1.25-.64,1.2-.84,2.26-1.96,1.92-1.92-.59.68-3.82,1.3-4.45.7-.72,1.89-1.25,2.94-1.26,1.8,0,1.54,4.59,1.24,7.26-.07.46-.35,2.78-.35,2.78,0,0,1.48,3.3,2.87,5.55.42.69,1.5,2.28,2.29,3.38h0c.5.69.89,1.19.97,1.17.24-.05,1.35-1.13,1.79-1.49.56-.46,5.48-5.26,6.56-6.22.06-.03.17-.04.23-.05.1-.02.2-.04.31-.05.22-.02.46-.03.7-.02.48.01.91.06,1.36.1h.11c.38.04.76-.16.94-.53.23-.48.04-1.05-.44-1.29-.64-.32-1.23-.43-1.88-.46-.33-.01-.65-.03-1,0-.17.02-.37.03-.56.07-.22.05-.38.08-.58.16-.08.04-.15.07-.23.11-2.45-3.1-3.88-7.71-4.07-8.42-.16-.6-.3-1.21-.42-1.82.06,0,.13,0,.19,0,.21,0,.43-.01.67-.04,1.31-.15,2.22-.74,2.64-1.72.19-.44.17-.76-.07-.95-.14-.12-.52-.42-2.41.67.36-.49.72-1.08,1.09-1.76.23-.03.93-.15,1.66-.48,1.2-.54,1.89-1.38,2-2.44.05-.48-.07-.78-.35-.89-.18-.07-.64-.25-2.21,1.5.24-.58.48-1.22.72-1.9.32-.08.87-.24,1.44-.54,1.16-.61,1.8-1.5,1.84-2.57.02-.48-.12-.77-.41-.87-.18-.06-.66-.21-2.13,1.67.23-.79.46-1.64.68-2.56.03-.1.05-.2.08-.3.33-.06.84-.18,1.37-.41,1.21-.52,1.91-1.36,2.03-2.42.05-.48-.06-.78-.34-.89-.19-.08-.69-.28-2.5,1.77.29-.89.6-1.71.93-2.48.24,0,.94-.04,1.69-.26,1.26-.38,2.05-1.13,2.29-2.17.11-.47.03-.78-.24-.93-.18-.1-.7-.38-2.99,1.76.6-1.17,1.24-2.17,1.85-3,.14.01.36.03.63.03.29,0,.63-.02.99-.08,1.3-.21,2.18-.85,2.55-1.85.17-.45.13-.77-.11-.95-.14-.11-.51-.37-2.16.66.59-.58,1.1-.97,1.44-1.21,5.4-2.69,12.72-4.46,22.49-4.48,7.64-.02,10.04,1.35,10.04,2.39,0,3.43-9.96,9.75-16.47,11.53-1.37.42-2.46.67-1.76,2.15l1.24,2.87c-2.9.34-8.59-.51-11.42-1.12.46-.61,1.01-1.15,1.61-1.72l.03-.02c.16-.16.24-.4.17-.63-.1-.33-.44-.51-.77-.42-.47.14-.92.34-1.34.6-.22.12-.41.27-.62.42-.19.16-.39.31-.56.49-.72.69-1.29,1.55-1.68,2.45-.4.9-.64,1.85-.74,2.8-.05.48-.06.95-.05,1.43.02.48.07.93.19,1.44.05.22.24.41.48.46.33.06.65-.15.71-.48v-.06c.09-.38.16-.82.25-1.22.08-.41.19-.81.29-1.21.12-.44.26-.87.41-1.29,6.5,10.49,14.94,10.17,16.85,10.42.02,0,.28.02.51.04l.7,2.46c-17.91,24.87-28.59,21.56-28.59,21.56v-3.5c.43-.55,2.86-3.49,2.36-4.32-.16-.27-.89-.69-1.42-.05-2.3,2.78-6.3,7.16-9.33,8.69ZM39.91,107.96c-.11-.65-.41-2.01-1.06-2.69,0,0,1.24-.62,1.82-.8.99.83,1.62,2.68,1.67,3.34l-2.43.15ZM44.73,107.7c-.03-1.03-.6-2.86-1.73-4.17l2.04-.8c1.89,1.85,2.08,4.9,2.08,4.9,0,0-1.74.09-2.4.07ZM52.14,107.58c-.58.05-2.04.06-2.46.06-.66-3.84-2.32-5.73-2.32-5.73-.03-.11,2.33-.51,2.33-.51,0,0,1.91.47,2.45.47v5.72ZM52.13,99.82c-.2.49-2.57-.32-2.57-.94,0-.4-.86-8.36-.91-8.8l3.43-.22c.09,2.88.11,7.09.05,9.95ZM65.54,104.47c.58.17,1.82.8,1.82.8-.65.68-.95,2.04-1.06,2.69l-2.43-.15c.06-.66.69-2.51,1.67-3.34ZM61.17,102.73l2.04.8c-1.12,1.31-1.69,3.14-1.73,4.17-.65.02-2.4-.07-2.4-.07,0,0,.19-3.04,2.08-4.9ZM58.85,101.91s-1.66,1.89-2.32,5.73c-.42,0-1.93,0-2.51-.06l.05-5.72c.54,0,2.45-.47,2.45-.47,0,0,2.36.4,2.33.51ZM54.14,89.75c.81-.09,2.58-.17,3.43-.21,0,0-.92,8.93-.92,9.34,0,.62-2.38,1.43-2.57.94-.06-2.88-.04-7.19.05-10.06ZM76.87,85.86l-36.73,2.41.16-19.26c3.18.34,5.57-.27,9.26-2.02,5.09-2.4,11.89-8.22,17.53-16.02l2-2.73c-1.34,8.44-9.13,18.37-12.78,23.82-.26.39-.49.83-.57,1.29-.04.23-.07.62.2.72.18.07.41-.01.56-.11.24-.16.44-.38.63-.59.24-.27.48-.54.71-.82.76-.92,1.5-1.77,2.2-2.73,5.22-7.53,8.84-13.04,10.33-19.71.05.23.09.46.13.68,1.37,7.48-.62,10.52-2.93,14.92-.29.56-.59,1.21-.45,1.82.19.82.64.68,1.37-.07,1.79-2.31,3.1-4.97,3.81-7.81l4.57,26.21ZM91.93,33.33c-.22.38-.42.79-.52,1.22-.21.93-3.27,18.31-3.27,18.31,0,0-2.84.84-14.18,3.74l-1.08-4.19c3.94-.75,11.91-2.24,12.07-2.41.14-.15,1.42-6.14,1.95-9.04.1-.53.34-1.6-.18-1.15-.76.65-2.31,1.6-3.14.68-.32-.36-.29-.8-.12-1.18.38-.06.76-.12,1.1-.18.79-.14,1.29-.88,1.14-1.66,1.17-1.23,4.34-5.02,3.43-8.25-.9-3.22-5.34-2.66-7.84-.79-.86.64-.99.44-1.07.33-.06-.08-.06-.24-.05-.34.06-1.12,2.74-4.95,6.43-3.05.25.13.63.31.92.3,1.31,0-1.88-6.35-.94-6.76.71-.31,1.58,1.29,2.3,3.08.63,1.56.88,3.31,1.29,3.28.6-.04,1.24-7.42,2.45-7.15,1.12.25-.03,6.34-.13,7-.1.66-.14.91.09,1,.46.16,1.08-.87,1.77-1.97,1.01-1.62,1.85-2.77,2.21-2.48,1.15.93-2.48,7.97-4.6,11.67ZM80.74,32.36c-.32-.19-.73-.28-1.08-.26-.53.03-1.05.26-1.44.62-.61.57-.39,1.4.25,1.85.54.39,1.27.28,1.82,0,.54-.29,1.2-.92.97-1.59-.09-.27-.28-.47-.52-.61ZM70.16,81.71l3.82-.25-.09-1.35-2.48.16-.1-1.57,2.48-.16-.09-1.35-3.82.25.28,4.26ZM8.71,28.96c-1.69-.09-3.77,3.83-1.51,4.35.26.06.54.02.8-.07,1.06-.34,2.29-2.36,1.93-3.5-.14-.44-.51-.75-1.21-.79ZM43.55,84.69l-.36-5.51-1.35.09.45,6.85,6.54-.43-.09-1.35-5.19.34ZM57.1,82.56l-.09-1.35-2.48.16-.1-1.57,2.48-.16-.09-1.35-3.82.25.28,4.26,3.82-.25ZM48.66,83.11l-.09-1.35-2.48.16-.1-1.57,2.48-.16-.09-1.35-3.82.25.28,4.26,3.82-.25ZM49.81,21.06c.24.8.81,1.54,1.6,2.01.39.25.84.41,1.32.5.48.08,1,.06,1.5-.07.5-.14.98-.42,1.36-.78.37-.37.65-.81.79-1.26.31-.9.24-1.79-.02-2.55l-.04-.12c-.08-.23-.3-.39-.55-.39-.32,0-.57.27-.56.59.01.65-.06,1.3-.29,1.82-.23.52-.64.9-1.15,1.04-.51.16-1.11.09-1.65-.17-.27-.13-.52-.3-.75-.5-.23-.2-.44-.43-.62-.69-.13-.19-.37-.28-.6-.21-.28.09-.44.39-.36.67l.03.11ZM57.62,18.85c.23.82.8,1.57,1.57,2.07.76.51,1.75.79,2.79.6.52-.1,1.03-.33,1.46-.68.41-.36.73-.81.91-1.28.05-.12.09-.23.12-.35.03-.12.07-.23.08-.35.04-.23.04-.46.05-.68-.02-.44-.1-.86-.25-1.25l-.05-.14c-.08-.21-.29-.36-.53-.36-.32,0-.57.26-.57.57,0,.66-.09,1.3-.35,1.8-.13.24-.29.45-.49.61-.2.16-.44.25-.7.31-.53.12-1.14,0-1.68-.26-.27-.13-.53-.3-.77-.51-.24-.2-.45-.43-.64-.69-.13-.18-.36-.27-.58-.2-.29.08-.45.38-.37.66l.03.12ZM51.99,84.14l-.36-5.51-1.35.09.45,6.85,6.54-.43-.09-1.35-5.19.34ZM26.46,15.72c-.07-.16-.17-.28-.31-.36-.64-.38-1.91.08-2.41.39-.52.32-1.41.98-.86,1.65.53.65,1.86.23,2.46-.09.53-.23,1.39-.92,1.12-1.59ZM13.33,21.71c-.57-.23-1.46.44-1.83.8-.54.53-1,1.27-.97,2.06.02.55.32,1.1.9,1.18,1.35.19,2.81-1.98,2.67-3.15-.04-.36-.26-.67-.77-.89ZM15.42,14.45c-1.05.11-2.55,1.34-2.34,2.51.04.22.15.44.35.55.21.12.48.1.72.04.71-.18,2.18-1.24,2.23-2.21.01-.21-.05-.42-.2-.61-.17-.22-.48-.31-.77-.28ZM19.34,17.98c-1.11-.36-2.42.9-2.79,1.83-.25.65-.32,1.5.55,1.65,1.2.21,2.6-1.15,2.88-2.23.14-.52-.08-1.06-.64-1.25ZM26.13,9.77c.68-.11,1.44-.54,1.86-1.23.55-.84-.38-1.17-.96-1.14-.65,0-1.41.34-1.91.96-.25.33-.33.79-.16,1.01.31.28.64.5,1.16.4ZM11.04,18.24c-.02-.31-.14-.58-.46-.69-.12-.05-.26-.05-.39-.03-1.12.16-2.58,1.95-1.95,3.08.12.21.33.38.57.4.16.01.33-.04.48-.1.65-.29,1.18-.88,1.49-1.51.13-.28.28-.74.26-1.14Z"></path>
    </g>
    <path class="cls-2" d="M74.28,99.35c1.02,0,1.89.79,1.89,1.87s-.87,1.88-1.89,1.88-1.91-.79-1.91-1.88.87-1.87,1.91-1.87ZM74.28,99.65c-.87,0-1.54.67-1.54,1.57s.67,1.58,1.54,1.58,1.53-.66,1.53-1.58-.67-1.57-1.53-1.57ZM73.88,102.31h-.33v-2.16h.83c.52,0,.77.19.77.62,0,.39-.24.56-.57.6l.62.95h-.36l-.58-.94h-.37v.94ZM73.88,101.09h.39c.4,0,.54-.12.54-.35,0-.21-.1-.32-.48-.32h-.45v.68Z"></path>
  </g>
  <path class="cls-1" d="M180.19,61.44c.23-.23.23-.63.23-1.13,0-2.25-1.13-4.42-2.89-4.42-1.85,0-3.34,2.3-3.34,6.45v.68c0,7.26,3.11,9.25,5.23,9.25,1.67,0,2.48-.45,3.16-1.13.54-.5.86-1.13,1.58-1.13.63,0,.86.45.86.99,0,2.48-2.98,5.64-6.99,5.64-6,0-9.34-5.32-9.34-11.77,0-7.22,4.46-12.18,9.25-12.18s7.31,3.88,7.31,9.07c0,1.04-.04,1.8-.41,2.3-.59.77-1.4.77-3.29.77h-4.69c-.81,0-1.35-.36-1.35-1.13,0-1.17.77-1.49,2.35-1.67,1.62-.23,2.08-.32,2.35-.59ZM211.85,65.14c-.95,0-1.4.41-2.62,3.02-1.17,2.52-2.8,4.46-4.69,4.46-3.79,0-6.9-4.51-6.9-13.76,0-7.08,3.07-12.31,7.04-12.31,2.8,0,4.24,1.67,4.28,4.15l.05,2.21c0,.86.5,1.49,1.4,1.49s1.4-.81,1.71-2.26c.23-.99.27-2.16.95-3.88.63-1.62,1.26-2.21,1.26-3.38,0-.45-.27-1.13-1.17-1.13s-1.26.45-2.17,1.22c-2.07-1.26-3.79-1.89-6.27-1.89-7.53,0-13.39,7.62-13.39,17.05,0,10.55,5.73,16.42,11.77,16.42,2.35,0,3.38-.59,4.6-1.49.54.86,1.22,1.08,1.76,1.08s1.13-.23,1.4-.99c.59-1.67.54-2.98,1.35-5.46.41-1.26.9-2.3.9-3.29,0-.72-.45-1.26-1.26-1.26ZM232.46,73.53c-1.62-.41-2.3-1.35-2.3-7.31v-4.01c0-2.66-.23-4.92-1.13-6.63-1.08-1.98-2.98-3.2-5.82-3.2-1.85,0-3.2.63-4.42,1.31-.77-.5-1.44-.81-1.89-.81s-1.04.32-1.04,1.08v1.22c0,1.44-.5,2.93-.5,4.37,0,1.22.41,1.85,1.26,1.85,2.21,0,1.62-5.5,5.28-5.5,2.12,0,2.98,1.44,2.98,5.77v.72c-.63,0-.99.04-1.35.09-6.09.86-9.43,4.15-9.43,8.43,0,3.34,2.35,5.59,5.14,5.59,1.98,0,4.65-1.4,4.65-3.34,0-.36-.27-.5-1.04-.41-2.3.23-3.43-.86-3.43-2.93,0-1.94,1.67-3.88,3.92-4.33.36-.09.86-.18,1.53-.18l.05,6.13c0,3.56-.09,4.51,1.35,4.51.86-.05,2.07-.14,3.34-.14.99,0,2.39.14,2.71.14.68,0,.95-.72.95-1.35,0-.5-.14-.9-.81-1.08ZM121.06,65.09c-.5,0-1.04.23-1.76,1.4l-1.8,3.11c-.9,1.53-2.3,2.53-3.92,2.53h-1.67c-2.35,0-3.56-.45-3.52-2.8l.09-19.66c0-3.47,4.15-2.62,4.15-4.87,0-.5-.36-.99-.95-.99-.36,0-2.84.27-5.73.27h-.68c-2.89,0-4.96-.27-5.73-.27-.59,0-.95.5-.95.99,0,2.25,4.01,1.4,4.01,4.92v19.48c0,4.42-4.24,3.2-4.24,5.41,0,.54.04,1.35,1.49,1.35,2.7,0,5.46-.36,8.25-.36h1.53c6.09,0,7.89.9,9.07.9.68,0,1.04-.23,1.13-.77.18-.81.05-1.89.45-3.34.72-2.53,1.94-4.74,1.94-5.95,0-.63-.27-1.35-1.17-1.35ZM241.3,62.03c-1.58.18-2.35.5-2.35,1.67,0,.77.54,1.13,1.35,1.13h4.69c1.89,0,2.71,0,3.29-.77.36-.5.41-1.26.41-2.3,0-5.19-2.39-9.07-7.31-9.07s-9.25,4.96-9.25,12.18c0,6.45,3.34,11.77,9.34,11.77,4.01,0,6.99-3.16,6.99-5.64,0-.54-.23-.99-.86-.99-.72,0-1.04.63-1.58,1.13-.68.68-1.49,1.13-3.16,1.13-2.12,0-5.23-1.98-5.23-9.25v-.68c0-4.15,1.49-6.45,3.34-6.45s2.89,2.16,2.89,4.42c0,.5,0,.9-.23,1.13-.27.27-.72.36-2.35.59ZM127.87,50.93c1.89,0,3.34-1.35,3.34-3.11s-1.44-3.16-3.34-3.16-3.34,1.4-3.34,3.16,1.49,3.11,3.34,3.11ZM168.06,73.17c-1.04-.36-1.8-.86-1.8-2.07l.09-22.69c0-2.21.05-2.98.05-3.43,0-.81-.36-1.31-.95-1.31-1.35,0-1.44,1.08-7.4,2.3-.81.18-.99.63-.99,1.17s.36.86,1.04.95c2.39.32,3.02,1.44,3.07,2.57l.09,20.43c0,1.31-.95,1.85-1.8,2.17-.81.27-1.67.63-1.67,1.71,0,.59.18.99.81.99,1.04,0,2.75-.23,4.28-.23h1.8c1.58,0,3.34.23,4.42.23.68,0,.9-.41.9-.99,0-1.17-1.08-1.53-1.94-1.8ZM132.25,73.26c-.99-.32-1.8-.9-1.8-2.17l.09-13.62c0-2.21.09-2.98.09-3.43,0-.86-.41-1.35-1.04-1.35-1.85,0-1.44,1.08-7.35,2.35-.81.18-.99.63-.99,1.17,0,.5.32.86.99.95,2.44.27,3.07,1.44,3.11,2.57l.09,11.37c0,1.35-1.08,1.94-2.03,2.26-.86.27-1.71.54-1.71,1.53,0,.59.18,1.08.86,1.08,1.08,0,2.89-.23,4.51-.23h1.8c1.62,0,3.43.23,4.51.23.63,0,.81-.5.81-1.08,0-1.08-1.08-1.31-1.94-1.62ZM157.01,70.87c-.54,0-.77.14-1.31.63-.45.36-.86.68-1.58.68-1.22,0-1.85-.9-1.85-2.75l.04-12.63h4.19c1.4,0,1.58-1.35,1.58-2.21,0-.95-.41-1.13-1.13-1.13h-4.69l.04-5.41c0-.59-.36-.95-.95-.95-2.08,0-2.03,2.39-3.65,4.83-.95,1.44-1.94,1.53-3.61,1.53h-3.83l.05-5.41c0-.54-.27-.95-.95-.95-2.07,0-2.03,2.39-3.65,4.83-.72,1.13-1.4,1.62-2.66,2.21-.9.41-1.13.72-1.13,1.53,0,.86.36,1.13,1.76,1.13h1.35l-.04,13.67c0,4.78,2.48,6.09,5.01,6.09,3.11,0,5.64-2.75,5.64-5.01,0-.32-.18-.68-.59-.68-.59,0-.77.23-1.35.68-.41.32-.81.63-1.53.63-1.26,0-1.89-.9-1.89-2.75l.09-12.63h6.67l-.04,13.67c0,4.78,2.48,6.09,5.19,6.09,2.89,0,5.46-2.75,5.46-5.01,0-.32-.18-.68-.63-.68ZM355.19,50.93c1.89,0,3.34-1.35,3.34-3.11s-1.44-3.16-3.34-3.16-3.34,1.4-3.34,3.16,1.49,3.11,3.34,3.11ZM359.34,73.26c-.99-.32-1.58-.9-1.58-2.17l.09-13.62c0-2.21.09-2.98.09-3.43,0-.86-.41-1.35-1.04-1.35-1.8,0-1.4,1.13-7.13,2.35-.81.18-.99.63-.99,1.17,0,.5.32.86.99.95,2.26.27,2.89,1.44,2.89,2.57l.09,11.37c0,1.35-1.08,1.94-2.03,2.26-.86.27-1.71.54-1.71,1.53,0,.59.18,1.08.86,1.08,1.08,0,2.89-.23,4.51-.23h1.8c1.62,0,3.2.23,4.29.23.63,0,.81-.5.81-1.08,0-1.08-1.08-1.31-1.94-1.62ZM378.87,54.63c0-.77-.36-1.44-1.62-1.44-1.98,0-5.32.18-7.71.23l-3.65.05c-.63-.41-1.04-.63-1.58-.63-.63,0-1.17.5-1.22,1.26l-.09,1.44c-.09,1.44-.68,2.84-.86,4.29-.14,1.04.23,1.76,1.08,1.76.95,0,1.4-.54,2.3-2.25.95-1.8,2.39-2.8,4.37-2.89l2.53-.13c-2.93,5.28-6,10.28-9.29,15.56-.36.59-1.04,1.53-1.04,2.53,0,.9.54,1.58,1.94,1.58,1.94,0,4.92-.36,7.22-.36h3.65c.68.23,1.31.54,1.76.54.95,0,1.17-.86,1.22-1.8.05-1.35.14-2.25.36-3.07.23-.86.45-1.49.45-2.35,0-1.04-.5-1.62-1.22-1.62-.68,0-1.08.23-1.76,1.44-1.67,2.89-2.84,3.74-5.46,3.92l-2.07.14c3.2-5.41,6.31-10.51,9.79-15.97.5-.86.9-1.53.9-2.21ZM395.91,54.63c0-.77-.36-1.44-1.62-1.44-1.98,0-5.32.18-7.71.23l-3.65.05c-.63-.41-1.04-.63-1.58-.63-.63,0-1.17.5-1.22,1.26l-.09,1.44c-.09,1.44-.68,2.84-.86,4.29-.13,1.04.23,1.76,1.08,1.76.95,0,1.4-.54,2.3-2.25.95-1.8,2.39-2.8,4.37-2.89l2.53-.13c-2.93,5.28-6,10.28-9.29,15.56-.36.59-1.04,1.53-1.04,2.53,0,.9.54,1.58,1.94,1.58,1.94,0,4.92-.36,7.22-.36h3.65c.68.23,1.31.54,1.76.54.95,0,1.17-.86,1.22-1.8.04-1.35.14-2.25.36-3.07.23-.86.45-1.49.45-2.35,0-1.04-.5-1.62-1.22-1.62-.68,0-1.08.23-1.76,1.44-1.67,2.89-2.84,3.74-5.46,3.92l-2.07.14c3.2-5.41,6.31-10.51,9.79-15.97.5-.86.9-1.53.9-2.21ZM414.9,73.53c-1.62-.41-2.3-1.35-2.3-7.31v-4.01c0-2.66-.23-4.92-1.13-6.63-1.08-1.98-2.98-3.2-5.82-3.2-1.85,0-3.2.63-4.42,1.31-.77-.5-1.44-.81-1.89-.81s-1.04.32-1.04,1.08v1.22c0,1.44-.5,2.93-.5,4.37,0,1.22.41,1.85,1.26,1.85,2.21,0,1.62-5.5,5.28-5.5,2.12,0,2.98,1.44,2.98,5.77v.72c-.63,0-.99.04-1.35.09-6.09.86-9.43,4.15-9.43,8.43,0,3.34,2.35,5.59,5.14,5.59,1.98,0,4.64-1.4,4.64-3.34,0-.36-.27-.5-1.04-.41-2.3.23-3.43-.86-3.43-2.93,0-1.94,1.67-3.88,3.92-4.33.36-.09.86-.18,1.53-.18l.05,6.13c0,3.56-.09,4.51,1.35,4.51.86-.05,2.07-.14,3.34-.14.99,0,2.39.14,2.71.14.68,0,.95-.72.95-1.35,0-.5-.14-.9-.81-1.08ZM259.02,62.16l-2.26-1.17c-1.8-.95-2.21-1.8-2.21-2.89,0-1.49,1.13-2.3,2.44-2.3,1.8,0,2.75,1.58,3.52,3.07.81,1.71,1.26,2.48,2.25,2.48.81,0,1.17-.63,1.17-1.58,0-1.35-.5-2.84-.5-4.33v-1.44c0-.72-.59-1.04-1.08-1.04s-.81.36-1.35.9c-1.26-.86-2.53-1.17-3.92-1.17-4.19,0-7.08,3.29-7.08,6.95,0,2.98.99,4.65,6.09,7.35l1.53.81c1.58.81,2.75,1.76,2.75,3.29,0,1.04-.9,2.07-2.62,2.07-2.26,0-3.88-1.08-5.23-4.56-.45-1.08-.77-1.4-1.44-1.4-.81,0-1.35.59-1.35,1.62,0,.86.27,1.49.45,2.39.18.77.18,1.71.18,3.07,0,.99.23,1.89,1.13,1.89.27,0,.86-.27,1.67-.95,1.4.77,3.02,1.26,4.69,1.26,4.83,0,7.35-3.56,7.35-7.08,0-3.88-2.84-5.55-6.18-7.26ZM338.64,43.76c-2.07,0-3.88.41-6.36.41-2.07,0-4.1-.36-6.09-.36-1.31,0-1.71.54-1.71,1.35,0,2.12,4.24.95,4.24,5.19v19.66c0,3.52-4.06,2.66-4.06,4.92,0,.5.36.99.95.99.77,0,2.84-.27,5.73-.27h.68c3.11,0,5.77.27,6.18.27.59,0,.95-.5.95-.99,0-2.25-4.65-1.4-4.65-4.87l.09-20.52c0-1.62,1.08-2.57,2.62-2.57,3.16,0,5.1,2.75,5.1,6.36,0,4.06-1.67,6.85-5.5,6.9-.81,0-1.35.32-1.35.9,0,.9,1.4,1.85,3.97,1.85,4.83,0,8.7-4.78,8.7-9.88,0-5.91-3.74-9.34-9.47-9.34ZM296.91,57.74c.81,0,1.44.5,2.35.5,1.35,0,2.71-1.22,2.71-3.16,0-1.67-1.13-3.02-2.84-3.02-2.39,0-4.6,1.85-5.95,6.27v-.95c0-2.21.09-2.98.09-3.47,0-.81-.5-1.31-1.26-1.31-1.67,0-1.26,1.22-6.72,2.35-.72.14-.95.63-.95,1.17,0,.59.32,1.08.99,1.17,2.48.27,3.11,1.31,3.11,2.35l.09,11.09c0,1.58-1.49,2.8-3.16,2.8-2.12,0-3.11-.81-3.02-7.26v-4.06c0-2.66-.27-4.96-1.17-6.68-1.04-1.98-2.98-3.16-5.77-3.16-1.85,0-3.2.63-4.42,1.31-.77-.5-1.44-.81-1.89-.81s-1.04.32-1.04,1.08v1.22c0,1.44-.5,2.93-.5,4.37,0,1.22.41,1.85,1.17,1.85,2.3,0,1.71-5.5,5.37-5.5,2.03,0,2.98,1.44,2.98,5.77v.72c-.63,0-.99.04-1.35.09-6.04.81-9.43,4.1-9.43,8.43,0,3.34,2.39,5.59,5.14,5.59,1.98,0,4.65-1.4,4.65-3.34,0-.36-.27-.5-1.04-.41-2.25.18-3.43-.86-3.43-2.93s1.71-3.88,3.97-4.33c.36-.09.86-.18,1.49-.18l.04,6.13c0,3.56-.09,4.51,1.35,4.51.9-.09,2.12-.14,3.34-.14,2.44,0,6.49-.09,8.34-.09h1.8c1.67,0,3.47.23,4.56.23.72,0,.9-.54.9-1.17,0-1.13-1.13-1.31-2.03-1.62-1.04-.36-1.8-.9-1.8-2.07l.04-6.4c.09-3.29.99-6.95,3.29-6.95ZM311.02,62.25l-2.26-1.22c-1.71-.95-2.12-1.85-2.12-2.93,0-1.49,1.08-2.3,2.35-2.3,1.8,0,2.75,1.58,3.52,3.07.81,1.71,1.26,2.48,2.25,2.48.81,0,1.17-.63,1.17-1.58,0-1.35-.5-2.84-.5-4.33v-1.44c0-.72-.59-1.04-1.08-1.04s-.81.36-1.35.9c-1.26-.86-2.53-1.17-3.92-1.17-4.15,0-6.99,3.29-6.99,6.95,0,2.98.99,4.51,6,7.31l1.53.86c1.53.86,2.75,1.76,2.75,3.29,0,1.04-.99,2.07-2.84,2.07-2.44,0-4.29-1.04-5.64-4.56-.45-1.08-.77-1.4-1.44-1.4-.81,0-1.35.59-1.35,1.62,0,.86.27,1.49.45,2.39.18.77.18,1.71.18,3.07,0,.99.23,1.89,1.13,1.89.27,0,.86-.27,1.67-.95,1.49.81,3.29,1.26,5.1,1.26,4.96,0,7.58-3.56,7.58-7.08,0-3.83-2.89-5.41-6.18-7.17ZM322.33,54.69c0,1.27-1.02,2.2-2.22,2.2s-2.23-.93-2.23-2.2,1.02-2.19,2.23-2.19,2.22.93,2.22,2.19ZM321.91,54.69c0-1.05-.79-1.84-1.79-1.84s-1.81.79-1.81,1.84.79,1.85,1.81,1.85,1.79-.77,1.79-1.85ZM320.46,54.85l.72,1.11h-.43l-.67-1.1h-.44v1.1h-.39v-2.53h.97c.6,0,.9.23.9.72,0,.46-.28.65-.66.7ZM320.11,54.54c.47,0,.63-.14.63-.41,0-.24-.12-.38-.56-.38h-.53v.79h.46Z"></path>
</svg>