<svg width="312" height="145" viewBox="0 0 312 145" fill="none" xmlns="http://www.w3.org/2000/svg">
<path d="M16.0042 121.181V123.032H8.46401V128.914H14.5821V130.731H8.46401V138.563H6.18213V121.181H16.0042Z" fill="white"></path>
<path d="M55.2577 134.696H47.6514L46.2624 138.562H43.8813L50.1648 121.279H52.7774L59.0608 138.562H56.6467L55.2577 134.696ZM54.5963 132.845L51.4546 124.088L48.1475 132.845H54.5963Z" fill="white"></path>
<path d="M96.0675 138.561L91.9337 131.456H89.1888V138.561H87.0723V121.179H92.6943C93.8357 121.15 94.968 121.388 96.0014 121.873C96.844 122.258 97.5481 122.893 98.0187 123.691C98.4793 124.482 98.7085 125.386 98.6801 126.301C98.7323 127.488 98.3699 128.656 97.6549 129.606C96.881 130.577 95.7727 131.225 94.5463 131.423L98.9116 138.693L96.0675 138.561ZM89.1888 129.639H92.4959C92.9973 129.677 93.5013 129.616 93.9784 129.457C94.4555 129.298 94.8959 129.045 95.2738 128.714C95.5824 128.394 95.8234 128.016 95.9825 127.602C96.1416 127.187 96.2155 126.745 96.1998 126.301C96.2251 125.861 96.1555 125.421 95.9958 125.011C95.836 124.6 95.5898 124.229 95.2738 123.922C94.4916 123.292 93.4977 122.984 92.4959 123.063H89.1888V129.639Z" fill="white"></path>
<path d="M144.284 121.314V138.564H142.035V125.71L136.281 138.564H134.693L128.906 125.676V138.564H126.756V121.314H129.204L135.586 135.59L141.969 121.314H144.284Z" fill="white"></path>
<path d="M183.538 134.696H175.965L174.543 138.562H172.162L178.446 121.279H181.058L187.342 138.562H184.927L183.538 134.696ZM182.877 132.845L179.669 124.088L176.362 132.845H182.877Z" fill="white"></path>
<path d="M216.346 125.312C217.101 123.91 218.25 122.761 219.653 122.007C220.99 121.237 222.508 120.838 224.051 120.851C225.806 120.814 227.531 121.297 229.012 122.238C230.439 123.172 231.529 124.539 232.12 126.138H229.276C228.854 125.134 228.125 124.29 227.193 123.726C226.204 123.109 225.05 122.809 223.886 122.866C222.744 122.848 221.62 123.147 220.638 123.73C219.657 124.314 218.858 125.159 218.33 126.171C217.761 127.355 217.488 128.659 217.536 129.971C217.51 131.228 217.782 132.474 218.33 133.606C218.856 134.603 219.645 135.437 220.612 136.019C221.618 136.59 222.762 136.876 223.919 136.845C225.078 136.895 226.227 136.608 227.226 136.019C228.158 135.454 228.887 134.61 229.309 133.606H232.054C231.463 135.196 230.372 136.552 228.946 137.473C227.456 138.39 225.734 138.86 223.985 138.827C222.354 138.853 220.749 138.417 219.355 137.572C217.97 136.87 216.821 135.778 216.048 134.432C215.29 133.032 214.893 131.464 214.893 129.872C214.893 128.28 215.29 126.712 216.048 125.312H216.346Z" fill="white"></path>
<path d="M262.082 121.181V138.563H259.8V121.181H262.082Z" fill="white"></path>
<path d="M301.337 134.731H293.73L292.341 138.597H289.927L296.244 121.314H298.724L304.974 138.597H302.593L301.337 134.731ZM300.675 132.88L297.368 124.09L294.061 132.88H300.675Z" fill="white"></path>
<path fill-rule="evenodd" clip-rule="evenodd" d="M106.12 23.0019L116.835 21.8123V15.2031H89.2211L60.3834 77.0977L30.8512 15.2031H4.39453V21.8123L15.837 23.068L30.8512 55.5189L52.2149 101.783H57.3078L86.7077 37.4429V77.4281C86.7077 82.9468 86.7077 88.4324 86.4763 93.951L75.8275 95.1406V101.75H116.835V95.1406L106.22 93.951C106.054 88.3993 105.955 82.8807 105.955 77.4281V39.4256C105.955 33.94 105.955 28.4544 106.22 22.9028" fill="white"></path>
<path fill-rule="evenodd" clip-rule="evenodd" d="M9.32437 98.6105C8.28916 97.5917 7.47575 96.3701 6.93513 95.0224C6.3945 93.6747 6.13832 92.23 6.18264 90.7787C6.15285 89.3291 6.43237 87.8897 7.00259 86.5564C7.57281 85.2231 8.42066 84.0264 9.48972 83.046C10.4855 82.072 11.6645 81.3048 12.9587 80.7887C14.2529 80.2725 15.6366 80.0177 17.0299 80.0389C18.4352 80.0013 19.8335 80.2484 21.1408 80.7652C22.448 81.282 23.637 82.0579 24.6361 83.046C25.6352 84.06 26.4105 85.2721 26.9117 86.6041C27.413 87.936 27.6292 89.3581 27.5464 90.7787C27.5961 92.2059 27.3542 93.6281 26.8354 94.9587C26.3167 96.2893 25.532 97.5003 24.5292 98.5178C23.5265 99.5352 22.3267 100.338 21.0032 100.876C19.6797 101.415 18.2602 101.679 16.8314 101.651C15.4416 101.661 14.0634 101.398 12.7753 100.877C11.4872 100.355 10.3146 99.5851 9.32437 98.6105Z" fill="white"></path>
<path fill-rule="evenodd" clip-rule="evenodd" d="M144.847 70.9836C144.578 77.1543 146.631 83.2021 150.601 87.936C152.357 89.7065 154.457 91.098 156.772 92.0246C159.087 92.9511 161.568 93.3928 164.061 93.3225C167.443 93.4754 170.791 92.5872 173.652 90.778C176.381 88.9086 178.699 86.5022 180.464 83.7062L184.962 86.1846C183.427 91.6161 179.879 96.2597 175.041 99.1716C169.778 102.197 163.78 103.707 157.712 103.534C153.206 103.586 148.726 102.836 144.483 101.32C140.673 99.9496 137.216 97.7483 134.364 94.8756C131.449 91.9233 129.195 88.3867 127.75 84.4993C126.133 79.9737 125.349 75.1933 125.435 70.3888C125.371 65.7726 126.225 61.1897 127.948 56.9061C129.551 52.9528 131.91 49.3497 134.893 46.2985C137.905 43.2977 141.493 40.9371 145.442 39.3589C149.644 37.6652 154.141 36.8228 158.671 36.8805C162.579 36.8174 166.463 37.5016 170.113 38.8962C173.365 40.1538 176.317 42.0788 178.778 44.5471C181.206 47.0209 183.077 49.9838 184.268 53.2381C185.604 56.7531 186.287 60.4822 186.285 64.2423C186.291 66.4694 186.024 68.6889 185.491 70.8514L144.847 70.9836ZM160.886 64.3745C162.064 64.5232 163.259 64.4268 164.398 64.0912C165.536 63.7557 166.593 63.1883 167.501 62.4248C168.838 60.6933 169.475 58.5232 169.286 56.3444C169.494 52.914 168.564 49.5111 166.641 46.662C165.844 45.5994 164.803 44.7443 163.606 44.1691C162.409 43.5938 161.09 43.3154 159.762 43.3574C158.164 43.3711 156.587 43.7201 155.132 44.3818C153.392 45.1878 151.864 46.387 150.668 47.8847C149.122 49.8718 147.926 52.1066 147.129 54.4938C146.004 57.6933 145.304 61.0262 145.046 64.4075L160.886 64.3745Z" fill="white"></path>
<path fill-rule="evenodd" clip-rule="evenodd" d="M266.547 95.8338V101.65H241.48L223.853 70.4877L217.47 76.6012C217.47 79.2448 217.47 82.1198 217.47 85.2261C217.47 88.3324 217.47 91.2735 217.47 94.1154L225.606 95.7016V101.518H191.609V95.8338L199.711 94.2476C199.711 90.943 199.711 87.341 199.711 83.6399V18.8043L189.79 17.4824V12.1621L216.048 6.21387L217.933 7.27133L217.404 26.0743V68.6372L241.414 45.3069L231.492 43.8529V38.0369H262.347V43.8529L250.21 45.4391L236.486 58.6574L256.825 93.6197L266.547 95.8338Z" fill="white"></path>
<path fill-rule="evenodd" clip-rule="evenodd" d="M305.769 95.9332V101.65H271.177V95.9332L279.445 94.38C279.445 91.0755 279.445 87.6057 279.445 83.9376V67.8113C279.445 64.2424 279.445 61.2022 279.445 58.889C279.445 56.5758 279.246 53.9982 279.147 51.3876L270.119 50.231V45.2741L296.311 36.8145L298.361 38.1363L297.931 56.741V84.0037C297.931 87.7048 297.931 91.1746 297.931 94.38L305.769 95.9332Z" fill="white"></path>
<path fill-rule="evenodd" clip-rule="evenodd" d="M286.157 26.0094C284.758 26.0256 283.371 25.7621 282.076 25.2343C280.781 24.7065 279.605 23.9251 278.617 22.9362C277.543 21.9457 276.692 20.7378 276.122 19.3931C275.551 18.0483 275.275 16.5975 275.31 15.1374C275.275 13.6822 275.552 12.2365 276.123 10.8972C276.693 9.5578 277.543 8.35577 278.617 7.37166C280.639 5.42576 283.349 4.35685 286.157 4.39755C287.559 4.36134 288.954 4.60581 290.261 5.11658C291.567 5.62735 292.758 6.39409 293.763 7.37166C294.789 8.38212 295.595 9.59356 296.13 10.9299C296.664 12.2663 296.917 13.6988 296.872 15.1374C296.918 16.581 296.665 18.0186 296.131 19.3604C295.596 20.7023 294.79 21.9195 293.763 22.9362C292.772 23.9394 291.586 24.7295 290.278 25.258C288.97 25.7865 287.567 26.0422 286.157 26.0094Z" fill="white"></path>
</svg>