<?xml version="1.0"?>
<svg id="Capa_1" data-name="Capa 1" xmlns="http://www.w3.org/2000/svg" width="797.14" height="115.26" viewBox="0 0 797.14 115.26">
  <defs>
    
  </defs>
  <g>
    <path class="cls-1" d="M384.39,74.3c-.41-.17-.83-.32-1.26-.47,3.05-1.6,5.46-3.68,7.22-6.26,2.04-2.99,3.06-6.45,3.06-10.39,0-5.91-2.48-10.72-7.44-14.44-4.96-3.72-12.51-5.58-22.64-5.58h-38.94v76.56h41.12c10.35,0,18.21-1.86,23.57-5.58,5.36-3.72,8.04-8.86,8.04-15.42,0-4.37-1.11-8.13-3.34-11.27-2.23-3.13-5.36-5.52-9.41-7.16ZM360.6,52.8c3.65,0,6.38.6,8.2,1.8,1.82,1.2,2.73,3.08,2.73,5.63,0,2.41-.91,4.23-2.73,5.47-1.82,1.24-4.56,1.86-8.2,1.86h-14.88v-14.77h14.88ZM372.41,96.17c-1.9,1.28-4.74,1.91-8.53,1.91h-18.16v-15.53h18.16c3.79,0,6.63.64,8.53,1.91,1.89,1.28,2.84,3.23,2.84,5.85s-.95,4.58-2.84,5.85Z"></path>
    <polygon class="cls-1" points="429.01 82.88 463.02 82.88 463.02 66.8 429.01 66.8 429.01 54.01 467.62 54.01 467.62 37.16 407.68 37.16 407.68 113.73 469.04 113.73 469.04 96.88 429.01 96.88 429.01 82.88"></polygon>
    <path class="cls-1" d="M509.8,37.16l-33.8,76.56h22.09l6.01-14.98h32.38l6.01,14.98h22.53l-33.91-76.56h-21.33ZM510.47,82.88l9.83-24.48,9.82,24.48h-19.65Z"></path>
    <path class="cls-1" d="M616.09,79.05c0,6.49-1.26,11.16-3.77,14-2.52,2.84-6.04,4.27-10.56,4.27s-8.06-1.42-10.61-4.27c-2.55-2.84-3.83-7.51-3.83-14v-41.89h-21.66v42.55c0,11.3,3.15,20.05,9.46,26.25,6.31,6.2,15.11,9.3,26.41,9.3s20.03-3.1,26.41-9.3c6.38-6.2,9.57-14.95,9.57-26.25v-42.55h-21.44v41.89Z"></path>
    <polygon class="cls-1" points="643.77 54.34 667.28 54.34 667.28 113.73 688.94 113.73 688.94 54.34 712.34 54.34 712.34 37.16 643.77 37.16 643.77 54.34"></polygon>
    <polygon class="cls-1" points="797.14 37.16 776.14 37.16 757.91 67.61 739.83 37.16 716.86 37.16 746.17 85.99 746.17 113.73 767.83 113.73 767.83 86.46 797.14 37.16"></polygon>
  </g>
  <g>
    <g>
      <path class="cls-1" d="M0,113.52V37.38h27.3c6.38,0,11.86,1.02,16.43,3.05,4.57,2.03,8.08,4.95,10.55,8.76,2.47,3.81,3.7,8.43,3.7,13.87s-1.23,9.86-3.7,13.7c-2.47,3.84-5.98,6.78-10.55,8.81-4.57,2.03-10.05,3.05-16.43,3.05H3.05l2.5-2.61v27.52H0ZM5.55,86.33l-2.5-2.72h24.25c8.19,0,14.41-1.79,18.65-5.38,4.24-3.59,6.36-8.65,6.36-15.17s-2.12-11.69-6.36-15.28c-4.24-3.59-10.46-5.38-18.65-5.38H3.05l2.5-2.72v46.66Z"></path>
      <path class="cls-1" d="M60.15,113.52l35.02-76.14h5.55l35.02,76.14h-5.98l-33.07-72.66h2.39l-32.96,72.66h-5.98ZM72.98,92.09l1.85-4.68h45.57l1.85,4.68h-49.27Z"></path>
      <path class="cls-1" d="M149.56,113.52V37.38h27.3c6.38,0,11.86,1.02,16.43,3.05,4.57,2.03,8.08,4.95,10.55,8.76,2.47,3.81,3.7,8.43,3.7,13.87s-1.23,9.84-3.7,13.65-5.98,6.74-10.55,8.81c-4.57,2.07-10.05,3.1-16.43,3.1h-24.25l2.5-2.61v27.52h-5.55ZM155.1,86.33l-2.5-2.61h24.25c8.19,0,14.41-1.81,18.65-5.44,4.24-3.62,6.36-8.7,6.36-15.23s-2.12-11.69-6.36-15.28c-4.24-3.59-10.46-5.38-18.65-5.38h-24.25l2.5-2.72v46.66ZM202.42,113.52l-19.8-27.63h6.31l19.8,27.63h-6.31Z"></path>
      <path class="cls-1" d="M227.87,113.52V37.38h5.55v76.14h-5.55Z"></path>
      <path class="cls-1" d="M279.97,114.06c-5.66,0-11.01-.96-16.05-2.88-5.04-1.92-8.94-4.41-11.69-7.45l2.5-4.13c2.61,2.68,6.18,4.95,10.71,6.8,4.53,1.85,9.34,2.77,14.41,2.77s9.23-.67,12.45-2.01c3.23-1.34,5.62-3.14,7.18-5.38,1.56-2.25,2.34-4.75,2.34-7.51,0-3.26-.87-5.87-2.61-7.83-1.74-1.96-4.02-3.52-6.85-4.68-2.83-1.16-5.91-2.14-9.24-2.94-3.34-.8-6.71-1.65-10.12-2.56-3.41-.91-6.53-2.08-9.35-3.54-2.83-1.45-5.09-3.43-6.8-5.93-1.71-2.5-2.56-5.75-2.56-9.73,0-3.63.94-6.96,2.83-10.01,1.89-3.05,4.82-5.51,8.81-7.4,3.99-1.88,9.1-2.83,15.34-2.83,4.2,0,8.36.62,12.45,1.85,4.1,1.23,7.6,2.9,10.5,5l-2.07,4.46c-3.19-2.18-6.62-3.79-10.28-4.84-3.66-1.05-7.2-1.58-10.6-1.58-4.86,0-8.88.69-12.07,2.07-3.19,1.38-5.55,3.21-7.07,5.49-1.52,2.28-2.28,4.84-2.28,7.67,0,3.26.85,5.87,2.56,7.83,1.7,1.96,3.97,3.52,6.8,4.68,2.83,1.16,5.94,2.14,9.35,2.94,3.41.8,6.78,1.65,10.11,2.56,3.34.91,6.42,2.09,9.25,3.54,2.83,1.45,5.11,3.41,6.85,5.87,1.74,2.47,2.61,5.66,2.61,9.57,0,3.55-.98,6.87-2.94,9.95-1.96,3.08-4.95,5.55-8.97,7.4-4.02,1.85-9.19,2.77-15.5,2.77Z"></path>
    </g>
    <path class="cls-1" d="M231.37,25.35c-4.35-3.81-13.76-13.2-13.18-19.56.27-2.97,2.15-4.93,4.77-5.55.42.04,1.31-.31,2.16-.23,2.54.23,5.39,1.77,6.82,4.89l1.08,2.23,1.46-2c2.42-3.2,6.35-4.12,9.24-3.01,1.23.54,4.51,2.12,4.12,6.35-.54,5.93-11.47,13.49-16.47,16.88h0Z"></path>
  </g>
</svg>