<?xml version="1.0"?>

<svg version="1.0" xmlns="http://www.w3.org/2000/svg" width="2000.000000pt" height="2000.000000pt" viewBox="0 0 2000.000000 2000.000000" preserveAspectRatio="xMidYMid meet">
<metadata>
Created by potrace 1.16, written by Peter Selinger 2001-2019
</metadata>
<g transform="translate(0.000000,2000.000000) scale(0.100000,-0.100000)" fill="#000000" stroke="none">
<path d="M2544 12707 c-10 -26 1 -90 16 -98 8 -4 31 -11 51 -14 43 -6 49 -20&#xA;41 -93 -4 -50 -4 -50 -51 -55 -25 -3 -66 -9 -91 -14 -43 -8 -45 -10 -48 -45&#xA;-3 -38 -3 -38 -136 -38 -147 0 -149 -1 -160 -62 -7 -37 -7 -37 -130 -37 -68 0&#xA;-141 -2 -162 -6 -85 -14 -84 -13 -84 -50 0 -35 0 -35 -137 -35 -126 -1 -208&#xA;-12 -240 -33 -7 -5 -13 -19 -13 -33 0 -23 -2 -24 -77 -24 -107 0 -205 -16&#xA;-219 -35 -6 -8 -20 -15 -31 -15 -12 0 -28 -11 -36 -24 -13 -19 -28 -25 -69&#xA;-29 -96 -9 -133 -21 -136 -42 -9 -62 -10 -64 -46 -58 -49 8 -66 -21 -66 -114&#xA;0 -84 20 -117 67 -111 23 3 26 -1 30 -37 2 -22 8 -44 12 -48 5 -5 45 -9 90&#xA;-10 81 -2 81 -2 81 -34 0 -67 -31 -64 613 -59 320 2 596 6 612 8 43 5 52 13&#xA;59 53 7 35 7 35 140 35 107 0 136 3 146 15 7 8 23 15 36 15 14 0 30 10 39 24&#xA;16 24 25 27 135 42 54 8 67 17 75 54 6 27 10 28 78 35 86 9 117 26 117 66 0&#xA;28 2 29 44 29 30 0 46 5 50 15 3 9 19 21 36 26 22 8 30 17 30 35 0 14 6 24 14&#xA;24 31 0 86 42 86 65 0 18 11 29 46 45 41 21 94 82 94 110 0 5 11 10 25 10 20&#xA;0 25 5 25 24 0 13 7 29 15 36 8 7 15 29 15 49 0 63 9 81 41 81 18 0 29 -5 29&#xA;-14 0 -17 22 -26 61 -26 23 0 30 -5 34 -27 10 -46 20 -58 56 -63 34 -5 34 -5&#xA;40 -105 3 -55 4 -135 1 -177 -5 -78 -5 -78 -39 -78 -37 0 -50 -20 -60 -92 -5&#xA;-31 -10 -38 -29 -38 -14 0 -31 -12 -44 -30 -15 -20 -30 -30 -48 -30 -39 0 -50&#xA;-11 -54 -50 -3 -33 -5 -35 -43 -38 -51 -4 -65 -17 -65 -58 0 -34 0 -34 -47&#xA;-35 -119 -1 -143 -13 -143 -71 0 -28 -1 -28 -60 -28 -82 0 -128 -20 -132 -57&#xA;-3 -28 -4 -28 -88 -36 -47 -5 -89 -12 -94 -17 -4 -4 -11 -23 -15 -42 -7 -33&#xA;-7 -33 -86 -35 -163 -4 -181 -10 -187 -58 -3 -28 -6 -30 -48 -32 -217 -12&#xA;-243 -19 -245 -69 -2 -29 -2 -29 -137 -34 -106 -4 -140 -9 -154 -21 -11 -9&#xA;-29 -20 -41 -23 -16 -5 -23 -15 -23 -31 0 -23 -2 -24 -44 -19 -25 4 -92 3&#xA;-151 -1 -83 -5 -111 -11 -125 -25 -10 -10 -29 -20 -42 -22 -15 -2 -24 -11 -26&#xA;-25 -3 -22 -7 -23 -118 -24 -176 -2 -190 -3 -205 -16 -8 -6 -25 -13 -38 -15&#xA;-23 -3 -34 -15 -45 -50 -5 -16 -22 -18 -178 -18 -195 0 -214 -6 -220 -63 -3&#xA;-32 -3 -32 -136 -32 -116 0 -135 -2 -146 -17 -7 -10 -23 -18 -34 -18 -12 0&#xA;-29 -11 -37 -24 -12 -17 -28 -25 -62 -29 -55 -6 -75 -27 -66 -68 5 -28 4 -29&#xA;-35 -29 -30 0 -42 -4 -45 -17 -8 -28 -2 -297 7 -311 4 -6 20 -12 37 -12 25 0&#xA;29 -4 29 -27 0 -16 4 -33 8 -39 11 -16 48 -34 71 -34 15 0 23 -9 29 -32 7 -29&#xA;13 -34 53 -40 24 -3 68 -7 97 -7 52 -1 52 -1 52 -35 0 -40 7 -46 58 -53 20 -3&#xA;354 -7 742 -10 600 -3 710 -1 740 11 19 8 47 17 61 20 19 4 28 14 32 35 6 30&#xA;6 30 164 34 223 6 217 5 223 47 5 35 5 35 90 37 149 3 196 12 209 40 6 13 11&#xA;33 11 45 0 19 4 20 56 13 65 -8 180 11 207 33 9 8 17 25 17 38 0 21 5 23 95&#xA;29 52 4 98 12 101 17 3 5 17 13 30 18 17 7 24 17 24 35 0 23 3 25 51 25 75 0&#xA;141 25 161 60 12 21 25 30 42 30 40 0 76 18 86 42 5 13 9 17 9 11 2 -25 40&#xA;-13 56 16 13 26 21 30 62 33 39 2 50 7 60 28 7 14 13 21 13 17 0 -4 9 -3 20 3&#xA;11 6 19 19 18 28 -2 14 7 18 49 20 56 3 71 15 88 66 9 26 16 31 50 34 21 2 44&#xA;10 50 17 5 7 19 15 30 17 15 3 20 11 18 30 -1 25 2 27 52 33 57 8 76 21 80 58&#xA;1 12 3 25 4 30 0 4 16 7 35 7 39 0 53 13 59 55 3 23 9 31 28 33 64 7 68 10 71&#xA;55 3 42 3 42 48 47 45 5 45 5 48 58 2 42 6 52 21 52 53 0 81 70 81 203 0 75 3&#xA;88 18 93 44 14 47 19 43 85 -3 67 -11 80 -42 72 -18 -5 -19 2 -19 106 0 110 0&#xA;110 -28 125 -15 8 -37 14 -47 13 -17 -2 -21 5 -23 40 -2 31 -8 44 -23 48 -12&#xA;4 -19 15 -19 31 0 19 -5 24 -24 24 -16 0 -26 7 -29 21 -3 11 -15 23 -26 26&#xA;-14 4 -21 13 -21 30 0 18 -5 24 -17 21 -10 -2 -22 5 -28 17 -8 14 -22 21 -53&#xA;23 -38 3 -42 5 -42 31 0 44 -21 64 -68 64 -41 0 -42 1 -42 33 0 48 -29 64&#xA;-112 64 -64 0 -68 1 -68 23 0 36 -27 67 -59 67 -63 0 -91 11 -91 36 0 16 -6&#xA;24 -18 24 -10 0 -25 9 -35 20 -14 17 -29 20 -107 20 -90 0 -90 0 -90 34 0 18&#xA;-6 39 -14 45 -9 8 -67 15 -145 18 -125 6 -130 7 -135 29 -12 47 -25 49 -464&#xA;52 -356 3 -413 2 -418 -11z m810 -52 c3 -8 1 -15 -4 -15 -6 0 -10 7 -10 15 0&#xA;8 2 15 4 15 2 0 6 -7 10 -15z m-624 -70 c0 -8 -7 -15 -15 -15 -26 0 -18 20 13&#xA;29 1 1 2 -6 2 -14z m-2 -105 c2 -24 -2 -30 -18 -30 -11 0 -20 3 -20 8 0 7 29&#xA;52 33 52 2 0 4 -13 5 -30z m1217 -30 c-3 -5 -12 -7 -20 -3 -21 7 -19 13 6 13&#xA;11 0 18 -4 14 -10z m-360 -50 c-3 -5 -15 -10 -25 -10 -10 0 -22 5 -25 10 -4 6&#xA;7 10 25 10 18 0 29 -4 25 -10z m-110 -170 c-3 -5 -10 -10 -16 -10 -5 0 -9 5&#xA;-9 10 0 6 7 10 16 10 8 0 12 -4 9 -10z m-195 -220 c0 -5 -4 -10 -10 -10 -5 0&#xA;-10 5 -10 10 0 6 5 10 10 10 6 0 10 -4 10 -10z m-2170 -25 c0 -8 -7 -15 -16&#xA;-15 -14 0 -14 3 -4 15 7 8 14 15 16 15 2 0 4 -7 4 -15z m3507 -11 c-9 -9 -28&#xA;6 -21 18 4 6 10 6 17 -1 6 -6 8 -13 4 -17z m-1442 -54 c-3 -5 -10 -10 -16 -10&#xA;-5 0 -9 5 -9 10 0 6 7 10 16 10 8 0 12 -4 9 -10z m-2205 -84 c0 -11 -19 -15&#xA;-25 -6 -3 5 1 10 9 10 9 0 16 -2 16 -4z m2720 -147 c0 -5 -9 -9 -20 -9 -22 0&#xA;-27 16 -7 23 15 5 27 -1 27 -14z m-2720 -9 c0 -5 -4 -10 -10 -10 -5 0 -10 5&#xA;-10 10 0 6 5 10 10 10 6 0 10 -4 10 -10z m1635 -50 c3 -5 -1 -10 -10 -10 -9 0&#xA;-13 5 -10 10 3 6 8 10 10 10 2 0 7 -4 10 -10z m-1230 -46 c-6 -6 -45 -12 -88&#xA;-12 -42 0 -82 -4 -87 -7 -6 -3 -10 -2 -10 4 0 5 6 12 13 14 7 4 6 6 -5 6 -9 1&#xA;-18 -4 -20 -9 -4 -14 -48 -21 -48 -8 0 5 6 8 14 5 8 -3 17 0 20 8 3 10 30 13&#xA;114 12 79 -2 105 -5 97 -13z m395 12 c0 -2 -9 -6 -20 -9 -11 -3 -18 -1 -14 4&#xA;5 9 34 13 34 5z m204 -5 c15 -6 16 -10 7 -15 -7 -5 -18 -3 -24 3 -6 6 -25 11&#xA;-41 10 -30 -1 -30 -1 -6 -9 17 -5 -4 -8 -60 -8 -47 1 -74 3 -60 6 23 4 24 5 5&#xA;13 -12 4 15 8 70 8 50 0 99 -4 109 -8z m-917 -7 c-3 -3 -12 -4 -19 -1 -8 3 -5&#xA;6 6 6 11 1 17 -2 13 -5z m63 -14 c0 -5 -2 -10 -4 -10 -3 0 -8 5 -11 10 -3 6&#xA;-1 10 4 10 6 0 11 -4 11 -10z m917 4 c-3 -3 -12 -4 -19 -1 -8 3 -5 6 6 6 11 1&#xA;17 -2 13 -5z m2793 -15 c0 -4 -9 -13 -19 -18 -15 -8 -20 -7 -25 5 -3 9 -4 19&#xA;-1 24 6 10 45 1 45 -11z m-595 -789 c-3 -5 -10 -10 -16 -10 -5 0 -9 5 -9 10 0&#xA;6 7 10 16 10 8 0 12 -4 9 -10z m-2792 -87 c-13 -2 -33 -2 -45 0 -13 2 -3 4 22&#xA;4 25 0 35 -2 23 -4z m-533 -93 c0 -5 -2 -10 -4 -10 -3 0 -8 5 -11 10 -3 6 -1&#xA;10 4 10 6 0 11 -4 11 -10z m2860 -109 c0 -12 -28 -22 -34 -12 -3 5 -3 11 1 15&#xA;9 9 33 7 33 -3z m-395 -191 c3 -5 1 -10 -4 -10 -6 0 -11 5 -11 10 0 6 2 10 4&#xA;10 3 0 8 -4 11 -10z m-1487 -328 c30 -2 18 -22 -13 -22 -13 0 -27 5 -30 10 -3&#xA;6 -11 10 -16 10 -6 0 -8 -4 -5 -8 3 -5 -24 -8 -59 -8 -34 1 -61 4 -58 9 2 4&#xA;-5 7 -16 7 -10 0 -21 -5 -23 -12 -3 -7 -9 -8 -18 -3 -24 15 18 22 120 20 52&#xA;-1 105 -3 118 -3z m-1021 -8 c-3 -3 -12 -4 -19 -1 -8 3 -5 6 6 6 11 1 17 -2&#xA;13 -5z"></path>
<path d="M16052 11680 c-430 -6 -432 -6 -432 -65 0 -35 0 -35 -49 -35 -59 0&#xA;-118 -31 -127 -66 -4 -17 -13 -24 -29 -24 -12 0 -39 -7 -59 -15 -33 -14 -36&#xA;-19 -36 -54 0 -34 -5 -42 -35 -61 -44 -27 -58 -52 -65 -115 -5 -48 -6 -50 -38&#xA;-53 -49 -5 -63 -46 -62 -175 1 -56 1 -107 1 -114 -1 -6 -18 -13 -38 -15 -38&#xA;-3 -38 -3 -48 -93 -6 -49 -9 -172 -8 -272 2 -183 2 -183 -230 -183 -168 0&#xA;-236 -3 -245 -12 -16 -16 -17 -650 -2 -679 10 -18 24 -19 245 -19 233 0 233 0&#xA;234 -1141 0 -803 3 -1145 11 -1153 5 -5 27 -10 48 -11 33 0 37 -3 42 -29 6&#xA;-37 37 -47 123 -38 34 3 197 6 362 6 300 1 300 1 303 33 3 30 5 32 50 35 36 2&#xA;49 8 58 25 8 16 10 335 7 1135 -2 611 -6 1114 -8 1117 -17 17 33 20 370 23&#xA;290 2 377 6 387 16 19 19 19 655 0 674 -10 10 -98 14 -385 18 -372 5 -372 5&#xA;-368 35 2 17 4 101 3 187 0 153 1 157 22 160 14 2 22 11 24 29 2 17 11 29 23&#xA;32 15 4 19 14 19 45 0 41 0 41 230 42 127 0 240 5 253 10 12 5 34 11 48 14 34&#xA;7 40 23 46 128 5 79 8 87 27 90 11 2 22 12 25 23 2 11 10 24 19 31 16 12 30&#xA;82 31 157 1 44 3 47 28 47 51 0 63 23 56 109 -3 42 -10 82 -16 89 -5 6 -27 12&#xA;-48 12 -38 0 -39 1 -39 35 0 25 -6 37 -22 46 -34 18 -273 25 -706 19z m-193&#xA;-146 c2 -2 -7 -4 -22 -4 -14 0 -29 5 -32 10 -6 10 42 4 54 -6z m716 6 c-11 -5&#xA;-45 -8 -75 -8 -49 1 -51 1 -20 8 52 11 120 11 95 0z m-1075 -25 c0 -8 -7 -15&#xA;-15 -15 -16 0 -20 12 -8 23 11 12 23 8 23 -8z m-38 -164 c8 12 9 12 6 0 -6&#xA;-22 -28 -25 -27 -4 0 12 2 14 6 4 5 -11 7 -11 15 0z m-152 -31 c0 -19 -20 -27&#xA;-33 -13 -8 7 11 33 24 33 5 0 9 -9 9 -20z m1266 -305 c-1 -21 -5 -24 -37 -22&#xA;-40 2 -43 17 -3 17 15 0 24 6 24 15 0 8 4 15 9 15 5 0 8 -11 7 -25z m-135 -12&#xA;c4 -5 -53 -8 -127 -9 -121 -1 -158 5 -121 19 19 8 240 -2 248 -10z m52 10 c-7&#xA;-2 -21 -2 -30 0 -10 3 -4 5 12 5 17 0 24 -2 18 -5z m-403 -93 c0 -5 -2 -10 -4&#xA;-10 -3 0 -8 5 -11 10 -3 6 -1 10 4 10 6 0 11 -4 11 -10z m-195 -240 c-3 -5 -1&#xA;-37 5 -70 6 -34 8 -71 4 -83 -7 -19 -9 -16 -15 18 -10 51 -11 130 -2 138 10&#xA;10 15 8 8 -3z m-735 -10 c0 -5 -2 -10 -4 -10 -3 0 -8 5 -11 10 -3 6 -1 10 4&#xA;10 6 0 11 -4 11 -10z m16 -65 c8 -59 -4 -161 -18 -147 -9 9 -13 89 -9 170 2&#xA;39 20 24 27 -23z m-477 -366 c12 -93 3 -509 -11 -531 -4 -7 -8 -11 -9 -8 0 3&#xA;-2 13 -4 23 -2 11 1 15 8 10 8 -5 8 -2 0 8 -18 22 -17 542 0 536 7 -2 14 -19&#xA;16 -38z m1969 -425 c-3 -14 -5 -12 -10 9 -3 19 -2 25 4 19 6 -6 8 -18 6 -28z&#xA;m-1500 -257 c17 -136 22 -491 17 -1147 -4 -415 -6 -800 -5 -855 0 -55 -3 -111&#xA;-8 -125 -27 -73 -30 32 -31 1058 -1 767 2 1042 10 1042 8 0 8 5 -1 15 -8 10&#xA;-9 15 -2 15 7 0 9 8 5 18 -4 10 -2 14 3 9 5 -5 10 -18 12 -30z m741 -1044 c-1&#xA;-577 -5 -1057 -10 -1068 -4 -12 -8 21 -9 85 -1 58 -4 227 -8 375 -7 279 -10&#xA;1495 -3 1575 4 58 10 80 22 80 7 0 9 -366 8 -1047z m-745 -1134 c-6 -11 -24&#xA;-2 -24 11 0 5 7 7 15 4 8 -4 12 -10 9 -15z m571 -59 c3 -5 -1 -10 -10 -10 -9&#xA;0 -13 5 -10 10 3 6 8 10 10 10 2 0 7 -4 10 -10z"></path>
<path d="M7363 11670 c-13 -5 -23 -14 -23 -19 0 -6 -11 -13 -25 -17 -17 -4&#xA;-25 -13 -25 -28 0 -20 -5 -21 -89 -23 -106 -2 -129 -11 -133 -56 -3 -31 -5&#xA;-32 -51 -35 -34 -2 -51 -9 -60 -23 -6 -10 -19 -19 -28 -19 -17 0 -42 -25 -52&#xA;-52 -4 -12 -17 -18 -39 -18 -47 0 -59 -11 -65 -59 -4 -32 -12 -45 -32 -55 -43&#xA;-23 -71 -70 -71 -121 0 -45 0 -45 -40 -45 -50 0 -60 -20 -60 -125 0 -74 0 -74&#xA;-37 -77 -37 -3 -38 -4 -45 -53 -13 -105 -19 -562 -9 -695 16 -206 17 -208 57&#xA;-216 31 -6 34 -9 34 -43 1 -43 22 -127 35 -140 6 -5 21 -11 35 -13 20 -2 26&#xA;-11 33 -48 5 -25 11 -47 13 -49 2 -2 21 -7 41 -10 33 -5 38 -10 41 -36 5 -42&#xA;29 -65 69 -65 27 0 33 -4 33 -21 0 -36 19 -59 50 -59 46 0 78 -17 82 -42 2&#xA;-15 11 -24 26 -26 13 -2 26 -10 28 -17 6 -15 57 -30 92 -26 16 2 22 -3 22 -16&#xA;0 -24 19 -43 43 -43 10 0 30 -9 44 -20 19 -14 41 -20 79 -20 51 0 54 -1 54&#xA;-25 0 -16 6 -25 16 -25 9 0 27 -9 41 -20 21 -17 41 -20 114 -20 88 0 88 0 91&#xA;-37 3 -37 3 -37 78 -50 41 -7 98 -13 125 -12 73 1 74 1 68 -20 -3 -13 4 -29&#xA;21 -45 22 -23 33 -26 101 -26 71 0 76 -1 85 -25 11 -29 102 -75 148 -75 30 0&#xA;32 -2 32 -34 0 -38 8 -46 54 -55 26 -6 32 -12 37 -44 3 -21 13 -43 22 -50 8&#xA;-7 17 -21 19 -32 2 -11 14 -22 28 -25 24 -6 24 -7 22 -109 -1 -108 -4 -117&#xA;-36 -123 -10 -1 -22 -10 -26 -18 -4 -8 -12 -25 -18 -37 -7 -13 -12 -41 -12&#xA;-62 0 -40 0 -40 -42 -43 -43 -3 -43 -3 -46 -44 -3 -42 -3 -42 -95 -46 -51 -2&#xA;-197 -2 -325 0 -233 4 -233 4 -247 31 -20 40 -59 54 -170 60 -100 6 -100 6&#xA;-100 38 -1 18 -5 37 -11 43 -6 6 -47 13 -92 17 -82 6 -82 6 -82 37 0 41 -16&#xA;56 -59 56 -41 0 -55 7 -64 33 -4 10 -17 17 -31 17 -14 0 -32 8 -41 17 -10 9&#xA;-36 18 -62 19 -39 3 -45 0 -54 -23 -5 -14 -8 -33 -7 -42 2 -12 -8 -17 -47 -21&#xA;-50 -5 -50 -5 -55 -55 -3 -35 -10 -50 -20 -51 -8 -1 -24 -2 -35 -3 -28 -2 -45&#xA;-45 -45 -113 0 -58 0 -58 -31 -58 -53 0 -69 -15 -69 -65 0 -43 0 -44 -37 -47&#xA;-36 -3 -38 -5 -46 -48 -4 -25 -7 -104 -5 -177 4 -148 11 -166 74 -178 24 -4&#xA;39 -14 46 -31 7 -15 23 -27 39 -31 15 -3 30 -11 33 -19 3 -9 21 -14 46 -14 38&#xA;0 80 -26 80 -49 0 -21 72 -51 123 -52 29 0 70 -3 91 -7 33 -6 41 -12 48 -37&#xA;13 -49 30 -55 159 -55 117 0 117 0 129 -30 8 -18 23 -33 39 -38 33 -9 1090 -9&#xA;1196 0 44 4 88 7 97 8 11 0 18 10 20 28 3 27 5 27 93 35 98 9 119 20 120 65 2&#xA;25 5 27 49 30 53 4 103 29 120 62 6 13 31 30 56 40 40 15 45 22 48 51 4 38 15&#xA;49 53 49 32 0 46 15 51 54 2 20 12 35 33 46 40 22 69 74 75 135 5 48 6 50 40&#xA;55 32 5 36 8 43 50 5 25 11 86 14 137 5 91 5 92 33 98 16 3 33 12 39 19 18 21&#xA;34 338 26 496 -5 80 -9 165 -10 189 -2 47 -29 81 -65 81 -15 0 -18 13 -24 90&#xA;-4 49 -12 93 -18 96 -6 4 -25 10 -42 14 -26 5 -31 11 -32 36 -2 83 -29 144&#xA;-65 144 -38 0 -49 12 -49 50 0 41 -11 50 -60 50 -28 0 -40 15 -40 51 0 11 -10&#xA;23 -22 28 -45 17 -103 30 -128 28 -20 -2 -24 2 -23 18 7 60 -34 92 -101 80&#xA;-34 -7 -36 -6 -36 19 0 21 -5 26 -25 26 -14 0 -29 8 -35 20 -9 17 -21 20 -76&#xA;20 -65 0 -65 0 -62 28 2 21 -2 28 -18 30 -12 2 -30 12 -40 23 -14 16 -31 19&#xA;-106 19 -88 0 -88 0 -88 35 0 48 -21 56 -164 64 -121 6 -121 6 -124 33 -5 45&#xA;-35 58 -134 58 -87 0 -88 0 -88 25 0 21 -5 25 -30 25 -19 0 -30 5 -30 14 0 20&#xA;-13 27 -62 31 -22 3 -41 6 -42 7 -12 31 -40 64 -57 68 -14 3 -34 24 -49 50&#xA;-16 28 -35 46 -48 48 -22 3 -22 7 -22 158 0 154 0 154 25 154 20 0 25 5 25 23&#xA;0 16 9 28 25 35 14 6 25 16 25 21 0 5 10 11 23 13 17 2 22 9 20 29 -1 26 -1&#xA;26 113 33 62 4 219 4 348 0 235 -7 235 -7 238 -43 3 -33 6 -36 43 -44 33 -7&#xA;83 -12 168 -17 4 0 7 -11 7 -25 0 -15 7 -28 18 -32 9 -3 24 -12 32 -19 8 -7&#xA;35 -14 59 -16 41 -3 44 -5 45 -30 2 -38 30 -56 102 -63 81 -9 107 -4 119 23 6&#xA;13 19 22 31 22 29 0 58 45 64 100 5 43 7 45 36 45 41 1 66 22 64 54 -4 55 -1&#xA;61 30 61 40 0 59 32 67 114 5 57 8 66 23 61 10 -3 29 -1 43 4 22 9 26 17 29&#xA;58 3 45 5 48 33 51 17 2 34 7 38 12 10 9 13 163 3 178 -4 7 -23 12 -42 12 -33&#xA;0 -34 1 -34 38 0 49 -14 62 -68 62 -38 0 -44 3 -53 28 -12 36 -83 72 -140 72&#xA;-36 0 -42 4 -52 29 -17 45 -66 64 -176 67 -98 4 -111 9 -111 50 0 12 -8 26&#xA;-17 30 -25 12 -1392 16 -1420 4z m-413 -250 c0 -5 -8 -10 -17 -10 -15 0 -16 2&#xA;-3 10 19 12 20 12 20 0z m2281 -3 c-1 -12 -15 -9 -19 4 -3 6 1 10 8 8 6 -3 11&#xA;-8 11 -12z m-2471 -191 c0 -18 -17 -29 -30 -21 -8 5 -7 11 1 21 15 18 29 18&#xA;29 0z m938 -458 c-2 -6 -10 -14 -16 -16 -7 -2 -10 2 -6 12 7 18 28 22 22 4z&#xA;m-98 -98 c0 -5 -4 -10 -10 -10 -5 0 -10 5 -10 10 0 6 5 10 10 10 6 0 10 -4 10&#xA;-10z m1267 -46 c-3 -3 -12 -4 -19 -1 -8 3 -5 6 6 6 11 1 17 -2 13 -5z m-1414&#xA;-116 c6 -4 8 -10 5 -13 -14 -15 -28 8 -27 43 2 34 2 35 6 7 3 -16 10 -33 16&#xA;-37z m-6 -125 c-2 -21 -4 -6 -4 32 0 39 2 55 4 38 2 -18 2 -50 0 -70z m-837&#xA;50 c-11 -17 -11 -17 -6 0 3 10 6 24 7 30 0 9 2 9 5 0 3 -7 0 -20 -6 -30z m17&#xA;-80 c-2 -16 -4 -3 -4 27 0 30 2 43 4 28 2 -16 2 -40 0 -55z m-20 -95 c-3 -8&#xA;-6 -5 -6 6 -1 11 2 17 5 13 3 -3 4 -12 1 -19z m999 -6 c-22 -5 -30 3 -21 18 5&#xA;8 11 7 22 -2 15 -12 14 -13 -1 -16z m108 -94 c-10 -16 -34 -7 -34 12 0 17 3&#xA;19 19 8 11 -7 17 -16 15 -20z m176 -104 c0 -2 -7 -4 -15 -4 -8 0 -15 4 -15 10&#xA;0 5 7 7 15 4 8 -4 15 -8 15 -10z m761 -279 c-1 -15 -24 -12 -29 3 -3 9 2 13&#xA;12 10 10 -1 17 -7 17 -13z m-1591 -351 c0 -17 -22 -14 -28 4 -2 7 3 12 12 12&#xA;9 0 16 -7 16 -16z m385 -184 c3 -5 2 -10 -4 -10 -5 0 -13 5 -16 10 -3 6 -2 10&#xA;4 10 5 0 13 -4 16 -10z m760 -300 c-3 -5 -10 -10 -16 -10 -5 0 -9 5 -9 10 0 6&#xA;7 10 16 10 8 0 12 -4 9 -10z m285 -260 c0 -5 -5 -10 -11 -10 -5 0 -7 5 -4 10&#xA;3 6 8 10 11 10 2 0 4 -4 4 -10z m-13 -342 c-3 -8 -6 -5 -6 6 -1 11 2 17 5 13&#xA;3 -3 4 -12 1 -19z m-1807 -738 c0 -5 -7 -10 -15 -10 -8 0 -15 5 -15 10 0 6 7&#xA;10 15 10 8 0 15 -4 15 -10z m180 -100 c0 -5 -4 -10 -10 -10 -5 0 -10 5 -10 10&#xA;0 6 5 10 10 10 6 0 10 -4 10 -10z m2200 0 c0 -5 -4 -10 -10 -10 -5 0 -10 5&#xA;-10 10 0 6 5 10 10 10 6 0 10 -4 10 -10z m-365 -185 c0 -5 -10 -11 -22 -13&#xA;-16 -2 -23 2 -23 13 0 11 7 15 23 13 12 -2 22 -7 22 -13z"></path>
<path d="M13116 11671 c-8 -12 -8 -4320 0 -4332 3 -5 25 -9 50 -9 42 0 44 -1&#xA;44 -29 0 -38 35 -51 116 -43 123 12 567 13 594 2 39 -16 78 1 82 37 3 25 8 29&#xA;46 34 24 3 48 12 53 20 14 23 12 4302 -3 4317 -15 15 -973 18 -982 3z m874&#xA;-111 c3 0 4 -802 2 -1782 -1 -981 -3 -1855 -3 -1942 0 -89 -3 -155 -8 -150&#xA;-17 18 -23 485 -30 2149 l-6 1680 -338 0 -339 0 -3 -1985 c-4 -1820 -6 -2060&#xA;-17 -2127 -5 -29 -16 -40 -23 -22 -3 8 -6 952 -7 2099 l-3 2085 385 -2 c212&#xA;-2 387 -3 390 -3z m-1 -3952 c-1 -18 -4 -44 -8 -58 -6 -19 -9 -12 -12 33 -3&#xA;41 -1 57 9 57 7 0 12 -13 11 -32z m-12 -160 c-2 -13 -4 -3 -4 22 0 25 2 35 4&#xA;23 2 -13 2 -33 0 -45z m-562 -127 c3 -5 2 -12 -3 -15 -5 -3 -9 1 -9 9 0 17 3&#xA;19 12 6z"></path>
<path d="M5093 11301 c-24 -4 -46 -11 -50 -15 -5 -4 -10 -56 -11 -116 -4 -103&#xA;-5 -109 -25 -112 -12 -2 -23 -12 -26 -23 -2 -11 -9 -24 -17 -28 -8 -4 -14 -19&#xA;-14 -32 0 -38 -15 -67 -59 -113 -39 -41 -46 -60 -41 -119 1 -19 -4 -22 -47&#xA;-25 -48 -3 -48 -3 -51 -51 -3 -48 -3 -48 -36 -42 -42 8 -66 -14 -66 -61 0 -30&#xA;-3 -34 -19 -29 -31 10 -71 -5 -71 -26 0 -13 -7 -19 -24 -19 -17 0 -34 -12 -52&#xA;-35 -17 -22 -35 -35 -49 -35 -28 0 -55 -24 -55 -49 0 -26 -19 -39 -65 -43 -38&#xA;-3 -40 -5 -43 -40 -3 -34 -6 -38 -30 -39 -44 -1 -146 -25 -148 -35 -1 -5 -5&#xA;-21 -8 -36 -5 -23 -12 -28 -38 -28 -46 0 -137 -46 -148 -75 -8 -21 -16 -25&#xA;-54 -25 -44 0 -74 -19 -61 -40 3 -5 1 -10 -4 -10 -6 0 -11 5 -11 11 0 21 -45&#xA;3 -57 -22 -12 -25 -19 -27 -98 -34 -91 -7 -115 -22 -115 -72 0 -22 -3 -23 -79&#xA;-23 -63 0 -83 -4 -104 -20 -14 -11 -32 -20 -40 -20 -9 0 -25 -13 -37 -30 -21&#xA;-29 -24 -30 -104 -30 -91 0 -102 -6 -108 -55 -3 -30 -3 -30 -83 -31 -102 -2&#xA;-182 -13 -194 -28 -5 -6 -11 -24 -13 -39 -3 -28 -3 -28 -128 -32 -69 -2 -133&#xA;-7 -142 -10 -13 -5 -18 -18 -18 -46 0 -38 0 -38 -142 -42 -79 -2 -161 -8 -183&#xA;-13 -36 -8 -41 -13 -45 -44 -5 -34 -5 -34 -132 -37 -168 -4 -228 -19 -248 -61&#xA;-15 -32 -15 -32 -120 -33 -257 -5 -277 -9 -282 -61 -3 -33 -3 -33 -184 -38&#xA;-150 -4 -185 -8 -200 -21 -11 -10 -28 -19 -39 -21 -15 -3 -19 -11 -17 -29 2&#xA;-24 2 -24 -110 -26 -102 -1 -114 -3 -127 -22 -7 -12 -22 -21 -32 -21 -10 0&#xA;-26 -11 -35 -25 -12 -19 -25 -25 -53 -25 -69 0 -71 -5 -72 -191 -1 -221 -2&#xA;-221 111 -234 85 -10 85 -10 82 -47 -4 -48 0 -50 216 -58 6 0 12 -11 12 -25 0&#xA;-19 5 -25 21 -25 12 0 28 -8 35 -17 12 -17 61 -18 784 -18 706 0 773 1 784 17&#xA;6 9 23 18 36 20 18 2 26 10 28 28 3 25 3 25 130 23 70 -1 161 3 202 10 75 13&#xA;75 13 78 50 2 20 6 37 10 38 4 0 66 2 137 4 158 4 206 18 218 64 8 31 8 31 95&#xA;31 123 1 183 18 201 57 13 30 15 31 107 38 103 8 117 16 107 67 -5 27 -5 27&#xA;88 32 145 7 175 14 188 42 6 14 11 31 11 39 0 12 15 15 63 15 76 0 124 25 129&#xA;66 3 26 5 27 73 30 91 5 115 17 115 61 0 33 0 33 48 33 26 0 52 4 57 9 6 5 24&#xA;11 40 13 24 2 32 10 41 38 10 31 16 35 50 38 50 4 64 17 64 58 0 33 1 34 40&#xA;34 29 0 43 5 52 19 9 15 19 18 39 14 25 -5 29 -2 37 28 8 32 11 34 57 37 56 4&#xA;65 12 65 64 0 36 0 36 39 31 33 -5 41 -2 51 16 6 13 8 35 5 52 -6 28 -6 29 33&#xA;29 48 0 63 16 60 61 -3 28 0 34 17 32 10 -1 31 5 46 13 25 13 28 19 34 99 7&#xA;85 7 85 40 85 61 0 60 -4 60 402 0 367 0 370 -22 387 -11 10 -23 29 -25 42 -2&#xA;16 -11 25 -25 27 -22 3 -23 7 -23 101 0 80 -4 104 -22 141 -13 25 -35 51 -49&#xA;57 -24 12 -27 19 -33 97 -3 46 -9 91 -12 99 -3 9 -23 17 -47 19 -23 3 -49 7&#xA;-57 10 -8 3 -34 2 -57 -1z m70 -248 c-7 -2 -19 -2 -25 0 -7 3 -2 5 12 5 14 0&#xA;19 -2 13 -5z m142 -24 c10 -15 -1 -23 -20 -15 -9 3 -13 10 -10 16 8 13 22 13&#xA;30 -1z m-365 -201 c0 -5 -9 -8 -20 -8 -23 0 -26 10 -8 28 9 9 14 9 20 -1 4 -6&#xA;8 -15 8 -19z m397 -377 c-1 -48 -7 -93 -13 -98 -12 -12 -14 26 -7 125 7 95 23&#xA;74 20 -27z m-787 -1 c0 -5 -7 -10 -16 -10 -8 0 -12 5 -9 10 3 6 10 10 16 10 5&#xA;0 9 -4 9 -10z m789 -325 c0 -16 -4 -37 -9 -45 -7 -10 -10 5 -9 50 0 45 3 59 9&#xA;45 5 -11 9 -33 9 -50z m-2034 -354 c-3 -6 -14 -9 -25 -8 -24 2 -15 17 11 17&#xA;11 0 18 -4 14 -9z m-100 -141 c8 -13 -5 -13 -25 0 -13 8 -13 10 2 10 9 0 20&#xA;-4 23 -10z m1829 -75 c7 -18 -2 -18 -34 0 -25 14 -25 14 1 15 15 0 29 -7 33&#xA;-15z m-2429 -105 c3 -5 1 -10 -4 -10 -6 0 -11 5 -11 10 0 6 2 10 4 10 3 0 8&#xA;-4 11 -10z m48 -17 c-7 -2 -19 -2 -25 0 -7 3 -2 5 12 5 14 0 19 -2 13 -5z&#xA;m2275 -5 c-7 -19 -38 -22 -38 -4 0 10 9 16 21 16 12 0 19 -5 17 -12z m-2607&#xA;-86 c15 3 26 1 23 -4 -9 -14 -59 -9 -80 8 -18 14 -18 15 5 4 13 -7 36 -10 52&#xA;-8z m-741 -188 c0 -2 -18 -4 -40 -4 -22 0 -40 3 -40 8 0 4 18 6 40 4 22 -2 40&#xA;-6 40 -8z m-666 -49 c-4 -8 -13 -15 -21 -15 -13 0 -13 3 -3 15 7 8 16 15 21&#xA;15 5 0 6 -7 3 -15z m186 -48 c8 -3 26 -8 40 -10 16 -3 10 -5 -15 -5 -22 -1&#xA;-51 5 -65 13 -25 14 -25 14 0 11 14 -1 32 -5 40 -9z m58 6 c-10 -2 -28 -2 -40&#xA;0 -13 2 -5 4 17 4 22 1 32 -1 23 -4z m-543 -43 c3 -5 -3 -10 -15 -10 -12 0&#xA;-18 5 -15 10 3 6 10 10 15 10 5 0 12 -4 15 -10z m70 -51 c10 -15 -1 -23 -20&#xA;-15 -9 3 -13 10 -10 16 8 13 22 13 30 -1z m68 -6 c-7 -2 -21 -2 -30 0 -10 3&#xA;-4 5 12 5 17 0 24 -2 18 -5z m1991 -342 c14 -5 16 -10 7 -15 -6 -4 -18 -3 -25&#xA;4 -8 6 -30 10 -50 8 -19 -1 -38 1 -42 5 -10 9 86 8 110 -2z m-2044 -10 c0 -5&#xA;-7 -12 -16 -15 -14 -5 -15 -4 -4 9 14 17 20 19 20 6z m1997 -7 c-3 -3 -12 -4&#xA;-19 -1 -8 3 -5 6 6 6 11 1 17 -2 13 -5z m-547 -75 c134 -16 115 -27 -42 -23&#xA;-171 5 -216 9 -226 19 -4 5 -2 6 3 2 6 -3 17 -2 25 4 20 12 137 11 240 -2z&#xA;m-988 -18 c4 -3 -9 -6 -27 -6 -19 0 -35 3 -35 8 0 4 -7 7 -15 7 -8 0 -15 -5&#xA;-15 -11 0 -5 -5 -7 -11 -3 -8 4 -7 9 2 15 14 9 88 2 101 -10z m1117 10 c8 -5&#xA;9 -11 3 -15 -5 -3 -15 1 -22 9 -14 16 -3 20 19 6z m-989 -7 c-38 -8 -90 -9&#xA;-90 -2 0 4 24 7 53 7 28 -1 45 -3 37 -5z m-370 -46 c0 -18 -2 -19 -17 -7 -10&#xA;7 -20 14 -22 16 -1 1 0 6 3 12 10 16 36 1 36 -21z m1584 13 c3 -5 -3 -11 -14&#xA;-14 -13 -3 -20 0 -20 9 0 15 26 19 34 5z"></path>
<path d="M10870 10429 c-111 -7 -127 -10 -142 -30 -10 -11 -18 -30 -18 -41 0&#xA;-18 -7 -19 -97 -19 -54 1 -137 -4 -185 -10 -87 -11 -87 -11 -90 -47 -3 -35 -3&#xA;-35 -87 -34 -105 1 -119 -6 -123 -61 -3 -41 -4 -42 -36 -39 -53 5 -62 -9 -62&#xA;-105 0 -105 9 -123 58 -123 37 0 37 0 39 -88 2 -74 5 -89 23 -104 11 -9 20&#xA;-23 20 -30 0 -8 11 -25 24 -37 16 -15 26 -38 30 -69 10 -87 18 -124 30 -126 6&#xA;-2 35 -11 64 -21 41 -13 69 -16 132 -10 88 8 106 19 97 64 -6 28 -6 28 124 33&#xA;144 6 169 17 169 69 0 27 0 27 223 26 222 -2 222 -2 225 -37 5 -55 15 -60 108&#xA;-60 83 0 83 0 86 -42 3 -42 3 -43 44 -46 41 -3 41 -3 40 -75 -1 -40 3 -96 7&#xA;-124 9 -53 9 -53 -516 -53 -511 0 -524 0 -542 -20 -10 -11 -26 -20 -36 -20&#xA;-12 0 -19 -9 -21 -27 -3 -27 -5 -28 -62 -29 -42 -2 -63 -7 -72 -18 -6 -9 -20&#xA;-16 -31 -16 -24 0 -43 -18 -43 -41 0 -19 -20 -29 -59 -29 -32 0 -51 -16 -51&#xA;-44 0 -34 -16 -48 -56 -55 -23 -4 -40 -12 -41 -21 -1 -8 -5 -36 -8 -62 -5 -42&#xA;-9 -48 -31 -48 -16 0 -24 -6 -24 -18 0 -9 -9 -23 -20 -30 -17 -10 -20 -23 -20&#xA;-77 0 -65 0 -65 -30 -65 -16 0 -30 -5 -30 -11 0 -5 -9 -30 -21 -55 -19 -42&#xA;-20 -60 -17 -297 3 -205 7 -259 20 -287 9 -19 18 -43 22 -53 4 -13 12 -16 30&#xA;-11 24 6 24 5 29 -73 7 -118 16 -144 57 -158 29 -10 35 -17 37 -41 0 -16 2&#xA;-35 2 -41 1 -8 16 -13 41 -13 36 0 40 -3 40 -25 0 -13 5 -36 12 -50 9 -21 18&#xA;-25 55 -25 42 0 43 -1 43 -34 0 -48 21 -60 114 -66 74 -5 81 -7 79 -25 -7 -51&#xA;-13 -50 424 -53 468 -4 532 1 550 47 9 25 17 29 64 34 127 15 139 21 139 69 0&#xA;25 3 27 48 30 47 3 47 3 52 53 5 46 7 50 33 53 25 3 27 1 27 -33 0 -57 14 -75&#xA;60 -75 39 0 39 0 42 -47 3 -48 3 -48 60 -51 55 -3 57 -4 60 -32 3 -30 3 -30&#xA;173 -36 94 -3 200 -2 238 1 64 7 67 8 67 34 0 34 17 51 50 51 14 0 31 5 38 12&#xA;9 9 12 255 12 1044 0 1033 0 1033 -22 1048 -12 9 -30 16 -40 16 -10 0 -18 3&#xA;-19 8 0 4 -2 61 -3 127 -2 66 -7 128 -11 138 -5 12 -18 17 -46 17 -39 0 -39 0&#xA;-39 43 -1 23 -7 65 -14 92 -12 46 -16 50 -47 55 -32 5 -34 8 -39 50 -5 45 -5&#xA;45 -50 50 -40 4 -45 7 -42 28 6 39 -23 70 -65 74 -30 2 -37 7 -35 20 2 10 -2&#xA;26 -7 36 -12 22 -96 45 -148 40 -38 -3 -38 -2 -43 37 -5 40 -6 40 -55 47 -27&#xA;3 -89 7 -137 7 -87 1 -88 1 -93 29 -12 55 -16 57 -126 63 -142 9 -457 8 -609&#xA;-2z m500 -118 c0 -5 -14 -11 -31 -15 -48 -9 -270 -7 -306 3 -18 5 -33 5 -35 1&#xA;-2 -5 -14 -3 -27 4 -20 11 8 14 187 14 117 1 212 -2 212 -7z m21 -14 c-10 -9&#xA;-11 -8 -5 6 3 10 9 15 12 12 3 -3 0 -11 -7 -18z m49 11 c0 -4 -4 -8 -9 -8 -6&#xA;0 -12 4 -15 8 -3 5 1 9 9 9 8 0 15 -4 15 -9z m-787 -25 c3 -5 0 -17 -4 -28 -9&#xA;-19 -9 -19 -5 2 2 12 -1 24 -8 27 -8 3 -8 5 1 5 6 1 14 -2 16 -6z m-100 -83&#xA;c4 0 5 5 1 11 -4 8 1 9 17 4 50 -16 55 -24 12 -25 -49 0 -75 8 -67 22 4 6 10&#xA;6 17 -1 6 -6 15 -11 20 -11z m1222 0 c-3 -5 -12 -10 -18 -10 -7 0 -6 4 3 10&#xA;19 12 23 12 15 0z m-1525 -81 c0 -3 13 -4 29 -1 16 2 32 -1 35 -7 5 -8 -16&#xA;-10 -71 -7 -91 5 -85 4 -80 14 6 8 87 10 87 1z m1910 -119 c0 -5 -5 -10 -11&#xA;-10 -5 0 -7 5 -4 10 3 6 8 10 11 10 2 0 4 -4 4 -10z m-975 -232 c5 -5 -14 -7&#xA;-120 -14 -66 -4 -95 -2 -108 8 -15 11 1 13 103 12 67 -1 123 -3 125 -6z m-506&#xA;-97 c7 -5 9 -11 5 -14 -5 -3 -15 1 -22 9 -14 16 -5 18 17 5z m725 -4 c-3 -8&#xA;-12 -14 -21 -14 -13 0 -13 2 3 14 10 7 19 13 21 13 1 0 0 -6 -3 -13z m46 -1&#xA;c0 -2 -7 -7 -16 -10 -8 -3 -12 -2 -9 4 6 10 25 14 25 6z m-1084 -66 c-5 -42&#xA;-16 -51 -16 -13 0 26 6 43 16 43 2 0 2 -14 0 -30z m337 -550 c4 0 5 5 2 10 -4&#xA;6 10 10 35 10 51 0 45 -15 -9 -24 -44 -7 -74 1 -65 16 4 6 10 6 17 -1 6 -6 15&#xA;-11 20 -11z m904 7 c-4 -12 -161 -17 -178 -6 -9 6 -4 7 15 3 19 -4 27 -3 23 3&#xA;-4 7 20 10 68 10 42 -1 74 -5 72 -10z m-1581 -344 c-10 -10 -19 5 -10 18 6 11&#xA;8 11 12 0 2 -7 1 -15 -2 -18z m1354 -62 c0 -10 9 -29 19 -42 16 -21 31 -25 98&#xA;-29 89 -6 81 26 72 -297 -4 -153 -4 -153 -46 -153 -43 0 -43 0 -43 -45 0 -44&#xA;-1 -45 -31 -45 -50 0 -71 -17 -67 -53 3 -32 3 -32 -112 -40 -134 -9 -118 -9&#xA;-242 -1 -88 6 -98 8 -98 26 0 38 -19 58 -55 58 -34 0 -35 1 -36 38 0 59 -30&#xA;125 -59 132 -21 5 -26 14 -31 50 -8 56 -4 67 27 74 17 5 24 13 24 31 0 14 9&#xA;34 20 45 11 11 20 33 20 50 0 31 3 34 53 44 23 5 27 12 27 39 0 33 0 33 82 46&#xA;92 14 100 18 118 61 12 30 12 30 136 30 115 0 124 -1 124 -19z m-1440 -140 c0&#xA;-14 -18 -23 -30 -16 -6 4 -8 11 -5 16 8 12 35 12 35 0z m830 -115 c0 -2 -7 -7&#xA;-16 -10 -8 -3 -12 -2 -9 4 6 10 25 14 25 6z m934 -142 c3 -8 2 -12 -4 -9 -6 3&#xA;-10 10 -10 16 0 14 7 11 14 -7z m-1764 -344 c0 -5 -6 -10 -14 -10 -8 0 -18 5&#xA;-21 10 -3 6 3 10 14 10 12 0 21 -4 21 -10z m1490 -26 c0 -20 -7 -17 -20 6 -9&#xA;16 -8 18 5 14 8 -4 15 -12 15 -20z m-83 -70 c-3 -3 -12 -4 -19 -1 -8 3 -5 6 6&#xA;6 11 1 17 -2 13 -5z m701 -501 c2 -8 -5 -13 -17 -13 -21 0 -35 13 -24 24 10&#xA;10 36 3 41 -11z"></path>
<path d="M18076 10433 c-71 -2 -135 -8 -142 -14 -7 -6 -14 -25 -16 -42 -3 -32&#xA;-3 -32 -128 -34 -144 -2 -230 -11 -247 -25 -7 -6 -13 -23 -13 -39 0 -28 0 -28&#xA;-92 -31 -85 -3 -94 -5 -103 -25 -5 -13 -20 -23 -34 -25 -18 -2 -33 -16 -48&#xA;-43 -20 -35 -23 -50 -18 -120 9 -146 15 -175 40 -191 12 -8 30 -12 39 -8 9 3&#xA;16 2 16 -2 2 -74 9 -163 15 -177 4 -10 23 -20 46 -23 39 -7 39 -7 39 -78 0&#xA;-43 5 -79 13 -90 20 -28 146 -41 227 -24 63 13 65 15 74 50 9 37 9 37 100 41&#xA;111 6 169 16 178 31 4 6 8 23 8 38 0 27 0 27 199 26 200 0 200 0 203 -27 2&#xA;-19 10 -27 28 -29 13 -2 30 -11 36 -20 10 -13 33 -18 99 -21 77 -3 85 -5 80&#xA;-21 -7 -22 14 -70 31 -70 7 0 14 -12 16 -27 2 -22 8 -28 26 -27 21 1 22 -2 22&#xA;-97 0 -98 0 -98 -542 -101 -412 -2 -548 -6 -565 -16 -14 -7 -23 -24 -25 -45&#xA;-3 -32 -3 -32 -83 -40 -104 -10 -105 -10 -105 -50 0 -34 -1 -35 -50 -39 -28&#xA;-3 -53 -7 -56 -10 -2 -3 -6 -23 -8 -44 -3 -38 -5 -39 -47 -44 -44 -5 -44 -5&#xA;-47 -52 -3 -47 -4 -48 -36 -48 -53 0 -66 -24 -66 -118 0 -81 0 -81 -37 -84&#xA;-37 -3 -38 -4 -50 -58 -17 -74 -14 -693 4 -711 6 -6 26 -12 45 -13 33 -2 33&#xA;-2 38 -96 5 -95 5 -95 53 -98 47 -3 47 -3 47 -42 0 -28 6 -43 21 -53 11 -8 20&#xA;-21 19 -28 -5 -34 0 -41 24 -35 18 4 25 1 29 -14 4 -16 14 -20 51 -20 46 0 46&#xA;0 46 -38 0 -54 13 -62 103 -62 78 0 78 0 92 -34 9 -21 23 -36 39 -40 41 -10&#xA;746 -6 815 5 80 12 88 17 62 36 -32 22 -25 35 17 32 92 -5 132 1 155 24 12 12&#xA;25 23 30 23 4 1 12 2 17 3 6 0 10 12 10 25 0 22 5 25 48 31 61 8 76 17 80 46&#xA;7 54 24 89 43 89 10 0 19 -6 20 -12 0 -7 1 -38 2 -68 2 -49 5 -55 25 -58 15&#xA;-2 22 -10 22 -27 0 -36 59 -75 113 -75 40 0 46 -3 51 -25 7 -29 48 -49 81 -41&#xA;12 3 103 6 203 7 182 2 182 2 182 30 0 15 5 31 10 34 11 7 13 2256 2 2340 -6&#xA;46 -10 50 -37 55 -29 5 -30 7 -33 62 -2 46 -7 58 -22 63 -14 4 -20 15 -20 36&#xA;0 24 -4 29 -24 29 -25 0 -36 21 -36 71 0 32 -26 56 -65 61 -27 3 -30 7 -31 37&#xA;-1 40 -25 61 -68 61 -25 0 -34 6 -45 31 -7 17 -21 33 -30 36 -9 2 -28 11 -43&#xA;19 -14 8 -45 14 -68 14 -40 0 -42 2 -38 25 10 49 -6 55 -152 63 -135 7 -135 7&#xA;-136 40 -1 19 -6 37 -13 41 -28 17 -329 23 -715 14z m438 -125 c-3 -4 4 -8 15&#xA;-8 12 0 21 5 21 11 0 5 5 7 11 4 24 -16 -11 -20 -155 -20 -104 0 -153 3 -153&#xA;11 0 7 44 11 133 11 73 0 131 -4 128 -9z m-654 -53 c0 -8 -2 -15 -4 -15 -2 0&#xA;-6 7 -10 15 -3 8 -1 15 4 15 6 0 10 -7 10 -15z m1180 -36 c0 -4 -9 -7 -19 -6&#xA;-11 0 -18 4 -16 7 6 9 35 8 35 -1z m-1337 -19 c4 0 6 4 3 8 -4 7 35 9 102 4&#xA;13 -1 21 -6 18 -11 -9 -13 -133 -8 -146 7 -7 9 -7 9 2 2 7 -5 16 -10 21 -10z&#xA;m1272 0 c-3 -5 -18 -9 -33 -9 -27 1 -27 1 3 9 17 4 31 8 33 9 2 0 0 -3 -3 -9z&#xA;m-1645 -40 c0 -5 -9 -10 -21 -10 -11 0 -17 5 -14 10 3 6 13 10 21 10 8 0 14&#xA;-4 14 -10z m70 -57 c-14 -10 -20 -24 -19 -41 3 -44 0 -62 -12 -62 -7 0 -9 11&#xA;-5 31 3 17 1 40 -5 51 -16 30 -5 45 31 40 30 -4 31 -5 10 -19z m93 10 c-7 -2&#xA;-19 -2 -25 0 -7 3 -2 5 12 5 14 0 19 -2 13 -5z m2017 -244 c0 -6 -4 -7 -10 -4&#xA;-5 3 -10 11 -10 16 0 6 5 7 10 4 6 -3 10 -11 10 -16z m-1183 -108 c-15 -11&#xA;-22 -12 -25 -3 -2 7 -15 12 -28 12 -14 0 -23 -4 -20 -8 2 -4 -13 -8 -34 -7&#xA;-21 0 -36 3 -34 7 2 3 -4 8 -13 10 -10 3 26 4 79 4 88 0 95 -1 75 -15z m1278&#xA;-101 c3 -5 -1 -10 -9 -10 -9 0 -16 5 -16 10 0 6 4 10 9 10 6 0 13 -4 16 -10z&#xA;m-1105 -19 c9 -17 7 -18 -17 -12 -32 9 -43 31 -14 31 11 0 25 -9 31 -19z&#xA;m-915 -60 c7 -12 -12 -24 -25 -16 -11 7 -4 25 10 25 5 0 11 -4 15 -9z m1140&#xA;-1 c-3 -5 -12 -10 -18 -10 -7 0 -6 4 3 10 19 12 23 12 15 0z m55 -156 c0 -8&#xA;-4 -12 -10 -9 -5 3 -10 10 -10 16 0 5 5 9 10 9 6 0 10 -7 10 -16z m139 -222&#xA;c1 -22 -3 -31 -10 -26 -7 4 -9 21 -6 40 4 24 2 32 -5 28 -8 -5 -9 1 -5 17 4&#xA;13 7 35 8 49 2 30 17 -60 18 -108z m-86 -143 c-10 -10 -72 -14 -152 -11 -70 3&#xA;-57 16 22 22 77 6 142 1 130 -11z m-947 -9 c9 0 12 4 9 10 -4 6 11 7 42 3 64&#xA;-8 67 -13 10 -15 -26 -1 -54 -2 -64 -2 -9 -1 -17 5 -19 12 -1 7 0 8 3 2 2 -5&#xA;11 -10 19 -10z m974 0 c0 -5 -5 -10 -11 -10 -5 0 -7 5 -4 10 3 6 8 10 11 10 2&#xA;0 4 -4 4 -10z m-270 -415 c0 -39 20 -55 72 -55 18 0 50 -3 71 -6 37 -7 37 -7&#xA;37 -181 0 -174 0 -174 -29 -184 -23 -8 -33 -22 -50 -68 -11 -32 -21 -65 -21&#xA;-73 0 -10 -17 -20 -45 -28 -25 -7 -45 -18 -45 -26 0 -7 -10 -14 -22 -16 -14&#xA;-2 -24 -11 -26 -24 -3 -19 -12 -22 -75 -29 -96 -10 -168 -10 -249 0 -58 7 -67&#xA;11 -72 31 -8 32 -47 66 -69 60 -19 -5 -37 20 -37 53 0 22 -27 41 -58 41 -17 0&#xA;-19 9 -19 130 0 126 1 130 21 130 40 0 63 26 70 80 6 45 9 50 31 50 20 0 25 5&#xA;25 24 0 22 4 24 93 31 102 8 127 21 127 67 0 28 0 28 135 28 135 0 135 0 135&#xA;-35z m328 -270 c-1 -42 -2 -44 -6 -15 -5 35 -5 35 -12 5 -5 -20 -6 -9 -4 30 4&#xA;75 4 74 14 50 5 -11 8 -42 8 -70z m-1720 -219 c-2 -120 -6 -171 -15 -173 -7&#xA;-3 -9 -12 -6 -21 3 -9 3 -14 -1 -10 -12 10 -14 41 -4 67 6 16 5 27 -2 31 -7 5&#xA;-8 50 -1 155 6 81 8 152 5 157 -3 5 -3 17 1 26 16 36 26 -67 23 -232z m627&#xA;114 c2 -93 -11 -112 -22 -32 -6 43 5 138 14 128 3 -3 7 -46 8 -96z m1087 8&#xA;c-7 -7 -12 -8 -12 -2 0 14 12 26 19 19 2 -3 -1 -11 -7 -17z m41 -663 c-4 -15&#xA;-36 -12 -41 3 -3 9 3 13 19 10 13 -1 23 -7 22 -13z m-1616 -90 c0 -8 -6 -15&#xA;-14 -15 -7 0 -13 7 -13 15 0 8 6 15 13 15 8 0 14 -7 14 -15z m2273 -195 c0 -5&#xA;-2 -10 -4 -10 -3 0 -8 5 -11 10 -3 6 -1 10 4 10 6 0 11 -4 11 -10z"></path>
<path d="M5263 9475 c-19 -8 -34 -22 -34 -32 -1 -10 -2 -31 -3 -48 -1 -25 -5&#xA;-30 -25 -27 -33 3 -62 -25 -55 -53 3 -13 1 -26 -5 -29 -6 -4 -11 -27 -11 -51&#xA;0 -44 0 -44 -47 -47 -48 -3 -48 -3 -51 -52 -3 -48 -3 -48 -42 -42 -33 5 -41 3&#xA;-50 -14 -6 -12 -10 -35 -8 -53 3 -31 2 -32 -30 -29 -50 5 -111 -27 -127 -65&#xA;-13 -31 -17 -33 -64 -33 -54 0 -53 1 -55 -60 -1 -22 -5 -25 -44 -26 -48 -1&#xA;-54 -5 -56 -36 -1 -14 -8 -24 -20 -26 -10 -2 -28 -12 -38 -22 -14 -13 -30 -16&#xA;-63 -12 -60 6 -79 -10 -71 -60 6 -37 6 -37 -91 -40 -98 -3 -98 -3 -99 -48 0&#xA;-45 0 -45 -94 -48 -96 -3 -130 -16 -130 -49 0 -7 -9 -13 -20 -13 -11 0 -20 -7&#xA;-20 -15 0 -17 3 -17 -105 -17 -97 -1 -119 -14 -109 -65 6 -33 6 -33 -135 -33&#xA;-128 0 -141 -2 -151 -19 -5 -11 -7 -33 -4 -51 7 -31 7 -31 -179 -30 -103 1&#xA;-191 -1 -197 -5 -6 -4 -9 -23 -8 -43 3 -37 3 -37 -182 -39 -102 0 -189 -2&#xA;-195 -4 -5 -1 -30 -2 -55 -3 -45 -1 -45 -1 -48 -46 -3 -45 -3 -45 -290 -47&#xA;-376 -2 -454 -4 -470 -16 -8 -6 -10 -21 -6 -43 6 -34 6 -34 -95 -34 -101 0&#xA;-101 0 -101 -154 0 -171 6 -216 27 -216 8 0 28 -14 45 -31 26 -25 37 -30 72&#xA;-27 41 3 41 2 42 -34 2 -69 5 -71 99 -66 96 5 111 -3 102 -52 -4 -16 -2 -32 4&#xA;-35 5 -4 95 -6 199 -5 185 1 190 0 190 -20 0 -16 6 -20 30 -20 17 0 33 -7 39&#xA;-17 9 -16 32 -18 254 -18 195 0 247 3 261 14 9 8 15 20 12 26 -11 31 19 35&#xA;239 35 121 0 225 4 231 8 7 4 13 16 15 26 2 10 11 22 19 26 8 4 29 14 45 22&#xA;22 12 55 15 127 12 97 -4 97 -4 115 26 9 17 25 32 34 35 10 3 20 12 23 20 4&#xA;11 21 15 60 15 30 0 58 5 61 11 4 6 19 7 36 4 42 -10 61 9 53 52 -6 34 -6 34&#xA;75 32 96 -2 126 14 116 63 -7 28 -6 28 44 28 57 0 66 8 62 63 -2 40 -2 40 38&#xA;33 32 -5 44 -2 58 13 10 10 28 22 41 26 13 4 28 18 34 31 8 17 19 24 39 24 15&#xA;0 40 5 55 10 24 10 26 14 20 51 -7 41 -6 41 20 36 15 -3 38 0 51 6 21 9 24 17&#xA;21 51 -3 41 -2 41 33 41 49 0 69 19 69 67 0 40 24 88 44 88 6 1 22 9 34 20 20&#xA;17 23 27 20 67 -3 48 -3 48 45 45 33 -2 47 1 48 10 1 7 2 31 3 53 1 39 2 40&#xA;34 37 46 -5 62 12 62 64 0 31 4 44 14 44 8 0 19 13 24 30 6 16 22 35 36 42 23&#xA;10 26 17 26 60 0 35 6 54 20 68 11 11 20 31 20 45 0 20 5 25 25 25 14 0 25 6&#xA;26 13 1 6 2 50 2 97 2 85 2 85 39 82 29 -2 39 2 48 19 13 23 13 233 1 390 -1&#xA;4 -9 9 -18 12 -10 2 -25 7 -33 11 -8 3 -30 -1 -47 -9z m-35 -178 c2 -11 -3&#xA;-17 -16 -17 -26 0 -34 11 -20 27 14 17 32 12 36 -10z m-1248 -857 c0 -5 -2&#xA;-10 -4 -10 -3 0 -8 5 -11 10 -3 6 -1 10 4 10 6 0 11 -4 11 -10z m830 -170 c0&#xA;-5 -4 -10 -10 -10 -5 0 -10 5 -10 10 0 6 5 10 10 10 6 0 10 -4 10 -10z m-377&#xA;-386 c-3 -8 -9 -14 -13 -14 -13 0 -22 19 -15 30 9 14 34 0 28 -16z m-483 -283&#xA;c0 -11 -4 -23 -10 -26 -5 -3 -10 -2 -10 4 0 5 -3 16 -6 25 -4 11 -1 16 10 16&#xA;9 0 16 -8 16 -19z m-200 -91 c0 -5 -7 -10 -15 -10 -8 0 -15 5 -15 10 0 6 7 10&#xA;15 10 8 0 15 -4 15 -10z"></path>
<path d="M18580 7286 c0 -9 5 -16 10 -16 6 0 10 4 10 9 0 6 -4 13 -10 16 -5 3&#xA;-10 -1 -10 -9z"></path>
</g>
</svg>