<svg xmlns="http://www.w3.org/2000/svg" viewBox="0 0 300 300"><defs></defs><g id="LAYOUT"><path class="cls-1" d="M139.4,157.69c-4.78,3.85-8.42,8.08-12.13,12.23a93.67,93.67,0,0,0-11.9,16.66c-.65,1.17-1.29,2.48-3,1.95s-1.53-2-1.36-3.32c1-8.28,3.22-16.32,5.35-24.36q.66-2.5,1.4-5c.49-1.71,1.61-3.42-1.46-4.1-1.4-.3-1.4-2-.77-3.23,3.86-7.38,7.74-14.75,11.74-22.06a4.11,4.11,0,0,1,7.4,3.34c-1.4,4.08-3.11,8.05-4.65,12.09q-4.28,11.22-8.5,22.48a6,6,0,0,0-.69,3.1c1-.15,1.28-1.06,1.74-1.66a161.8,161.8,0,0,1,21.55-23.67c.29-.26.57-.54.88-.79,2.06-1.63,4.59-1.69,6.23-.16a4.74,4.74,0,0,1,.43,6.25,61.73,61.73,0,0,0-6.22,10.27,26.29,26.29,0,0,0-1.94,5.3c-.13.6-.36,1.33.21,1.78s1.33-.05,1.95-.34c1.22-.57,1.47-1.73,1.78-2.89,1.67-6.24,3.69-12.34,7.21-17.84a20,20,0,0,1,6.35-6.85c5.07-3,10-.93,11.41,4.8a16.09,16.09,0,0,1-.19,7.68,53.28,53.28,0,0,1-7.06,17.87,16.39,16.39,0,0,1-5.1,5.15c-2.15,1.32-4.37,1.86-6.64.39-1.09-.7-1.48-.38-1.76.73a35.75,35.75,0,0,0-1.15,11.91c.36,3.79,2.19,4.74,5.62,3a29,29,0,0,0,7.76-6.46,122.6,122.6,0,0,0,13.78-18.5c1.37-2.19,1.23-4.83,1.75-7.27s.92-5.1,1.42-7.65a4.35,4.35,0,0,1,3.4-3.79,4.65,4.65,0,0,1,4.65,1.63c2.73,3,2.77,3.08.65,6.68-5.29,9-7,19-8.85,29,.21.13.43.25.65.37.92-1.11,1.87-2.19,2.75-3.33,2.38-3.13,4.54-6.45,7.12-9.39,5.33-6.08,6.32-13.92,8.94-21.09.94-2.58,1.53-5.28,2.4-7.89.95-2.85,3.38-4.11,5.86-3.17a4.58,4.58,0,0,1,2.52,6.23c-.73,1.88-1.77,3.57-.82,5.79.41,1-.68,2-1.41,2.84-4.15,4.66-6.37,10.31-8.36,16.11,3.83-5.08,8.1-9.78,12.21-14.61a32.8,32.8,0,0,1,6.4-5.89c3.47-2.35,6.84-1,7.88,3.12,1.14,4.47.1,8.91-.2,13.35-.17,2.5-.49,5-.67,7.5-.05.58-.34,1.46.34,1.71.84.29,1.09-.7,1.51-1.2a6.54,6.54,0,0,0,1.26-3,60.87,60.87,0,0,1,10.64-23.93c2.17-2.91,4.83-5.18,8.78-5.2,3.46,0,4.79,1.35,5.45,4.77.53,2.74,1.59,5.34,1.35,8.26a36.91,36.91,0,0,1-1.91,9c-.36,1.07-.55,2.08.49,3a2.8,2.8,0,0,0,3.08.39,13.29,13.29,0,0,0,5.4-4.06A56.27,56.27,0,0,0,270,150.06a10.35,10.35,0,0,1,1.07-1.82,2.08,2.08,0,0,1,2.94-.51c1.1.7,1.74,1.75,1,3-3.84,6.31-7.48,12.79-13.37,17.52-2.87,2.31-6.11,3.62-9.83,1.9-1.26-.59-1.65.23-2.09,1.13a46.18,46.18,0,0,1-4.93,7.75,15.55,15.55,0,0,1-8.51,5.57c-2.54.69-5.37-.67-6.83-3.44-.7-1.33-1.13-1.91-2.74-1-2.23,1.3-4.36.32-5.19-2.23a28.24,28.24,0,0,1-1-8.14c-.09-4.16-.1-8.33-.16-12.49,0-.14-.12-.28-.2-.44-.8-.31-1.09.41-1.49.82a351.85,351.85,0,0,0-25.78,28.79,48.86,48.86,0,0,0-3,4.5c-1,1.53-2.3,2.34-4,1.45-1.81-1-1.47-2.63-.55-4.08a22.09,22.09,0,0,0,3-7.94l-2.68,3.33c-1.08,1.35-2.11,2.74-3.25,4-2.1,2.38-4.58,2-5.86-.93-1.14-2.61-.95-5.38-.71-8.13a13.82,13.82,0,0,0-.1-4.29c-2.33,2.91-4.66,5.83-7,8.73a53.16,53.16,0,0,1-7.16,7.15,16.85,16.85,0,0,1-6.38,3.44c-4.52,1.28-7.9-.34-9.26-4.76a26.09,26.09,0,0,1-1.19-11.17c.31-2.42.59-4.84.94-7.25.17-1.16.12-1.7-1.39-1.53-3.44.39-5.22-1.29-5.53-4.81-.19-2.05.55-4,.58-6.56M244.84,154c-3.73,6.07-7,11.57-10.47,17a8.38,8.38,0,0,0-1.42,5.1c.08,1.5-.08,3.14,1.56,3.88s3.08-.22,4.26-1.27c4.14-3.71,6.08-8.66,7.59-13.83a3.79,3.79,0,0,0,0-1.86,56.38,56.38,0,0,1-1.48-9M164,147.13c-1-.18-1.38.31-1.42.67-.44,3.75-3.4,6.07-5,9.14-1.52,2.85-2.86,5.78-2.53,9.16.09,1-.19,2.24,1,2.63s1.88-.61,2.5-1.41c4.63-6,4.7-13.17,5.44-20.19"></path><path class="cls-1" d="M258.61,97.27c-10.19.62-20.37,1.26-30.56,1.85-9.32.53-18.65,1-28,1.5-10.35.58-20.69,1.22-31,1.82-6.42.36-12.85.67-19.27,1-11.05.62-22.1,1.28-33.15,1.86-1.59.08-1.88,1.12-2.21,2.28q-4.8,17-9.63,34L77.64,237.29a18,18,0,0,1-.58,1.8c-.41,1-1,1.92-2.27,1.45a1.88,1.88,0,0,1-1.18-2.49c.8-3.19,1.57-6.4,2.36-9.6q14.72-59.77,29.45-119.55c.77-3.13.77-3-2.55-2.77-6.26.44-12.53.72-18.8,1.07L51.86,109q-9.53.53-19,1c-4.24.21-8.47.42-12.71.59-1.26,0-2.74.11-2.79-1.69S18.63,107.08,20,107c14.78-1.21,29.55-2.48,44.33-3.67,12.67-1,25.34-2,38-2.92,5.21-.39,5.21-.35,6.44-5.32q3.82-15.44,7.64-30.86c.57-2.3,1.39-4.43,4.15-4.8,4.14-.56,6.82,2.51,5.68,6.57-2.41,8.55-4.88,17.07-7.32,25.61-.52,1.81-1,3.64-1.52,5.44-.45,1.46,0,2.1,1.54,2,4.92-.38,9.85-.72,14.78-1.11q13.73-1.1,27.45-2.22c8.75-.72,17.5-1.48,26.26-2.2,8.6-.7,17.21-1.35,25.81-2,8.76-.71,17.51-1.45,26.27-2.16q10-.81,19.94-1.59l15-1.25c.93-.08,1.87-.16,2.81-.16,3.25,0,5.29,1.79,5.43,4.63.14,3-1.95,5.26-5.26,5.42-2.59.13-5.17.23-7.76.45-3.67.31-7.37.37-11.05.54v0"></path><path class="cls-1" d="M188.34,120c.22-1.79.35-3.59.69-5.35a4.59,4.59,0,0,1,5.82-3.66,4.45,4.45,0,0,1,2.82,6c-.59,1.62-1.35,3.17-2.06,4.74-1.08,2.4-2.54,3.32-4.49,2.79-2.34-.63-3-2.29-2.78-4.52"></path></g></svg>