<?xml version="1.0"?>
<svg id="Capa_1" data-name="Capa 1" xmlns="http://www.w3.org/2000/svg" viewBox="0 0 914.21 239.03">
  <defs>
    
  </defs>
  <path class="cls-1" d="M197.33,95.17c0,24.03-19.48,43.51-43.51,43.51s-43.51-19.48-43.51-43.51,19.48-43.51,43.51-43.51,43.51,19.48,43.51,43.51"></path>
  <path class="cls-1" d="M93.22,140.93c0,15.76-12.77,28.53-28.53,28.53s-28.53-12.77-28.53-28.53,12.77-28.53,28.53-28.53,28.53,12.77,28.53,28.53"></path>
  <path class="cls-1" d="M119.52,0C53.51,0,0,53.51,0,119.52s53.51,119.52,119.52,119.52,119.52-53.51,119.52-119.52S185.53,0,119.52,0M170.93,157.83c2.81,5.48,4.47,11.65,4.47,18.24,0,22.16-17.97,40.13-40.13,40.13-19.83,0-36.26-14.4-39.51-33.3-8.69,6.45-19.42,10.31-31.07,10.31-28.87,0-52.27-23.4-52.27-52.27s23.4-52.27,52.27-52.27c8.72,0,16.92,2.16,24.14,5.94.31-35.64,29.27-64.44,64.98-64.44s65.01,29.1,65.01,65.01c0,29.97-20.31,55.14-47.9,62.66"></path>
  <path class="cls-1" d="M155.94,176.07c0,11.41-9.25,20.67-20.67,20.67s-20.67-9.26-20.67-20.67,9.26-20.67,20.67-20.67,20.67,9.26,20.67,20.67"></path>
  <path class="cls-1" d="M722.97,126.54c-7.05,6.31-18.12,9.5-32.87,9.5-25.4,0-41.17-14.88-41.17-38.84s15.77-38.84,41.17-38.84c14.78,0,25.65,2.9,32.3,8.63l1.63,1.4,11-11.39-1.81-1.58c-10.78-9.4-27.31-15.23-43.11-15.23-43.68,0-66.54,28.68-66.54,57.01s22.86,57,66.54,57c15.49,0,32.19-6.12,43.58-15.98l1.79-1.54-10.84-11.63-1.66,1.48Z"></path>
  <path class="cls-1" d="M792.86,65.74c-38.85,0-53.4,23.37-53.4,47.95,0,20.62,22.35,41.36,54.35,41.36,23.09,0,35.12-14.42,35.62-15.03l1.49-1.83-12.49-9.44-1.4,1.51c-5.78,6.25-13.53,7.53-23.38,7.53-13.36,0-28.53-6.17-28.53-18.73h79.04v-2.28c0-26.43-16.18-51.04-51.3-51.04M792.86,81.52c22.09,0,27.18,14.48,27.18,21.79h-55.02c0-7.56,5.97-21.79,27.84-21.79"></path>
  <path class="cls-1" d="M890.73,145.09c-.55-1.55-12.24-2.67-12.24-15.52V33.78l-24.83,5.01v88.58c0,16.68,8.62,25.87,24.28,25.87.32,0,7.95-.06,12.24-5.41.92-1.15.74-2.21.55-2.74"></path>
  <polygon class="cls-1" points="365.59 38.21 318.13 137.59 270.49 38.21 255.13 38.21 310.54 153.98 325.54 153.98 380.96 38.21 365.59 38.21"></polygon>
  <rect class="cls-1" x="389.86" y="70.43" width="13.13" height="83.93"></rect>
  <rect class="cls-1" x="389.31" y="38.59" width="14.21" height="16.3"></rect>
  <path class="cls-1" d="M461.37,156.19c10.43,0,26.03-4.38,34.41-12.51l1.93-1.87v12.17h13.13V38.21h-13.13v42.71l-1.88-1.63c-9.08-7.87-24.51-11.45-34.99-11.45-27.07,0-47.48,19.06-47.48,44.33s19.3,44.02,48.02,44.02M436.35,89.19c6.52-6.81,15.86-10.56,26.28-10.56,19.01,0,35.07,15.14,35.07,33.07,0,19.21-15.08,33.69-35.07,33.69-17.47,0-35.25-10.63-35.43-30.95-.42-9.66,2.82-18.64,9.15-25.26"></path>
  <path class="cls-1" d="M619.01,143.58l-1.48.45c-2.72.83-4.74,1.24-6.19,1.24-2.82,0-3.73-1.57-3.73-6.45v-44.45c0-19.55-20.87-26.52-40.39-26.52s-41.73,7.35-43.47,28l-.1,1.23h13.25l.14-.98c1.6-11.42,11.98-17.46,29.99-17.46,15.9,0,27.44,6.48,27.44,15.42,0,2.87-.37,6.32-3.26,7.45-2.3.9-8.79,1.78-19.29,2.61l-14.97,1.73c-23.86,2.75-37.55,12.12-37.55,25.72,0,16.17,18.23,24.63,36.24,24.63,11.29,0,27.31-3.42,37.62-11.07l1.45-1.07.34,1.78c1.02,5.33,4.01,8.24,9.13,8.91,1.87.36,3.39.51,5.17.51,3.28,0,7.16-1.14,8.82-1.63l.82-.24v-9.8ZM594.48,122.73c0,16.51-23.48,22.66-38.29,22.66-9.52,0-22.93-4.19-22.93-13.51,0-12.87,20.38-15.62,29.15-16.21l2.97-.19c8.17-.52,19.36-1.24,27.66-3.52l1.44-.39v11.16Z"></path>
  <path class="cls-1" d="M501.02,200.28c-1.4,0-2.56.51-3.47,1.53-.92,1.02-1.37,2.41-1.35,4.17h9.61c-.05-1.86-.53-3.28-1.44-4.25-.91-.97-2.03-1.45-3.34-1.45Z"></path>
  <path class="cls-1" d="M634.65,210.65c-.84.6-1.26,1.35-1.26,2.27s.34,1.68,1.01,2.33c.67.65,1.52.98,2.57.98,1.16,0,2.26-.38,3.31-1.14.78-.58,1.29-1.29,1.53-2.13.17-.55.25-1.6.25-3.14v-1.28c-.83.28-2.13.6-3.92.99-1.78.38-2.95.76-3.5,1.12Z"></path>
  <path class="cls-1" d="M729.48,210.65c-.84.6-1.27,1.35-1.27,2.27s.34,1.68,1.01,2.33c.67.65,1.52.98,2.56.98,1.16,0,2.26-.38,3.32-1.14.78-.58,1.29-1.29,1.53-2.13.17-.55.25-1.6.25-3.14v-1.28c-.83.28-2.13.6-3.92.99-1.78.38-2.95.76-3.5,1.12Z"></path>
  <path class="cls-1" d="M475.59,200.28c-1.53,0-2.81.6-3.84,1.82-1.03,1.21-1.55,3.03-1.55,5.44,0,2.59.36,4.47,1.08,5.63,1.04,1.68,2.49,2.52,4.35,2.52,1.48,0,2.74-.63,3.78-1.89,1.04-1.26,1.56-3.14,1.56-5.64,0-2.79-.51-4.8-1.51-6.03-1.01-1.23-2.3-1.84-3.86-1.84Z"></path>
  <path class="cls-1" d="M360.37,210.65c-.84.6-1.26,1.35-1.26,2.27s.34,1.68,1.01,2.33c.67.65,1.52.98,2.56.98,1.16,0,2.27-.38,3.32-1.14.78-.58,1.29-1.29,1.53-2.13.17-.55.25-1.6.25-3.14v-1.28c-.82.28-2.13.6-3.91.99-1.78.38-2.95.76-3.5,1.12Z"></path>
  <path class="cls-1" d="M566.93,200.28c-1.4,0-2.56.51-3.47,1.53-.92,1.02-1.37,2.41-1.35,4.17h9.61c-.04-1.86-.52-3.28-1.44-4.25-.92-.97-2.03-1.45-3.34-1.45Z"></path>
  <path class="cls-1" d="M439.16,200.6c-1.68,0-3.09.64-4.23,1.92-1.14,1.29-1.72,3.13-1.72,5.54s.57,4.26,1.72,5.54c1.15,1.28,2.56,1.92,4.23,1.92s3.09-.65,4.22-1.92c1.14-1.28,1.71-3.14,1.71-5.58s-.57-4.21-1.71-5.5c-1.14-1.28-2.55-1.92-4.22-1.92Z"></path>
  <path class="cls-1" d="M882.85,171.74H236.04c-11.28,27.57-35.18,50.48-60.64,62.73h707.45c17.32,0,31.36-14.04,31.36-31.36s-14.04-31.36-31.36-31.36ZM566.66,186.09h7.21l-6.29,6.84h-4.08l3.16-6.84ZM349.97,214.94c-.71,1.45-1.68,2.6-2.91,3.46-1.23.86-2.74,1.39-4.54,1.59-1.13.12-3.85.2-8.17.23h-11.42v-33.55h13.41c2.66,0,4.63.11,5.94.33,1.31.22,2.47.68,3.5,1.39,1.03.7,1.89,1.64,2.58,2.8.69,1.17,1.03,2.48,1.03,3.92,0,1.57-.42,3.01-1.27,4.33-.85,1.31-2,2.3-3.45,2.96,2.05.59,3.62,1.61,4.72,3.04,1.1,1.44,1.65,3.12,1.65,5.06,0,1.52-.36,3.01-1.07,4.45ZM369.13,220.21c-.17-.43-.38-1.06-.62-1.9-.11-.38-.18-.63-.23-.75-1.1,1.07-2.28,1.87-3.53,2.4-1.25.53-2.59.81-4.01.81-2.5,0-4.48-.68-5.91-2.04-1.44-1.36-2.16-3.07-2.16-5.15,0-1.38.33-2.6.98-3.67.66-1.08,1.58-1.9,2.76-2.47,1.18-.57,2.89-1.07,5.12-1.5,3.01-.56,5.09-1.09,6.25-1.58v-.64c0-1.24-.3-2.12-.92-2.65-.61-.52-1.76-.79-3.45-.79-1.15,0-2.04.23-2.68.68-.64.45-1.16,1.24-1.56,2.37l-5.84-1.05c.65-2.35,1.78-4.09,3.39-5.22,1.6-1.13,3.98-1.69,7.14-1.69,2.87,0,5,.34,6.41,1.02,1.4.68,2.39,1.55,2.96,2.59.57,1.04.86,2.96.86,5.75l-.07,7.5c0,2.14.1,3.71.31,4.73.21,1.02.59,2.1,1.15,3.26h-6.36ZM400.21,220.21h-6.43v-12.4c0-2.63-.14-4.32-.41-5.1-.28-.77-.72-1.37-1.34-1.8-.62-.43-1.36-.64-2.23-.64-1.11,0-2.11.31-3,.92-.88.61-1.49,1.42-1.82,2.43-.33,1.01-.49,2.87-.49,5.59v11.01h-6.43v-24.3h5.97v3.57c2.12-2.75,4.79-4.12,8.01-4.12,1.42,0,2.72.26,3.89.77,1.17.51,2.06,1.17,2.66,1.96.6.79,1.02,1.69,1.26,2.7.24,1.01.36,2.45.36,4.32v15.11ZM422.12,218.54c-1.86,1.48-4.36,2.22-7.48,2.22-3.56,0-6.39-1.13-8.5-3.37-2.11-2.24-3.17-5.34-3.17-9.32s1.06-7.14,3.18-9.37c2.12-2.24,4.99-3.36,8.61-3.36,2.96,0,5.31.64,7.06,1.91,1.75,1.27,3,3.22,3.76,5.82l-6.34,1.15c-.21-1.27-.7-2.22-1.45-2.86-.76-.64-1.74-.96-2.94-.96-1.6,0-2.88.55-3.83,1.66-.95,1.11-1.43,2.96-1.43,5.55,0,2.89.49,4.92,1.46,6.11.97,1.19,2.27,1.79,3.9,1.79,1.22,0,2.22-.35,3-1.05.78-.69,1.33-1.88,1.65-3.58l6.31,1.07c-.65,2.9-1.91,5.09-3.77,6.57ZM448.15,217.14c-2.37,2.42-5.36,3.63-8.96,3.63-2.23,0-4.35-.51-6.37-1.51-2.02-1.01-3.56-2.49-4.61-4.43-1.05-1.95-1.58-4.32-1.58-7.11,0-2.14.53-4.2,1.58-6.2,1.05-2,2.54-3.52,4.48-4.58,1.93-1.05,4.08-1.58,6.46-1.58,3.68,0,6.69,1.2,9.04,3.59,2.35,2.39,3.52,5.41,3.52,9.05s-1.19,6.73-3.56,9.15ZM487.37,220.22h-5.97v-3.57c-1,1.39-2.17,2.42-3.52,3.1-1.35.68-2.71,1.02-4.09,1.02-2.79,0-5.18-1.13-7.18-3.38-1.99-2.25-2.99-5.39-2.99-9.42s.97-7.25,2.91-9.4c1.94-2.14,4.39-3.21,7.35-3.21,2.72,0,5.06,1.13,7.05,3.39v-12.08h6.43v33.55ZM497.64,214.37c.99,1.06,2.22,1.59,3.71,1.59,1.01,0,1.85-.27,2.54-.82.68-.54,1.2-1.43,1.55-2.65l6.41,1.07c-.82,2.35-2.12,4.14-3.9,5.37-1.78,1.22-4,1.84-6.68,1.84-4.23,0-7.35-1.38-9.38-4.14-1.6-2.21-2.4-5.01-2.4-8.38,0-4.03,1.05-7.18,3.16-9.46,2.1-2.28,4.77-3.43,7.99-3.43,3.61,0,6.47,1.2,8.56,3.58,2.09,2.39,3.09,6.04,3,10.97h-16.12c.05,1.91.57,3.39,1.56,4.46ZM548.83,218.12c-2.34,1.78-5.32,2.67-8.92,2.67-4.46,0-8.12-1.52-10.99-4.56-2.87-3.05-4.3-7.21-4.3-12.49,0-5.58,1.45-9.92,4.33-13.01,2.89-3.09,6.68-4.63,11.38-4.63,4.1,0,7.44,1.21,10,3.64,1.52,1.43,2.67,3.49,3.43,6.18l-6.7,1.6c-.4-1.74-1.23-3.11-2.49-4.12-1.26-1-2.79-1.51-4.58-1.51-2.49,0-4.51.89-6.06,2.68-1.55,1.79-2.32,4.68-2.32,8.68,0,4.24.76,7.26,2.28,9.06,1.53,1.8,3.51,2.7,5.95,2.7,1.8,0,3.35-.57,4.65-1.72,1.29-1.15,2.22-2.94,2.79-5.4l6.57,2.08c-1.01,3.66-2.69,6.38-5.02,8.16ZM563.55,214.37c.99,1.06,2.23,1.59,3.71,1.59,1.01,0,1.85-.27,2.54-.82.69-.54,1.21-1.43,1.56-2.65l6.4,1.07c-.82,2.35-2.12,4.14-3.9,5.37-1.78,1.22-4,1.84-6.67,1.84-4.23,0-7.35-1.38-9.39-4.14-1.6-2.21-2.4-5.01-2.4-8.38,0-4.03,1.05-7.18,3.16-9.46,2.1-2.28,4.77-3.43,7.99-3.43,3.61,0,6.47,1.2,8.56,3.58,2.09,2.39,3.09,6.04,3,10.97h-16.12c.05,1.91.57,3.39,1.56,4.45ZM587.43,220.21h-6.43v-33.55h6.43v33.55ZM613.65,220.21h-5.98v-3.64c-.88,1.3-2.04,2.32-3.49,3.07-1.44.75-2.96,1.12-4.57,1.12s-3.1-.36-4.39-1.07c-1.3-.72-2.24-1.73-2.82-3.02-.58-1.3-.87-3.09-.87-5.38v-15.38h6.43v11.17c0,3.42.12,5.51.35,6.28.24.77.67,1.38,1.29,1.83.63.45,1.42.68,2.38.68,1.09,0,2.08-.31,2.95-.91.87-.6,1.46-1.35,1.78-2.24.32-.9.48-3.08.48-6.56v-10.25h6.43v24.3ZM624.4,220.21h-6.43v-33.55h6.43v33.55ZM643.41,220.21c-.17-.43-.37-1.06-.62-1.9-.11-.38-.18-.63-.23-.75-1.1,1.07-2.28,1.87-3.53,2.4-1.25.53-2.59.81-4,.81-2.5,0-4.47-.68-5.92-2.04-1.44-1.36-2.16-3.07-2.16-5.15,0-1.38.33-2.6.98-3.67.66-1.08,1.58-1.9,2.76-2.47,1.18-.57,2.89-1.07,5.11-1.5,3.01-.56,5.09-1.09,6.25-1.58v-.64c0-1.24-.31-2.12-.92-2.65-.61-.52-1.76-.79-3.46-.79-1.15,0-2.04.23-2.68.68-.64.45-1.16,1.24-1.56,2.37l-5.84-1.05c.66-2.35,1.79-4.09,3.39-5.22,1.6-1.13,3.98-1.69,7.14-1.69,2.87,0,5.01.34,6.41,1.02,1.4.68,2.39,1.55,2.96,2.59.57,1.04.86,2.96.86,5.75l-.07,7.5c0,2.14.1,3.71.31,4.73.2,1.02.59,2.1,1.16,3.26h-6.37ZM670.02,218.36c-1.86,1.6-4.62,2.4-8.26,2.4-3.31,0-5.93-.67-7.86-2.01-1.93-1.34-3.19-3.17-3.79-5.48l6.46-.98c.27,1.25.83,2.2,1.67,2.85.83.65,2.01.97,3.52.97,1.67,0,2.91-.3,3.75-.91.57-.43.84-1,.84-1.72,0-.48-.15-.89-.46-1.21-.32-.31-1.04-.59-2.15-.85-5.18-1.14-8.47-2.19-9.86-3.14-1.92-1.31-2.89-3.14-2.89-5.47,0-2.1.83-3.87,2.5-5.31,1.66-1.44,4.24-2.15,7.73-2.15s5.8.54,7.42,1.63c1.62,1.08,2.73,2.68,3.34,4.81l-6.06,1.12c-.26-.95-.76-1.67-1.48-2.17-.72-.5-1.76-.76-3.1-.76-1.69,0-2.91.23-3.64.71-.49.34-.73.77-.73,1.3,0,.46.21.84.64,1.17.58.43,2.58,1.03,6.01,1.81,3.43.78,5.82,1.73,7.18,2.86,1.34,1.14,2.01,2.74,2.01,4.78,0,2.23-.93,4.14-2.79,5.74ZM719.14,220.21h-6.29v-26.41l-6.66,26.41h-6.53l-6.64-26.41v26.41h-6.29v-33.55h10.14l6.09,22.89,6.02-22.89h10.16v33.55ZM738.24,220.21c-.16-.43-.37-1.06-.62-1.9-.11-.38-.18-.63-.23-.75-1.1,1.07-2.28,1.87-3.53,2.4-1.25.53-2.59.81-4.01.81-2.5,0-4.47-.68-5.92-2.04-1.44-1.36-2.16-3.07-2.16-5.15,0-1.38.33-2.6.98-3.67.66-1.08,1.58-1.9,2.76-2.47,1.18-.57,2.89-1.07,5.11-1.5,3.01-.56,5.09-1.09,6.25-1.58v-.64c0-1.24-.31-2.12-.92-2.65-.61-.52-1.76-.79-3.46-.79-1.14,0-2.04.23-2.68.68-.64.45-1.16,1.24-1.56,2.37l-5.84-1.05c.66-2.35,1.79-4.09,3.39-5.22,1.6-1.13,3.98-1.69,7.14-1.69,2.87,0,5.01.34,6.41,1.02,1.4.68,2.39,1.55,2.96,2.59.57,1.04.86,2.96.86,5.75l-.07,7.5c0,2.14.1,3.71.31,4.73.2,1.02.59,2.1,1.16,3.26h-6.37ZM769.49,220.22h-5.97v-3.57c-1,1.39-2.17,2.42-3.52,3.1-1.35.68-2.71,1.02-4.08,1.02-2.8,0-5.18-1.13-7.18-3.38-1.99-2.25-2.99-5.39-2.99-9.42s.97-7.25,2.91-9.4c1.94-2.14,4.39-3.21,7.35-3.21,2.72,0,5.06,1.13,7.05,3.39v-12.08h6.43v33.55ZM783.95,201.13c-.9,0-1.67.25-2.29.75-.63.49-1.12,1.39-1.47,2.69-.36,1.29-.54,4.01-.54,8.15v7.51h-6.43v-24.3h5.97v3.45c1.02-1.63,1.94-2.71,2.76-3.23.82-.52,1.74-.78,2.78-.78,1.46,0,2.87.41,4.24,1.22l-1.99,5.6c-1.08-.7-2.09-1.05-3.02-1.05ZM795.66,214.37c.99,1.06,2.22,1.59,3.71,1.59,1.01,0,1.85-.27,2.54-.82.68-.54,1.2-1.43,1.56-2.65l6.4,1.07c-.82,2.35-2.12,4.14-3.9,5.37-1.78,1.22-4,1.84-6.67,1.84-4.23,0-7.35-1.38-9.38-4.14-1.6-2.21-2.4-5.01-2.4-8.38,0-4.03,1.05-7.18,3.16-9.46,2.1-2.28,4.77-3.43,7.99-3.43,3.61,0,6.47,1.2,8.56,3.58,2.09,2.39,3.09,6.04,3,10.97h-16.12c.05,1.91.57,3.39,1.56,4.46Z"></path>
  <path class="cls-1" d="M799.05,200.28c-1.4,0-2.56.51-3.48,1.53-.92,1.02-1.37,2.41-1.35,4.17h9.61c-.05-1.86-.53-3.28-1.44-4.25-.92-.97-2.03-1.45-3.34-1.45Z"></path>
  <path class="cls-1" d="M757.71,200.28c-1.53,0-2.8.6-3.83,1.82-1.03,1.21-1.55,3.03-1.55,5.44,0,2.59.36,4.47,1.08,5.63,1.04,1.68,2.49,2.52,4.35,2.52,1.48,0,2.74-.63,3.78-1.89,1.04-1.26,1.56-3.14,1.56-5.64,0-2.79-.51-4.8-1.51-6.03-1.01-1.23-2.3-1.84-3.87-1.84Z"></path>
  <path class="cls-1" d="M341.19,206.07c-.92-.32-2.93-.48-6.01-.48h-5.47v8.97h6.27c2.44,0,3.99-.07,4.65-.21,1.01-.18,1.83-.63,2.46-1.34.63-.71.95-1.66.95-2.85,0-1.01-.25-1.86-.73-2.56-.49-.7-1.2-1.21-2.12-1.53Z"></path>
  <path class="cls-1" d="M339.07,199.89c1.16-.14,2.07-.54,2.73-1.2.67-.66,1-1.54,1-2.62s-.29-1.88-.86-2.53c-.57-.65-1.42-1.05-2.55-1.18-.67-.08-2.6-.12-5.79-.12h-3.89v7.76h4.44c2.64,0,4.28-.03,4.92-.12Z"></path>
  <path class="cls-1" d="M901.75,40.19c6.87,0,12.46,5.59,12.46,12.46s-5.59,12.46-12.46,12.46-12.46-5.59-12.46-12.46,5.6-12.46,12.46-12.46M901.75,42.35c-5.69,0-10.3,4.61-10.3,10.3s4.6,10.3,10.3,10.3,10.3-4.61,10.3-10.3-4.61-10.3-10.3-10.3M901.43,53.57h-2.29v6.26h-2.16v-14.37h5.43c3.4,0,5.05,1.27,5.05,4.1,0,2.57-1.59,3.66-3.69,3.94l4.1,6.33h-2.7l-3.75-6.26ZM902.07,51.79c2.23,0,3.24-.67,3.24-2.26s-1.01-2.29-3.24-2.29h-2.92v4.55h2.92Z"></path>
</svg>